<svg width="60" height="20" viewBox="0 0 60 20" fill="none" xmlns="http://www.w3.org/2000/svg">
<g filter="url(#filter0_d_1_3)">
<path d="M50 1H10C7.23858 1 5 3.23858 5 6C5 8.76142 7.23858 11 10 11H50C52.7614 11 55 8.76142 55 6C55 3.23858 52.7614 1 50 1Z" fill="black"/>
<path d="M50 1H10C7.23858 1 5 3.23858 5 6C5 8.76142 7.23858 11 10 11H50C52.7614 11 55 8.76142 55 6C55 3.23858 52.7614 1 50 1Z" stroke="black"/>
</g>
<defs>
<filter id="filter0_d_1_3" x="0.5" y="0.5" width="59" height="19" filterUnits="userSpaceOnUse" color-interpolation-filters="sRGB">
<feFlood flood-opacity="0" result="BackgroundImageFix"/>
<feColorMatrix in="SourceAlpha" type="matrix" values="0 0 0 0 0 0 0 0 0 0 0 0 0 0 0 0 0 0 127 0" result="hardAlpha"/>
<feOffset dy="4"/>
<feGaussianBlur stdDeviation="2"/>
<feComposite in2="hardAlpha" operator="out"/>
<feColorMatrix type="matrix" values="0 0 0 0 0 0 0 0 0 0 0 0 0 0 0 0 0 0 0.25 0"/>
<feBlend mode="normal" in2="BackgroundImageFix" result="effect1_dropShadow_1_3"/>
<feBlend mode="normal" in="SourceGraphic" in2="effect1_dropShadow_1_3" result="shape"/>
</filter>
</defs>
</svg>
