<svg width="88" height="93" viewBox="0 0 88 93" fill="none" xmlns="http://www.w3.org/2000/svg">
<g clip-path="url(#clip0_11_419)">
<path opacity="0.998" fill-rule="evenodd" clip-rule="evenodd" d="M27.687 1.78003C27.687 18.2091 27.687 34.639 27.687 51.068C27.687 64.535 27.687 78.0011 27.687 91.468C19.3269 91.468 10.9676 91.468 2.60749 91.468C2.89201 81.0901 2.60316 70.8551 1.74268 60.764C1.74268 56.1851 1.74268 51.607 1.74268 47.028C1.74268 31.9451 1.74268 16.863 1.74268 1.78003C10.3908 1.78003 19.0389 1.78003 27.687 1.78003Z" fill="black"/>
<path opacity="0.998" fill-rule="evenodd" clip-rule="evenodd" d="M87.3591 13.9C87.3591 39.756 87.3591 65.612 87.3591 91.468C78.9989 91.468 70.6397 91.468 62.2795 91.468C62.2795 72.076 62.2795 52.684 62.2795 33.292C62.2795 22.788 62.2795 12.284 62.2795 1.78C67.9198 2.04099 73.3967 1.77192 78.711 0.972001C81.6349 1.00432 84.5173 0.735257 87.3591 0.164001C87.3591 4.74294 87.3591 9.32107 87.3591 13.9Z" fill="black"/>
<path fill-rule="evenodd" clip-rule="evenodd" d="M27.687 1.77998C19.0389 1.77998 10.3908 1.77998 1.74268 1.77998C1.74268 16.8629 1.74268 31.945 1.74268 47.028C0.880467 31.8166 0.592225 16.4646 0.877872 0.971982C9.9705 0.706958 18.9066 0.97683 27.687 1.77998Z" fill="black"/>
<path opacity="0.993" fill-rule="evenodd" clip-rule="evenodd" d="M38.9297 55.108C39.0144 53.4492 38.4376 52.1022 37.2 51.068C37.1179 49.2209 36.541 47.6049 35.4704 46.22C34.2666 44.1943 33.4018 42.0402 32.876 39.756C39.4459 38.1667 46.3644 37.6277 53.6315 38.14C53.6315 43.796 53.6315 49.452 53.6315 55.108C48.7306 55.108 43.8305 55.108 38.9297 55.108Z" fill="black"/>
<path opacity="0.01" fill-rule="evenodd" clip-rule="evenodd" d="M35.4704 46.22C36.5411 47.6049 37.1179 49.2209 37.2001 51.068C35.8389 49.7736 35.262 48.1576 35.4704 46.22Z" fill="black"/>
<path opacity="0.01" fill-rule="evenodd" clip-rule="evenodd" d="M37.2 51.068C38.4376 52.1022 39.0144 53.4492 38.9297 55.108C37.6921 54.0738 37.1153 52.7268 37.2 51.068Z" fill="black"/>
<path fill-rule="evenodd" clip-rule="evenodd" d="M1.74268 60.764C2.60316 70.8552 2.89201 81.0901 2.60749 91.468C10.9676 91.468 19.3269 91.468 27.687 91.468C27.687 91.7371 27.687 92.007 27.687 92.276C19.1262 92.4174 10.4781 92.4174 1.74268 92.276C1.74268 81.772 1.74268 71.268 1.74268 60.764Z" fill="black"/>
</g>
<defs>
<clipPath id="clip0_11_419">
<rect width="88" height="93" fill="white"/>
</clipPath>
</defs>
</svg>
