<svg width="263" height="93" viewBox="0 0 263 93" fill="none" xmlns="http://www.w3.org/2000/svg">
<g clip-path="url(#clip0_11_22)">
<path opacity="0.998" fill-rule="evenodd" clip-rule="evenodd" d="M27.687 1.78003C27.687 18.2091 27.687 34.639 27.687 51.068C27.687 64.535 27.687 78.0011 27.687 91.468C19.3269 91.468 10.9676 91.468 2.60749 91.468C2.89201 81.0901 2.60316 70.8551 1.74268 60.764C1.74268 56.1851 1.74268 51.607 1.74268 47.028C1.74268 31.9451 1.74268 16.863 1.74268 1.78003C10.3908 1.78003 19.0389 1.78003 27.687 1.78003Z" fill="#1D1D1D"/>
<path opacity="0.998" fill-rule="evenodd" clip-rule="evenodd" d="M87.3591 13.9C87.3591 39.756 87.3591 65.612 87.3591 91.468C78.9989 91.468 70.6397 91.468 62.2795 91.468C62.2795 72.076 62.2795 52.684 62.2795 33.292C62.2795 22.788 62.2795 12.284 62.2795 1.78C67.9198 2.04099 73.3967 1.77192 78.711 0.972001C81.6349 1.00432 84.5173 0.735257 87.3591 0.164001C87.3591 4.74294 87.3591 9.32107 87.3591 13.9Z" fill="#1D1D1D"/>
<path fill-rule="evenodd" clip-rule="evenodd" d="M27.687 1.77998C19.0389 1.77998 10.3908 1.77998 1.74268 1.77998C1.74268 16.8629 1.74268 31.945 1.74268 47.028C0.880467 31.8166 0.592225 16.4646 0.877872 0.971982C9.9705 0.706958 18.9066 0.97683 27.687 1.77998Z" fill="#1D1D1D"/>
<path opacity="0.995" fill-rule="evenodd" clip-rule="evenodd" d="M255.431 31.464C252.623 32.0716 249.74 32.4756 246.783 32.676C246.96 34.7938 246.96 37.0836 246.783 39.544C246.783 40.352 246.783 41.16 246.783 41.968C251.684 41.968 256.584 41.968 261.485 41.968C261.485 44.1229 261.485 46.2771 261.485 48.432C256.584 48.432 251.684 48.432 246.783 48.432C246.508 52.0939 246.796 55.5957 247.648 58.936C252.837 58.936 258.026 58.936 263.215 58.936C263.215 61.0909 263.215 63.2451 263.215 65.4C259.867 65.1455 256.696 65.4145 253.702 66.208C248.801 66.208 243.901 66.208 239 66.208C239 55.704 239 45.2 239 34.696C239 31.464 239 28.232 239 25C246.783 25 254.567 25 262.35 25C262.35 26.8851 262.35 28.7709 262.35 30.656C259.855 30.4088 257.548 30.6778 255.431 31.464Z" fill="#1D1D1D"/>
<path opacity="0.995" fill-rule="evenodd" clip-rule="evenodd" d="M220.161 26C223.31 26.1228 225.615 27.4689 227.08 30.04C227.08 35.1571 227.08 40.2749 227.08 45.392C225.364 47.5445 223.057 48.8914 220.161 49.432C216.527 49.1759 213.068 49.4457 209.783 50.24C209.727 55.9154 210.015 61.5714 210.648 67.208C207.766 67.208 204.882 67.208 202 67.208C202 56.1651 202 45.1229 202 34.08C202 31.3869 202 28.6931 202 26C208.054 26 214.107 26 220.161 26ZM215.837 32.464C219.367 32.8906 221.673 34.6408 222.755 37.716C221.683 39.9332 219.953 41.4142 217.567 42.16C215.467 42.2634 213.161 41.9944 210.648 41.352C209.855 38.7195 209.566 36.0265 209.783 33.272C211.996 33.516 214.015 33.2461 215.837 32.464Z" fill="#1D1D1D"/>
<path opacity="0.995" fill-rule="evenodd" clip-rule="evenodd" d="M185.412 29.0181C185.349 30.2519 185.926 31.0599 187.142 31.4421C188.007 31.7112 188.584 32.2501 188.872 33.0581C188.808 34.2919 189.385 35.0999 190.601 35.4821C192.197 39.8816 192.774 44.4606 192.331 49.2181C191.502 50.6741 190.926 52.2901 190.601 54.0661C186.392 61.6338 179.618 65.6738 170.278 66.1861C159.669 65.6803 152.462 60.8323 148.658 51.6421C146.012 38.3982 151.346 29.376 164.657 24.5741C172.366 23.0599 179.284 24.541 185.412 29.0181ZM172.44 58.1061C170.979 57.8976 169.249 57.8976 167.251 58.1061C157.956 54.7424 154.641 48.5483 157.306 39.5221C161.586 32.8003 167.784 30.5113 175.899 32.6541C184.319 37.4035 186.481 44.0016 182.386 52.4501C179.92 55.6869 176.604 57.5728 172.44 58.1061Z" fill="#1D1D1D"/>
<path opacity="0.994" fill-rule="evenodd" clip-rule="evenodd" d="M140.113 23.596C139.555 33.3308 140.132 42.7577 141.842 51.876C142.995 52.4149 142.995 52.9531 141.842 53.492C140.168 56.8977 139.591 60.6678 140.113 64.804C138.095 64.804 136.076 64.804 134.059 64.804C134.338 59.5342 134.05 54.4171 133.194 49.452C131.451 48.3014 129.434 47.7633 127.14 47.836C123.969 47.836 120.799 47.836 117.627 47.836C117.627 53.7611 117.627 59.6869 117.627 65.612C115.3 65.8051 112.849 65.8051 110.277 65.612C109.618 62.3097 109.761 59.0777 110.709 55.916C110.709 51.3371 110.709 46.7589 110.709 42.18C110.709 36.2549 110.709 30.3291 110.709 24.404C113.015 24.404 115.321 24.404 117.627 24.404C117.627 28.444 117.627 32.484 117.627 36.524C117.627 38.14 117.627 39.756 117.627 41.372C122.981 41.633 128.17 41.3639 133.194 40.564C132.492 35.0615 132.348 29.4055 132.762 23.596C135.066 22.7872 137.516 22.7872 140.113 23.596Z" fill="#1D1D1D"/>
<path opacity="0.994" fill-rule="evenodd" clip-rule="evenodd" d="M226.594 26.828C229.816 29.9663 230.825 33.7372 229.621 38.14C229.018 39.8239 228.009 41.1708 226.594 42.18C226.594 37.0629 226.594 31.9451 226.594 26.828Z" fill="#1D1D1D"/>
<path opacity="0.993" fill-rule="evenodd" clip-rule="evenodd" d="M38.9297 55.108C39.0144 53.4492 38.4376 52.1022 37.2 51.068C37.1179 49.2209 36.541 47.6049 35.4704 46.22C34.2666 44.1943 33.4018 42.0402 32.876 39.756C39.4459 38.1667 46.3644 37.6277 53.6315 38.14C53.6315 43.796 53.6315 49.452 53.6315 55.108C48.7306 55.108 43.8305 55.108 38.9297 55.108Z" fill="#1D1D1D"/>
<path opacity="0.01" fill-rule="evenodd" clip-rule="evenodd" d="M35.4704 46.22C36.5411 47.6049 37.1179 49.2209 37.2001 51.068C35.8389 49.7736 35.262 48.1576 35.4704 46.22Z" fill="#1D1D1D"/>
<path opacity="0.024" fill-rule="evenodd" clip-rule="evenodd" d="M192.866 47.836C193.252 49.8641 192.676 51.4801 191.136 52.684C191.461 50.908 192.038 49.292 192.866 47.836Z" fill="#1D1D1D"/>
<path opacity="0.01" fill-rule="evenodd" clip-rule="evenodd" d="M37.2 51.068C38.4376 52.1022 39.0144 53.4492 38.9297 55.108C37.6921 54.0738 37.1153 52.7268 37.2 51.068Z" fill="#1D1D1D"/>
<path opacity="0.039" fill-rule="evenodd" clip-rule="evenodd" d="M109.844 42.18C110.132 42.18 110.421 42.18 110.709 42.18C110.709 46.7589 110.709 51.3371 110.709 55.916C110.114 51.8219 109.537 47.6477 108.979 43.392C109.46 43.0825 109.748 42.6785 109.844 42.18Z" fill="#1D1D1D"/>
<path fill-rule="evenodd" clip-rule="evenodd" d="M172.189 42.6486C171.126 47.1171 170.063 47.1171 169 42.6486C170.228 41.7838 171.291 41.7838 172.189 42.6486Z" fill="#1D1D1D"/>
<path fill-rule="evenodd" clip-rule="evenodd" d="M27.687 51.068C28.2785 61.7376 28.8545 72.5115 29.4166 83.388C28.8943 86.4608 28.3183 89.4229 27.687 92.276C27.687 92.0069 27.687 91.7371 27.687 91.468C27.687 78.0011 27.687 64.5349 27.687 51.068Z" fill="#1D1D1D"/>
<path fill-rule="evenodd" clip-rule="evenodd" d="M1.74268 60.764C2.60316 70.8552 2.89201 81.0901 2.60749 91.468C10.9676 91.468 19.3269 91.468 27.687 91.468C27.687 91.7371 27.687 92.007 27.687 92.276C19.1262 92.4174 10.4781 92.4174 1.74268 92.276C1.74268 81.772 1.74268 71.268 1.74268 60.764Z" fill="#1D1D1D"/>
</g>
<defs>
<clipPath id="clip0_11_22">
<rect width="263" height="93" fill="white"/>
</clipPath>
</defs>
</svg>
