<svg width="500" height="500" viewBox="0 0 500 500" fill="none" xmlns="http://www.w3.org/2000/svg">
<g clip-path="url(#clip0_11_91)">
<path opacity="0.295" fill-rule="evenodd" clip-rule="evenodd" d="M368.5 48.5C335.917 49.0144 303.251 49.8477 270.5 51C269.54 52.4194 268.707 53.9194 268 55.5C267.171 74.0046 267.338 92.338 268.5 110.5C268.799 113.642 270.466 115.809 273.5 117C306.5 117.667 339.5 117.667 372.5 117C375.333 116.167 377.167 114.333 378 111.5C378.499 107.179 378.666 102.846 378.5 98.5C378.5 91.8333 378.5 85.1667 378.5 78.5C378.178 72.642 378.511 66.9753 379.5 61.5C385.571 69.2962 390.905 77.6296 395.5 86.5C400.792 87.4948 406.125 87.8282 411.5 87.5C410.641 93.6764 409.641 99.8431 408.5 106C408.585 107.107 408.919 108.107 409.5 109C407.38 110.523 407.047 112.356 408.5 114.5C406.706 116.535 406.373 118.702 407.5 121C405.88 128.764 404.213 136.597 402.5 144.5C404.007 146.969 403.673 149.135 401.5 151C402.097 152.062 402.43 153.228 402.5 154.5C401.506 160.134 400.173 165.967 398.5 172C399.935 174.267 399.602 176.267 397.5 178C398.531 182.525 397.865 186.858 395.5 191C396.833 192.667 396.833 194.333 395.5 196C398.146 196.497 400.813 196.664 403.5 196.5C405.167 196.5 406.833 196.5 408.5 196.5C411.833 196.5 415.167 196.5 418.5 196.5C419.833 196.5 421.167 196.5 422.5 196.5C424.5 196.5 426.5 196.5 428.5 196.5C432.5 196.5 436.5 196.5 440.5 196.5C444.833 196.5 449.167 196.5 453.5 196.5C456.5 196.5 459.5 196.5 462.5 196.5C466.833 196.5 471.167 196.5 475.5 196.5C488.082 210.576 496.082 226.909 499.5 245.5C499.5 255.5 499.5 265.5 499.5 275.5C495.163 299.842 484.663 321.175 468 339.5C452.899 353.596 438.899 368.596 426 384.5C412.913 403.675 399.579 422.675 386 441.5C371.54 458.983 353.373 470.816 331.5 477C308.782 483.096 285.782 487.763 262.5 491C240.24 493.439 218.907 490.106 198.5 481C182.798 473.821 167.798 465.655 153.5 456.5C155.124 456.64 156.29 455.973 157 454.5C157.498 451.518 157.665 448.518 157.5 445.5C158.811 441.317 158.811 436.984 157.5 432.5C148.822 429.496 140.156 426.496 131.5 423.5C130.34 430.028 130.673 436.361 132.5 442.5C132.5 443.167 132.5 443.833 132.5 444.5C96.99 427.503 65.49 404.836 38 376.5C24.2982 361.109 13.6315 343.775 6 324.5C3.64701 316.083 1.48034 307.75 -0.5 299.5C-0.5 289.833 -0.5 280.167 -0.5 270.5C5.60441 232.61 24.9377 203.61 57.5 183.5C57.3359 186.187 57.5026 188.854 58 191.5C62.0785 192.629 66.2452 192.796 70.5 192C68.8333 191.667 67.1667 191.333 65.5 191C71.7056 190.228 77.8722 190.395 84 191.5C91.9905 189.521 99.9905 189.188 108 190.5C110.383 189.234 113.05 188.568 116 188.5C120.518 188.935 125.018 189.102 129.5 189C128.304 188.346 128.304 187.846 129.5 187.5C130.192 188.025 130.692 188.692 131 189.5C134.064 188.217 137.397 187.55 141 187.5C147.177 187.983 153.343 188.15 159.5 188C158.167 187.667 156.833 187.333 155.5 187C158.482 186.502 161.482 186.335 164.5 186.5C164.5 194.167 164.5 201.833 164.5 209.5C164.5 222.833 164.5 236.167 164.5 249.5C133.165 249.333 101.832 249.5 70.5 250C65.9378 251.627 63.1045 254.794 62 259.5C61.3333 267.5 61.3333 275.5 62 283.5C63.4421 287.275 65.9421 290.108 69.5 292C103.165 292.5 136.832 292.667 170.5 292.5C172.637 293.787 174.97 294.621 177.5 295C191.496 295.5 205.496 295.667 219.5 295.5C219.833 296.167 220.167 296.833 220.5 297.5C216.883 306.267 219.717 311.934 229 314.5C233.609 313.409 235.443 310.409 234.5 305.5C232.26 295.048 235.26 286.548 243.5 280C246.206 278.092 249.206 277.259 252.5 277.5C252.5 278.833 252.5 280.167 252.5 281.5C261.5 281.5 270.5 281.5 279.5 281.5C291.59 280.696 299.257 286.03 302.5 297.5C302.746 303.559 302.413 309.559 301.5 315.5C301.075 318.119 300.075 320.453 298.5 322.5C295.181 326.66 290.848 328.994 285.5 329.5C281.167 329.5 276.833 329.5 272.5 329.5C272.5 323.167 272.5 316.833 272.5 310.5C280.54 309.636 283.707 305.303 282 297.5C278.425 294.034 274.092 292.7 269 293.5C262.566 292.225 257.566 294.225 254 299.5C253.204 305.877 256.038 309.543 262.5 310.5C262.5 316.833 262.5 323.167 262.5 329.5C258.833 329.5 255.167 329.5 251.5 329.5C248.673 329.416 246.006 328.75 243.5 327.5C242.058 324.8 241.392 325.134 241.5 328.5C241.84 330.512 242.173 332.512 242.5 334.5C235.368 337.426 231.701 342.759 231.5 350.5C230.532 352.607 230.198 354.941 230.5 357.5C226.835 357.502 223.835 358.835 221.5 361.5C219.738 362.262 218.738 363.596 218.5 365.5C216.926 367.102 216.259 369.102 216.5 371.5C216.198 374.059 216.532 376.393 217.5 378.5C217.328 379.492 217.662 380.158 218.5 380.5C218.427 382.027 219.094 383.027 220.5 383.5C220.833 384.5 221.5 385.167 222.5 385.5C223.6 386.558 224.934 387.392 226.5 388C230.821 388.499 235.154 388.666 239.5 388.5C241.525 399.416 243.025 410.416 244 421.5C244.621 425.409 246.288 428.743 249 431.5C252.922 429.918 256.422 430.584 259.5 433.5C260.665 423.851 260.832 414.184 260 404.5C259.153 402.146 258.32 399.812 257.5 397.5C257.62 396.414 258.287 395.747 259.5 395.5C266.119 396.847 272.785 397.347 279.5 397C280.337 395.989 280.67 394.822 280.5 393.5C280.5 391.833 280.5 390.167 280.5 388.5C282.167 388.5 283.833 388.5 285.5 388.5C284.978 401.273 285.811 413.94 288 426.5C288.309 427.766 288.809 428.933 289.5 430C292.334 430.045 294.834 430.879 297 432.5C302.812 418.442 305.312 403.776 304.5 388.5C307.4 387.557 309.733 385.89 311.5 383.5C312.5 383.167 313.167 382.5 313.5 381.5C314.338 381.158 314.672 380.492 314.5 379.5C315.404 378.791 315.737 377.791 315.5 376.5C316.767 373.939 316.767 371.272 315.5 368.5C315.155 365.802 313.822 363.802 311.5 362.5C310.833 361.167 309.833 360.167 308.5 359.5C308.158 358.662 307.492 358.328 306.5 358.5C306.666 353.489 306.499 348.489 306 343.5C305.632 340.435 304.465 337.768 302.5 335.5C303.244 331.881 303.577 328.215 303.5 324.5C303.335 321.15 303.502 317.817 304 314.5C304.671 315.252 305.504 315.586 306.5 315.5C315.563 317.377 319.396 313.71 318 304.5C316.855 301.568 316.022 298.568 315.5 295.5C330.17 295.667 344.837 295.5 359.5 295C363.882 293.502 366.882 290.668 368.5 286.5C395.169 286.667 421.835 286.5 448.5 286C453.062 284.373 455.895 281.206 457 276.5C457.667 257.833 457.667 239.167 457 220.5C455.021 215.011 451.188 212.011 445.5 211.5C420.672 210.502 395.672 210.169 370.5 210.5C370.5 207.833 370.5 205.167 370.5 202.5C370.5 192.833 370.5 183.167 370.5 173.5C370.824 166.646 370.491 159.979 369.5 153.5C369.25 151.326 368.25 149.659 366.5 148.5C364.284 145.556 361.284 143.889 357.5 143.5C310.67 142.501 263.67 142.168 216.5 142.5C216.5 138.167 216.5 133.833 216.5 129.5C216.5 126.167 216.5 122.833 216.5 119.5C216.5 113.833 216.5 108.167 216.5 102.5C216.5 96.1667 216.5 89.8333 216.5 83.5C216.5 79.1667 216.5 74.8333 216.5 70.5C217.091 66.0361 215.758 62.3695 212.5 59.5C210.88 57.0158 208.547 55.5158 205.5 55C198.842 54.5004 192.175 54.3337 185.5 54.5C224.71 9.28073 272.377 -2.88594 328.5 18C343.724 25.7291 357.058 35.8958 368.5 48.5Z" fill="#1BB502"/>
<path opacity="0.801" fill-rule="evenodd" clip-rule="evenodd" d="M368.5 48.5C373.703 48.4155 377.036 50.7489 378.5 55.5C377.292 54.7659 375.959 54.4326 374.5 54.5C374.297 56.3904 374.963 57.8904 376.5 59C375.584 59.3742 374.75 59.8742 374 60.5C370.832 60.4678 367.666 60.1345 364.5 59.5C364.5 60.8333 364.5 62.1667 364.5 63.5C356.296 64.0906 348.296 63.424 340.5 61.5C328.838 63.1259 317.171 64.1259 305.5 64.5C299.833 64.5 294.167 64.5 288.5 64.5C285.517 63.6125 282.35 62.9458 279 62.5C276.757 63.3712 274.757 63.3712 273 62.5C271.951 64.1066 270.451 64.7733 268.5 64.5C268.5 69.8333 268.5 75.1667 268.5 80.5C268.5 83.8333 268.5 87.1667 268.5 90.5C268.5 97.1667 268.5 103.833 268.5 110.5C267.338 92.338 267.171 74.0046 268 55.5C268.707 53.9194 269.54 52.4194 270.5 51C303.251 49.8477 335.917 49.0144 368.5 48.5Z" fill="#C6FDD5"/>
<path opacity="0.871" fill-rule="evenodd" clip-rule="evenodd" d="M185.5 54.5C192.175 54.3337 198.842 54.5004 205.5 55C208.547 55.5158 210.88 57.0158 212.5 59.5C212.389 60.1174 212.056 60.6174 211.5 61C201.477 60.9138 191.477 61.0805 181.5 61.5C178.369 62.797 176.036 64.9637 174.5 68C167.2 68.1286 160.034 68.9619 153 70.5C151.915 69.7069 150.748 69.0402 149.5 68.5C147.629 69.767 145.796 69.767 144 68.5C137.979 68.8474 134.145 69.8474 132.5 71.5C126.713 70.9216 121.213 70.2549 116 69.5C108.715 71.4201 101.382 71.7534 94 70.5C89.3693 72.0699 84.7026 72.4033 80 71.5C74.8673 72.4262 69.7006 73.4262 64.5 74.5C62.4104 74.4274 60.4104 74.094 58.5 73.5C58.5 70.5 58.5 67.5 58.5 64.5C60.0182 59.483 63.3516 56.3164 68.5 55C107.499 54.5 146.499 54.3333 185.5 54.5Z" fill="#EAFEED"/>
<path opacity="0.84" fill-rule="evenodd" clip-rule="evenodd" d="M212.5 59.5C215.758 62.3695 217.091 66.0361 216.5 70.5C214.153 72.044 211.486 72.7107 208.5 72.5C197.751 73.177 186.918 73.177 176 72.5C174.902 73.9675 173.402 74.8008 171.5 75C169.167 77.6667 166.833 80.3333 164.5 83C156.522 83.6274 148.855 83.1274 141.5 81.5C140.5 82 139.5 82.5 138.5 83C139.696 83.6543 139.696 84.1543 138.5 84.5C137.702 84.0431 137.369 83.3764 137.5 82.5C138.824 79.2053 137.491 77.872 133.5 78.5C133.396 80.7028 132.73 82.7028 131.5 84.5C128.932 83.5504 126.432 83.5504 124 84.5C122.559 83.7402 121.059 83.0736 119.5 82.5C118.304 82.8457 118.304 83.3457 119.5 84C114.846 85.1709 110.012 85.3375 105 84.5C100.64 84.9925 96.3062 85.6592 92 86.5C84.5131 85.5496 77.0131 85.383 69.5 86C71.5 86.3333 73.5 86.6667 75.5 87C70.5 87.6667 65.5 87.6667 60.5 87C58.6013 82.8222 57.9347 78.3222 58.5 73.5C60.4104 74.094 62.4104 74.4274 64.5 74.5C69.7006 73.4262 74.8673 72.4262 80 71.5C84.7026 72.4033 89.3693 72.0699 94 70.5C101.382 71.7534 108.715 71.4201 116 69.5C121.213 70.2549 126.713 70.9216 132.5 71.5C134.145 69.8474 137.979 68.8474 144 68.5C145.796 69.767 147.629 69.767 149.5 68.5C150.748 69.0402 151.915 69.7069 153 70.5C160.034 68.9619 167.2 68.1286 174.5 68C176.036 64.9637 178.369 62.797 181.5 61.5C191.477 61.0805 201.477 60.9138 211.5 61C212.056 60.6174 212.389 60.1174 212.5 59.5Z" fill="#E4FEE7"/>
<path opacity="0.841" fill-rule="evenodd" clip-rule="evenodd" d="M378.5 55.5C379.341 57.3792 379.675 59.3792 379.5 61.5C378.511 66.9753 378.178 72.642 378.5 78.5C376.021 79.0725 373.687 79.0725 371.5 78.5C370.833 78.6667 370.167 78.8333 369.5 79C370.696 79.6543 370.696 80.1543 369.5 80.5C368.459 78.0087 367.626 78.0087 367 80.5C366.583 79.244 365.75 78.5774 364.5 78.5C361.232 77.1778 357.565 76.5112 353.5 76.5C349.833 76.8333 346.167 77.1667 342.5 77.5C347.12 78.4933 351.786 78.8266 356.5 78.5C339.675 79.4966 322.675 79.8299 305.5 79.5C304.833 79.5 304.167 79.5 303.5 79.5C303.5 79.1667 303.5 78.8333 303.5 78.5C315.186 78.8322 326.852 78.4989 338.5 77.5C332 77.1667 325.5 76.8333 319 76.5C312.131 76.5034 305.631 77.17 299.5 78.5C291.167 78.5 282.833 78.5 274.5 78.5C274.167 82.5 273.833 82.5 273.5 78.5C271.446 78.3653 269.779 79.032 268.5 80.5C268.5 75.1667 268.5 69.8333 268.5 64.5C270.451 64.7733 271.951 64.1066 273 62.5C274.757 63.3712 276.757 63.3712 279 62.5C282.35 62.9458 285.517 63.6125 288.5 64.5C289.552 66.256 291.219 66.9227 293.5 66.5C293.5 68.1667 293.5 69.8333 293.5 71.5C299.303 72.0868 304.803 71.4202 310 69.5C315.422 70.8079 321.089 71.4746 327 71.5C332.5 71.1667 338 70.8333 343.5 70.5C340.232 69.513 336.898 69.1796 333.5 69.5C333.5 68.5 333.5 67.5 333.5 66.5C327.5 66.5 321.5 66.5 315.5 66.5C315.167 70.5 314.833 70.5 314.5 66.5C310.988 67.0545 307.988 66.3878 305.5 64.5C317.171 64.1259 328.838 63.1259 340.5 61.5C348.296 63.424 356.296 64.0906 364.5 63.5C364.5 62.1667 364.5 60.8333 364.5 59.5C367.666 60.1345 370.832 60.4678 374 60.5C374.75 59.8742 375.584 59.3742 376.5 59C374.963 57.8904 374.297 56.3904 374.5 54.5C375.959 54.4326 377.292 54.7659 378.5 55.5Z" fill="#D3FDD5"/>
<path opacity="0.865" fill-rule="evenodd" clip-rule="evenodd" d="M288.5 64.5C294.167 64.5 299.833 64.5 305.5 64.5C307.988 66.3878 310.988 67.0545 314.5 66.5C314.833 70.5 315.167 70.5 315.5 66.5C321.5 66.5 327.5 66.5 333.5 66.5C333.5 67.5 333.5 68.5 333.5 69.5C336.898 69.1796 340.232 69.513 343.5 70.5C338 70.8333 332.5 71.1667 327 71.5C321.089 71.4746 315.422 70.8079 310 69.5C304.803 71.4202 299.303 72.0868 293.5 71.5C293.5 69.8333 293.5 68.1667 293.5 66.5C291.219 66.9227 289.552 66.256 288.5 64.5Z" fill="#8ED38D"/>
<path opacity="0.843" fill-rule="evenodd" clip-rule="evenodd" d="M216.5 70.5C216.5 74.8333 216.5 79.1667 216.5 83.5C211.511 82.6001 206.511 82.9334 201.5 84.5C200.353 84.1822 199.519 83.5156 199 82.5C196.175 84.1878 193.009 85.0211 189.5 85C184.249 85.8037 179.082 85.637 174 84.5C170.924 85.2883 167.758 85.7883 164.5 86C161.979 88.2198 159.812 90.7198 158 93.5C156.057 92.193 154.223 92.193 152.5 93.5C149.242 92.0924 146.076 90.4257 143 88.5C142.322 90.5976 142.489 92.5976 143.5 94.5C139.671 95.069 136.337 94.4023 133.5 92.5C134.321 88.8733 135.654 85.54 137.5 82.5C137.369 83.3764 137.702 84.0431 138.5 84.5C139.696 84.1543 139.696 83.6543 138.5 83C139.5 82.5 140.5 82 141.5 81.5C148.855 83.1274 156.522 83.6274 164.5 83C166.833 80.3333 169.167 77.6667 171.5 75C173.402 74.8008 174.902 73.9675 176 72.5C186.918 73.177 197.751 73.177 208.5 72.5C211.486 72.7107 214.153 72.044 216.5 70.5Z" fill="#DDFEE0"/>
<path opacity="0.799" fill-rule="evenodd" clip-rule="evenodd" d="M58.4999 64.5C58.4999 67.5 58.4999 70.5 58.4999 73.5C57.9346 78.3222 58.6012 82.8222 60.4999 87C65.4999 87.6667 70.4999 87.6667 75.4999 87C73.4999 86.6667 71.4999 86.3333 69.4999 86C77.013 85.383 84.513 85.5496 91.9999 86.5C96.3061 85.6592 100.64 84.9925 105 84.5C110.012 85.3375 114.846 85.1709 119.5 84C118.304 83.3457 118.304 82.8457 119.5 82.5C121.059 83.0736 122.559 83.7402 124 84.5C126.432 83.5504 128.932 83.5504 131.5 84.5C130.442 88.2793 129.109 91.9459 127.5 95.5C122.063 97.2686 116.73 96.602 111.5 93.5C112.613 92.0536 112.78 90.3869 112 88.5C106.885 91.3072 101.718 93.9739 96.4999 96.5C93.4211 96.7399 90.4211 96.4066 87.4999 95.5C80.3827 96.8018 73.2161 97.8018 65.9999 98.5C65.0545 98.0946 64.3878 97.428 63.9999 96.5C62.5556 98.1554 60.7223 98.822 58.4999 98.5C58.8149 94.6286 58.4815 90.9619 57.4999 87.5C57.1745 79.6484 57.5079 71.9818 58.4999 64.5Z" fill="#DDFEE0"/>
<path opacity="0.922" fill-rule="evenodd" clip-rule="evenodd" d="M281.5 73.5C288.532 73.1697 295.532 73.503 302.5 74.5C299 74.8333 295.5 75.1667 292 75.5C288.098 75.4877 284.598 74.821 281.5 73.5Z" fill="#92C792"/>
<path opacity="0.914" fill-rule="evenodd" clip-rule="evenodd" d="M303.5 78.5C302.167 78.5 300.833 78.5 299.5 78.5C305.631 77.17 312.131 76.5034 319 76.5C325.5 76.8333 332 77.1667 338.5 77.5C326.852 78.4989 315.186 78.8322 303.5 78.5Z" fill="#92C792"/>
<path opacity="0.914" fill-rule="evenodd" clip-rule="evenodd" d="M364.5 78.5C361.833 78.5 359.167 78.5 356.5 78.5C351.786 78.8266 347.12 78.4933 342.5 77.5C346.167 77.1667 349.833 76.8333 353.5 76.5C357.565 76.5112 361.232 77.1778 364.5 78.5Z" fill="#92C792"/>
<path opacity="0.892" fill-rule="evenodd" clip-rule="evenodd" d="M299.5 78.5C300.833 78.5 302.167 78.5 303.5 78.5C303.5 78.8333 303.5 79.1667 303.5 79.5C298.456 79.1725 293.456 79.5059 288.5 80.5C291.333 80.8333 294.167 81.1667 297 81.5C300.252 81.4809 303.085 80.8142 305.5 79.5C322.675 79.8299 339.675 79.4966 356.5 78.5C359.167 78.5 361.833 78.5 364.5 78.5C365.75 78.5774 366.583 79.244 367 80.5C367.626 78.0087 368.459 78.0087 369.5 80.5C370.696 80.1543 370.696 79.6543 369.5 79C370.167 78.8333 370.833 78.6667 371.5 78.5C373.687 79.0725 376.021 79.0725 378.5 78.5C378.5 85.1667 378.5 91.8333 378.5 98.5C363.129 97.8497 348.129 98.5163 333.5 100.5C330.6 99.2634 327.433 98.5967 324 98.5C319.428 98.8997 314.928 99.5664 310.5 100.5C305.13 102.379 299.463 103.045 293.5 102.5C293.5 101.5 293.5 100.5 293.5 99.5C300.532 99.8303 307.532 99.497 314.5 98.5C311.572 97.5159 308.572 97.1826 305.5 97.5C305.5 96.5 305.5 95.5 305.5 94.5C316.52 94.8321 327.52 94.4988 338.5 93.5C331.833 93.1667 325.167 92.8333 318.5 92.5C311.061 92.5699 303.728 93.2365 296.5 94.5C291.669 92.7316 286.669 92.0649 281.5 92.5C281.5 92.1667 281.5 91.8333 281.5 91.5C288.532 91.8303 295.532 91.497 302.5 90.5C295.344 89.1812 288.344 89.1812 281.5 90.5C277.167 90.5 272.833 90.5 268.5 90.5C268.5 87.1667 268.5 83.8333 268.5 80.5C269.779 79.032 271.446 78.3653 273.5 78.5C273.833 82.5 274.167 82.5 274.5 78.5C282.833 78.5 291.167 78.5 299.5 78.5Z" fill="#DEFEDB"/>
<path fill-rule="evenodd" clip-rule="evenodd" d="M137.5 82.5C135.654 85.54 134.321 88.8733 133.5 92.5C130.462 99.2685 127.796 106.269 125.5 113.5C123.951 117.291 122.284 121.124 120.5 125C119.056 125.781 117.723 125.614 116.5 124.5C117.705 121.55 118.705 118.55 119.5 115.5C122.343 108.984 125.01 102.317 127.5 95.5C129.109 91.9459 130.442 88.2793 131.5 84.5C132.73 82.7028 133.396 80.7028 133.5 78.5C137.491 77.872 138.824 79.2053 137.5 82.5Z" fill="#65BF4E"/>
<path opacity="0.914" fill-rule="evenodd" clip-rule="evenodd" d="M303.5 79.5C304.167 79.5 304.833 79.5 305.5 79.5C303.085 80.8142 300.252 81.4809 297 81.5C294.167 81.1667 291.333 80.8333 288.5 80.5C293.456 79.5059 298.456 79.1725 303.5 79.5Z" fill="#92C792"/>
<path opacity="0.916" fill-rule="evenodd" clip-rule="evenodd" d="M293.5 82.5C300.532 82.1697 307.532 82.503 314.5 83.5C311 83.8333 307.5 84.1667 304 84.5C300.098 84.4877 296.598 83.821 293.5 82.5Z" fill="#92C792"/>
<path opacity="0.925" fill-rule="evenodd" clip-rule="evenodd" d="M315.5 82.5C321.206 82.1712 326.872 82.5046 332.5 83.5C329.667 83.8333 326.833 84.1667 324 84.5C320.748 84.4809 317.915 83.8142 315.5 82.5Z" fill="#92C792"/>
<path opacity="0.929" fill-rule="evenodd" clip-rule="evenodd" d="M311.5 85.5C322.187 85.168 332.854 85.5013 343.5 86.5C338.167 86.8333 332.833 87.1667 327.5 87.5C321.789 87.4949 316.456 86.8282 311.5 85.5Z" fill="#8ED38D"/>
<path opacity="0.902" fill-rule="evenodd" clip-rule="evenodd" d="M293.5 85.5C298.875 85.1718 304.208 85.5052 309.5 86.5C306.833 86.8333 304.167 87.1667 301.5 87.5C298.41 87.4783 295.743 86.8117 293.5 85.5Z" fill="#92C792"/>
<path opacity="0.659" fill-rule="evenodd" clip-rule="evenodd" d="M431.5 87.5C433.167 87.5 434.833 87.5 436.5 87.5C435.469 88.2485 434.302 88.9152 433 89.5C429.841 108.107 427.508 126.773 426 145.5C426.707 147.081 427.54 148.581 428.5 150C426.398 151.733 426.065 153.733 427.5 156C426.57 157.194 425.903 158.527 425.5 160C425.316 162.943 425.316 165.943 425.5 169C424.481 172.648 423.481 176.315 422.5 180C422.833 181 423.167 182 423.5 183C422.838 186.425 421.838 189.925 420.5 193.5C421.193 194.518 421.859 195.518 422.5 196.5C421.167 196.5 419.833 196.5 418.5 196.5C417.602 195.842 416.602 195.176 415.5 194.5C416.5 193.167 417.5 191.833 418.5 190.5C418.023 189.522 417.357 188.689 416.5 188C417.804 187.196 418.471 186.029 418.5 184.5C418.904 181.43 418.904 178.263 418.5 175C419.257 173.488 420.257 172.154 421.5 171C420.833 170.667 420.167 170.333 419.5 170C421.036 165.934 422.036 161.934 422.5 158C422.516 154.984 422.516 151.984 422.5 149C423.167 147.333 423.833 145.667 424.5 144C423.014 141.711 422.014 139.211 421.5 136.5C423.877 121.429 426.377 105.762 429 89.5C429.995 88.9341 430.828 88.2674 431.5 87.5Z" fill="#ADFCAB"/>
<path opacity="0.652" fill-rule="evenodd" clip-rule="evenodd" d="M436.5 87.5C443.167 87.5 449.833 87.5 456.5 87.5C453.713 88.4767 450.713 88.81 447.5 88.5C443.055 87.8735 441.388 89.5402 442.5 93.5C441.926 95.0589 441.26 96.5589 440.5 98C441.308 98.3076 441.975 98.8076 442.5 99.5C439.993 101.808 439.326 104.475 440.5 107.5C440.471 109.029 439.804 110.196 438.5 111C439.167 111.333 439.833 111.667 440.5 112C439.308 113.912 438.308 115.912 437.5 118C438.167 118.667 438.833 119.333 439.5 120C437.246 122.234 436.58 124.734 437.5 127.5C437.278 129.055 436.611 130.389 435.5 131.5C435.551 136.014 435.551 140.514 435.5 145C435.066 147.316 434.066 149.316 432.5 151C433.097 152.062 433.43 153.228 433.5 154.5C431.967 161.106 430.634 167.773 429.5 174.5C429.57 175.772 429.903 176.938 430.5 178C428.408 178.953 428.075 180.286 429.5 182C428.188 185.72 427.188 189.553 426.5 193.5C426.942 194.739 427.609 195.739 428.5 196.5C426.5 196.5 424.5 196.5 422.5 196.5C421.859 195.518 421.193 194.518 420.5 193.5C421.838 189.925 422.838 186.425 423.5 183C423.167 182 422.833 181 422.5 180C423.481 176.315 424.481 172.648 425.5 169C425.316 165.943 425.316 162.943 425.5 160C425.903 158.527 426.57 157.194 427.5 156C426.065 153.733 426.398 151.733 428.5 150C427.54 148.581 426.707 147.081 426 145.5C427.508 126.773 429.841 108.107 433 89.5C434.302 88.9152 435.469 88.2485 436.5 87.5Z" fill="#B5FCBC"/>
<path opacity="0.621" fill-rule="evenodd" clip-rule="evenodd" d="M411.5 87.5C413.5 87.5 415.5 87.5 417.5 87.5C415.888 98.6743 414.221 109.841 412.5 121C413.444 129.411 412.778 137.744 410.5 146C410.645 147.226 410.978 148.393 411.5 149.5C410.028 152.149 409.028 154.982 408.5 158C408.833 158.333 409.167 158.667 409.5 159C406.956 171.379 404.956 183.879 403.5 196.5C400.813 196.664 398.146 196.497 395.5 196C396.833 194.333 396.833 192.667 395.5 191C397.865 186.858 398.531 182.525 397.5 178C399.602 176.267 399.935 174.267 398.5 172C400.173 165.967 401.506 160.134 402.5 154.5C402.43 153.228 402.097 152.062 401.5 151C403.673 149.135 404.007 146.969 402.5 144.5C404.213 136.597 405.88 128.764 407.5 121C406.373 118.702 406.706 116.535 408.5 114.5C407.047 112.356 407.38 110.523 409.5 109C408.919 108.107 408.585 107.107 408.5 106C409.641 99.8431 410.641 93.6764 411.5 87.5Z" fill="#97FB8E"/>
<path opacity="0.642" fill-rule="evenodd" clip-rule="evenodd" d="M417.5 87.5C419.167 87.5 420.833 87.5 422.5 87.5C420.317 88.5374 419.984 90.0374 421.5 92C420.519 95.6853 419.519 99.3519 418.5 103C419.022 103.561 419.355 104.228 419.5 105C417.363 107.25 417.029 109.75 418.5 112.5C418.278 114.055 417.611 115.389 416.5 116.5C416.709 117.086 417.043 117.586 417.5 118C415.608 123.236 415.608 128.402 417.5 133.5C413.695 154.627 410.695 175.627 408.5 196.5C406.833 196.5 405.167 196.5 403.5 196.5C404.956 183.879 406.956 171.379 409.5 159C409.167 158.667 408.833 158.333 408.5 158C409.028 154.982 410.028 152.149 411.5 149.5C410.978 148.393 410.645 147.226 410.5 146C412.778 137.744 413.444 129.411 412.5 121C414.221 109.841 415.888 98.6743 417.5 87.5Z" fill="#9AFB98"/>
<path opacity="0.655" fill-rule="evenodd" clip-rule="evenodd" d="M422.5 87.5C425.5 87.5 428.5 87.5 431.5 87.5C430.828 88.2674 429.995 88.9341 429 89.5C426.377 105.762 423.877 121.429 421.5 136.5C422.014 139.211 423.014 141.711 424.5 144C423.833 145.667 423.167 147.333 422.5 149C422.516 151.984 422.516 154.984 422.5 158C422.036 161.934 421.036 165.934 419.5 170C420.167 170.333 420.833 170.667 421.5 171C420.257 172.154 419.257 173.488 418.5 175C418.904 178.263 418.904 181.43 418.5 184.5C418.471 186.029 417.804 187.196 416.5 188C417.357 188.689 418.023 189.522 418.5 190.5C417.5 191.833 416.5 193.167 415.5 194.5C416.602 195.176 417.602 195.842 418.5 196.5C415.167 196.5 411.833 196.5 408.5 196.5C410.695 175.627 413.695 154.627 417.5 133.5C415.608 128.402 415.608 123.236 417.5 118C417.043 117.586 416.709 117.086 416.5 116.5C417.611 115.389 418.278 114.055 418.5 112.5C417.029 109.75 417.363 107.25 419.5 105C419.355 104.228 419.022 103.561 418.5 103C419.519 99.3519 420.519 95.6853 421.5 92C419.984 90.0374 420.317 88.5374 422.5 87.5Z" fill="#A3FCAC"/>
<path opacity="0.714" fill-rule="evenodd" clip-rule="evenodd" d="M456.5 87.5C462.69 87.1771 468.69 87.5104 474.5 88.5C473.167 88.5 471.833 88.5 470.5 88.5C467.15 88.335 463.817 88.5017 460.5 89C458.16 91.3363 457.493 94.003 458.5 97C456.956 99.1512 456.623 101.318 457.5 103.5C457.152 105.697 456.152 107.53 454.5 109C455.167 109.333 455.833 109.667 456.5 110C455.455 113.64 454.455 117.306 453.5 121C454.589 123.523 454.256 126.023 452.5 128.5C453.103 130.452 452.77 132.452 451.5 134.5C451.5 137.5 451.5 140.5 451.5 143.5C450.833 144.833 450.167 146.167 449.5 147.5C449.782 150.744 449.782 153.911 449.5 157C446.833 159.333 446.833 161.667 449.5 164C447.777 164.775 446.777 166.108 446.5 168C448.167 170.333 449.833 172.667 451.5 175C450.264 176.856 450.264 178.689 451.5 180.5C450.137 182.674 449.803 184.841 450.5 187C449.833 188.333 449.167 189.667 448.5 191C449.38 192.356 449.714 193.856 449.5 195.5C451.099 195.232 452.432 195.566 453.5 196.5C449.167 196.5 444.833 196.5 440.5 196.5C439.791 195.596 438.791 195.263 437.5 195.5C437.974 192.079 437.974 188.745 437.5 185.5C439.533 183.548 439.866 181.382 438.5 179C440.025 175.34 441.025 171.507 441.5 167.5C440.325 164.427 438.992 161.094 437.5 157.5C441.08 134.525 444.413 111.525 447.5 88.5C450.713 88.81 453.713 88.4767 456.5 87.5Z" fill="#A3EDA6"/>
<path opacity="0.768" fill-rule="evenodd" clip-rule="evenodd" d="M470.5 88.5C471.393 90.7186 471.06 92.8853 469.5 95C470.308 95.3076 470.975 95.8076 471.5 96.5C470.833 97.8333 470.167 99.1667 469.5 100.5C469.327 103.093 469.327 105.76 469.5 108.5C468.786 110.811 467.786 112.978 466.5 115C467.308 115.308 467.975 115.808 468.5 116.5C467.248 118.001 466.248 119.668 465.5 121.5C466.167 121.833 466.833 122.167 467.5 122.5C466.877 124.711 465.877 126.711 464.5 128.5C465.378 130.748 465.045 132.915 463.5 135C464.308 135.308 464.975 135.808 465.5 136.5C465.225 140.429 463.892 144.263 461.5 148C462.167 148.333 462.833 148.667 463.5 149C462.98 153.339 461.647 157.673 459.5 162C460.167 162.333 460.833 162.667 461.5 163C458.464 166.225 457.798 169.559 459.5 173C457.109 174.309 457.109 175.309 459.5 176C456.975 178.584 457.475 180.751 461 182.5C461.681 186.202 461.515 189.869 460.5 193.5C460.942 194.739 461.609 195.739 462.5 196.5C459.5 196.5 456.5 196.5 453.5 196.5C452.432 195.566 451.099 195.232 449.5 195.5C449.714 193.856 449.38 192.356 448.5 191C449.167 189.667 449.833 188.333 450.5 187C449.803 184.841 450.137 182.674 451.5 180.5C450.264 178.689 450.264 176.856 451.5 175C449.833 172.667 448.167 170.333 446.5 168C446.777 166.108 447.777 164.775 449.5 164C446.833 161.667 446.833 159.333 449.5 157C449.782 153.911 449.782 150.744 449.5 147.5C450.167 146.167 450.833 144.833 451.5 143.5C451.5 140.5 451.5 137.5 451.5 134.5C452.77 132.452 453.103 130.452 452.5 128.5C454.256 126.023 454.589 123.523 453.5 121C454.455 117.306 455.455 113.64 456.5 110C455.833 109.667 455.167 109.333 454.5 109C456.152 107.53 457.152 105.697 457.5 103.5C456.623 101.318 456.956 99.1512 458.5 97C457.493 94.003 458.16 91.3363 460.5 89C463.817 88.5017 467.15 88.335 470.5 88.5Z" fill="#99DDA0"/>
<path fill-rule="evenodd" clip-rule="evenodd" d="M111.5 93.5C103.369 97.3988 95.3695 101.565 87.5001 106C94.0673 109.451 100.734 112.618 107.5 115.5C108.78 116.931 110.447 117.598 112.5 117.5C112.785 119.288 112.452 120.955 111.5 122.5C107.265 120.215 102.931 118.215 98.5001 116.5C93.8875 113.188 88.8875 110.354 83.5001 108C82.2529 106.506 82.2529 105.006 83.5001 103.5C88.0546 101.392 92.3879 99.0591 96.5001 96.5C101.718 93.9739 106.885 91.3072 112 88.5C112.78 90.3869 112.613 92.0536 111.5 93.5Z" fill="#65BF4E"/>
<path fill-rule="evenodd" clip-rule="evenodd" d="M152.5 93.5C159.167 97.1667 165.833 100.833 172.5 104.5C172.5 105.833 172.5 107.167 172.5 108.5C163.415 112.541 154.415 116.875 145.5 121.5C143.402 122.914 142.402 122.248 142.5 119.5C150.453 114.52 158.786 110.02 167.5 106C165.636 104.569 163.636 103.403 161.5 102.5C155.5 99.8333 149.5 97.1667 143.5 94.5C142.489 92.5976 142.322 90.5976 143 88.5C146.076 90.4257 149.242 92.0924 152.5 93.5Z" fill="#65BF4E"/>
<path opacity="0.941" fill-rule="evenodd" clip-rule="evenodd" d="M281.5 91.5C281.5 91.1667 281.5 90.8333 281.5 90.5C288.344 89.1812 295.344 89.1812 302.5 90.5C295.532 91.497 288.532 91.8303 281.5 91.5Z" fill="#92C792"/>
<path opacity="0.823" fill-rule="evenodd" clip-rule="evenodd" d="M216.5 83.5C216.5 89.8333 216.5 96.1667 216.5 102.5C209.126 101.602 201.959 101.936 195 103.5C193.674 103.245 192.674 102.578 192 101.5C190.475 102.72 188.641 103.387 186.5 103.5C181.851 104.128 177.184 104.461 172.5 104.5C165.833 100.833 159.167 97.1667 152.5 93.5C154.223 92.193 156.057 92.193 158 93.5C159.812 90.7198 161.979 88.2198 164.5 86C167.758 85.7883 170.924 85.2883 174 84.5C179.082 85.637 184.249 85.8037 189.5 85C193.009 85.0211 196.175 84.1878 199 82.5C199.519 83.5156 200.353 84.1822 201.5 84.5C206.511 82.9334 211.511 82.6001 216.5 83.5Z" fill="#D3FDDC"/>
<path opacity="0.83" fill-rule="evenodd" clip-rule="evenodd" d="M470.5 88.5C471.833 88.5 473.167 88.5 474.5 88.5C480.073 89.5717 483.573 92.905 485 98.5C485.83 127.67 485.664 156.67 484.5 185.5C484.667 158.165 484.5 130.831 484 103.5C482.354 104.941 482.187 106.608 483.5 108.5C483.061 110.104 482.394 111.604 481.5 113C483.002 115.006 482.669 116.672 480.5 118C483.1 120.873 483.1 123.706 480.5 126.5C480.709 127.086 481.043 127.586 481.5 128C480.865 132.225 479.865 136.391 478.5 140.5C478.931 141.293 479.265 142.127 479.5 143C476.868 152.74 475.368 162.24 475 171.5C473.244 172.421 473.077 173.588 474.5 175C473.458 180.838 472.458 186.671 471.5 192.5C472.283 194.288 473.616 195.288 475.5 195.5C475.5 195.833 475.5 196.167 475.5 196.5C471.167 196.5 466.833 196.5 462.5 196.5C461.609 195.739 460.942 194.739 460.5 193.5C461.515 189.869 461.681 186.202 461 182.5C457.475 180.751 456.975 178.584 459.5 176C457.109 175.309 457.109 174.309 459.5 173C457.798 169.559 458.464 166.225 461.5 163C460.833 162.667 460.167 162.333 459.5 162C461.647 157.673 462.98 153.339 463.5 149C462.833 148.667 462.167 148.333 461.5 148C463.892 144.263 465.225 140.429 465.5 136.5C464.975 135.808 464.308 135.308 463.5 135C465.045 132.915 465.378 130.748 464.5 128.5C465.877 126.711 466.877 124.711 467.5 122.5C466.833 122.167 466.167 121.833 465.5 121.5C466.248 119.668 467.248 118.001 468.5 116.5C467.975 115.808 467.308 115.308 466.5 115C467.786 112.978 468.786 110.811 469.5 108.5C469.327 105.76 469.327 103.093 469.5 100.5C470.167 99.1667 470.833 97.8333 471.5 96.5C470.975 95.8076 470.308 95.3076 469.5 95C471.06 92.8853 471.393 90.7186 470.5 88.5Z" fill="#78CA77"/>
<path opacity="0.906" fill-rule="evenodd" clip-rule="evenodd" d="M281.5 92.5C286.669 92.0649 291.669 92.7316 296.5 94.5C303.728 93.2365 311.061 92.5699 318.5 92.5C325.167 92.8333 331.833 93.1667 338.5 93.5C327.52 94.4988 316.52 94.8321 305.5 94.5C305.5 95.5 305.5 96.5 305.5 97.5C308.572 97.1826 311.572 97.5159 314.5 98.5C307.532 99.497 300.532 99.8303 293.5 99.5C292.448 97.744 290.781 97.0773 288.5 97.5C288.5 96.5 288.5 95.5 288.5 94.5C285.612 95.0102 283.279 94.3435 281.5 92.5Z" fill="#8ED38D"/>
<path opacity="0.739" fill-rule="evenodd" clip-rule="evenodd" d="M57.5 87.5C58.4816 90.9619 58.815 94.6286 58.5 98.5C60.7224 98.822 62.5557 98.1554 64 96.5C64.3879 97.428 65.0546 98.0946 66 98.5C73.2162 97.8018 80.3828 96.8018 87.5 95.5C90.4212 96.4066 93.4212 96.7399 96.5 96.5C92.3878 99.0591 88.0545 101.392 83.5 103.5C82.2528 105.006 82.2528 106.506 83.5 108C88.8874 110.354 93.8874 113.188 98.5 116.5C95.1326 116.543 91.7992 116.21 88.5 115.5C86.8703 116.919 84.3703 117.919 81 118.5C74.3167 116.587 67.4834 116.087 60.5 117C61.5 117.333 62.5 117.667 63.5 118C61.8659 118.494 60.1992 118.66 58.5 118.5C58.8064 115.615 58.4731 112.948 57.5 110.5C57.5 102.833 57.5 95.1667 57.5 87.5Z" fill="#DBFDD2"/>
<path opacity="0.751" fill-rule="evenodd" clip-rule="evenodd" d="M133.5 92.5C136.337 94.4023 139.671 95.069 143.5 94.5C149.5 97.1667 155.5 99.8333 161.5 102.5C159.031 103.317 156.365 103.817 153.5 104C150.833 107.333 148.167 110.667 145.5 114C139.195 113.576 132.862 113.576 126.5 114C127.696 114.654 127.696 115.154 126.5 115.5C125.702 115.043 125.369 114.376 125.5 113.5C127.796 106.269 130.462 99.2685 133.5 92.5Z" fill="#D2FDD9"/>
<path opacity="0.942" fill-rule="evenodd" clip-rule="evenodd" d="M268.5 90.5C272.833 90.5 277.167 90.5 281.5 90.5C281.5 90.8333 281.5 91.1667 281.5 91.5C281.5 91.8333 281.5 92.1667 281.5 92.5C283.279 94.3435 285.612 95.0102 288.5 94.5C288.5 95.5 288.5 96.5 288.5 97.5C290.781 97.0773 292.448 97.744 293.5 99.5C293.5 100.5 293.5 101.5 293.5 102.5C299.463 103.045 305.13 102.379 310.5 100.5C315.624 101.829 321.124 102.495 327 102.5C332.5 102.167 338 101.833 343.5 101.5C340.232 100.513 336.898 100.18 333.5 100.5C348.129 98.5163 363.129 97.8497 378.5 98.5C378.666 102.846 378.499 107.179 378 111.5C377.167 114.333 375.333 116.167 372.5 117C339.5 117.667 306.5 117.667 273.5 117C270.466 115.809 268.799 113.642 268.5 110.5C268.5 103.833 268.5 97.1667 268.5 90.5Z" fill="#EAFEE7"/>
<path opacity="0.961" fill-rule="evenodd" clip-rule="evenodd" d="M333.5 100.5C336.898 100.18 340.232 100.513 343.5 101.5C338 101.833 332.5 102.167 327 102.5C321.124 102.495 315.624 101.829 310.5 100.5C314.928 99.5664 319.428 98.8997 324 98.5C327.433 98.5967 330.6 99.2634 333.5 100.5Z" fill="#8ED38D"/>
<path opacity="0.745" fill-rule="evenodd" clip-rule="evenodd" d="M111.5 93.5C116.73 96.602 122.063 97.2686 127.5 95.5C125.01 102.317 122.343 108.984 119.5 115.5C115.435 114.801 111.435 114.801 107.5 115.5C100.734 112.618 94.0672 109.451 87.5 106C95.3694 101.565 103.369 97.3988 111.5 93.5Z" fill="#D2FDD4"/>
<path opacity="0.784" fill-rule="evenodd" clip-rule="evenodd" d="M216.5 102.5C216.5 108.167 216.5 113.833 216.5 119.5C214.234 119.141 212.401 119.808 211 121.5C199.837 120.899 188.67 120.899 177.5 121.5C173.14 121.89 169.473 122.557 166.5 123.5C159.318 123.157 152.318 122.491 145.5 121.5C154.415 116.875 163.415 112.541 172.5 108.5C172.5 107.167 172.5 105.833 172.5 104.5C177.184 104.461 181.851 104.128 186.5 103.5C188.641 103.387 190.475 102.72 192 101.5C192.674 102.578 193.674 103.245 195 103.5C201.959 101.936 209.126 101.602 216.5 102.5Z" fill="#C7FDC6"/>
<path opacity="0.865" fill-rule="evenodd" clip-rule="evenodd" d="M484.5 185.5C483.576 190.755 480.576 194.088 475.5 195.5C473.616 195.288 472.283 194.288 471.5 192.5C472.458 186.671 473.458 180.838 474.5 175C473.077 173.588 473.244 172.421 475 171.5C475.368 162.24 476.868 152.74 479.5 143C479.265 142.127 478.931 141.293 478.5 140.5C479.865 136.391 480.865 132.225 481.5 128C481.043 127.586 480.709 127.086 480.5 126.5C483.1 123.706 483.1 120.873 480.5 118C482.669 116.672 483.002 115.006 481.5 113C482.394 111.604 483.061 110.104 483.5 108.5C482.187 106.608 482.354 104.941 484 103.5C484.5 130.831 484.667 158.165 484.5 185.5Z" fill="#5E9A59"/>
<path opacity="0.692" fill-rule="evenodd" clip-rule="evenodd" d="M161.5 102.5C163.636 103.403 165.636 104.569 167.5 106C158.786 110.02 150.453 114.52 142.5 119.5C139.532 121.853 137.365 124.853 136 128.5C134.786 130.049 133.286 131.215 131.5 132C107.029 132.934 82.6955 134.1 58.5 135.5C58.7373 134.209 58.404 133.209 57.5 132.5C57.5 125.167 57.5 117.833 57.5 110.5C58.4731 112.948 58.8064 115.615 58.5 118.5C60.1992 118.66 61.8659 118.494 63.5 118C62.5 117.667 61.5 117.333 60.5 117C67.4834 116.087 74.3167 116.587 81 118.5C84.3703 117.919 86.8703 116.919 88.5 115.5C91.7992 116.21 95.1326 116.543 98.5 116.5C102.931 118.215 107.265 120.215 111.5 122.5C112.452 120.955 112.785 119.288 112.5 117.5C110.447 117.598 108.78 116.931 107.5 115.5C111.435 114.801 115.435 114.801 119.5 115.5C118.705 118.55 117.705 121.55 116.5 124.5C117.723 125.614 119.056 125.781 120.5 125C122.284 121.124 123.951 117.291 125.5 113.5C125.369 114.376 125.702 115.043 126.5 115.5C127.696 115.154 127.696 114.654 126.5 114C132.862 113.576 139.195 113.576 145.5 114C148.167 110.667 150.833 107.333 153.5 104C156.365 103.817 159.031 103.317 161.5 102.5Z" fill="#C7FDD3"/>
<path opacity="0.673" fill-rule="evenodd" clip-rule="evenodd" d="M142.5 119.5C142.402 122.248 143.402 122.914 145.5 121.5C152.318 122.491 159.318 123.157 166.5 123.5C169.473 122.557 173.14 121.89 177.5 121.5C188.67 120.899 199.837 120.899 211 121.5C212.401 119.808 214.234 119.141 216.5 119.5C216.5 122.833 216.5 126.167 216.5 129.5C195.91 129.848 175.41 130.848 155 132.5C154.333 131.833 153.667 131.167 153 130.5C146.443 132.276 139.609 133.109 132.5 133C129.833 135.667 127.167 138.333 124.5 141C118.463 141.229 112.463 140.729 106.5 139.5C104.833 139.833 103.167 140.167 101.5 140.5C102.376 141.251 103.376 141.751 104.5 142C97.3932 142.893 90.3932 142.393 83.5 140.5C75.3103 141.713 67.1436 142.713 59 143.5C58.8019 141.618 58.3019 139.952 57.5 138.5C57.5 136.5 57.5 134.5 57.5 132.5C58.404 133.209 58.7373 134.209 58.5 135.5C82.6955 134.1 107.029 132.934 131.5 132C133.286 131.215 134.786 130.049 136 128.5C137.365 124.853 139.532 121.853 142.5 119.5Z" fill="#BFFDBE"/>
<path opacity="0.734" fill-rule="evenodd" clip-rule="evenodd" d="M216.5 129.5C216.5 133.833 216.5 138.167 216.5 142.5C263.67 142.168 310.67 142.501 357.5 143.5C296.499 143.333 235.499 143.5 174.5 144C171.98 145.697 169.647 147.53 167.5 149.5C159.041 147.837 150.374 147.337 141.5 148C143.167 148.333 144.833 148.667 146.5 149C143.833 149.167 141.167 149.333 138.5 149.5C133.104 149.161 127.938 148.827 123 148.5C120.578 150.625 118.244 150.958 116 149.5C113.008 151.884 109.842 154.05 106.5 156C91.0454 156.369 76.0454 157.202 61.5 158.5C59.8857 158.197 58.5523 157.53 57.5 156.5C57.5 150.5 57.5 144.5 57.5 138.5C58.3019 139.952 58.8019 141.618 59 143.5C67.1436 142.713 75.3103 141.713 83.5 140.5C90.3932 142.393 97.3932 142.893 104.5 142C103.376 141.751 102.376 141.251 101.5 140.5C103.167 140.167 104.833 139.833 106.5 139.5C112.463 140.729 118.463 141.229 124.5 141C127.167 138.333 129.833 135.667 132.5 133C139.609 133.109 146.443 132.276 153 130.5C153.667 131.167 154.333 131.833 155 132.5C175.41 130.848 195.91 129.848 216.5 129.5Z" fill="#BAFCB4"/>
<path fill-rule="evenodd" clip-rule="evenodd" d="M357.5 143.5C361.284 143.889 364.284 145.556 366.5 148.5C346.958 149.926 327.125 151.259 307 152.5C295.609 153.117 283.942 153.117 272 152.5C268.531 154.003 264.864 154.67 261 154.5C250.375 155.201 239.375 155.201 228 154.5C225.667 155.167 223.333 155.833 221 156.5C220.586 156.043 220.086 155.709 219.5 155.5C208.796 156.078 198.129 157.078 187.5 158.5C179.787 158.132 172.454 158.132 165.5 158.5C165.5 157.167 165.5 155.833 165.5 154.5C165.893 152.716 166.559 151.05 167.5 149.5C169.647 147.53 171.98 145.697 174.5 144C235.499 143.5 296.499 143.333 357.5 143.5Z" fill="#DDFDE2"/>
<path fill-rule="evenodd" clip-rule="evenodd" d="M366.5 148.5C368.25 149.659 369.25 151.326 369.5 153.5C369.5 156.167 369.5 158.833 369.5 161.5C363.635 161.685 358.135 161.352 353 160.5C352.25 161.126 351.416 161.626 350.5 162C343.782 162.795 337.116 162.628 330.5 161.5C327.961 162.115 325.461 162.782 323 163.5C316.456 163.774 309.789 163.44 303 162.5C301.933 163.191 300.766 163.691 299.5 164C291.643 164.247 283.81 164.747 276 165.5C272.985 165.175 269.985 164.842 267 164.5C255.094 166.011 243.261 167.011 231.5 167.5C231.5 168.5 231.5 169.5 231.5 170.5C209.206 170.105 187.206 170.105 165.5 170.5C165.5 166.5 165.5 162.5 165.5 158.5C172.454 158.132 179.787 158.132 187.5 158.5C198.129 157.078 208.796 156.078 219.5 155.5C220.086 155.709 220.586 156.043 221 156.5C223.333 155.833 225.667 155.167 228 154.5C239.375 155.201 250.375 155.201 261 154.5C264.864 154.67 268.531 154.003 272 152.5C283.942 153.117 295.609 153.117 307 152.5C327.125 151.259 346.958 149.926 366.5 148.5Z" fill="#D7FDDD"/>
<path opacity="0.701" fill-rule="evenodd" clip-rule="evenodd" d="M167.5 149.5C166.559 151.05 165.893 152.716 165.5 154.5C164.532 156.607 164.198 158.941 164.5 161.5C158.604 162.511 152.77 162.511 147 161.5C142.572 162.328 138.072 162.995 133.5 163.5C132.006 163.291 130.839 162.624 130 161.5C123.084 163.219 115.918 164.219 108.5 164.5C107.328 164.081 106.328 163.415 105.5 162.5C104.304 162.846 104.304 163.346 105.5 164C98.0085 163.649 91.0085 165.316 84.5 169C81.5706 169.777 78.7372 169.61 76 168.5C70.1546 171.502 63.9879 172.168 57.5 170.5C57.5 165.833 57.5 161.167 57.5 156.5C58.5523 157.53 59.8857 158.197 61.5 158.5C76.0454 157.202 91.0454 156.369 106.5 156C109.842 154.05 113.008 151.884 116 149.5C118.244 150.958 120.578 150.625 123 148.5C127.938 148.827 133.104 149.161 138.5 149.5C141.167 149.333 143.833 149.167 146.5 149C144.833 148.667 143.167 148.333 141.5 148C150.374 147.337 159.041 147.837 167.5 149.5Z" fill="#AEFCA7"/>
<path fill-rule="evenodd" clip-rule="evenodd" d="M369.5 161.5C369.5 165.167 369.5 168.833 369.5 172.5C365.167 172.5 360.833 172.5 356.5 172.5C356.737 173.791 356.404 174.791 355.5 175.5C355.5 174.5 355.5 173.5 355.5 172.5C340.833 172.5 326.167 172.5 311.5 172.5C311.5 173.5 311.5 174.5 311.5 175.5C287.157 176.202 262.823 177.202 238.5 178.5C238.737 179.791 238.404 180.791 237.5 181.5C226.012 182.495 214.345 182.828 202.5 182.5C202.719 181.325 202.386 180.325 201.5 179.5C196.431 179.766 190.931 180.433 185 181.5C178.631 180.974 172.131 180.974 165.5 181.5C165.5 177.833 165.5 174.167 165.5 170.5C187.206 170.105 209.206 170.105 231.5 170.5C231.5 169.5 231.5 168.5 231.5 167.5C243.261 167.011 255.094 166.011 267 164.5C269.985 164.842 272.985 165.175 276 165.5C283.81 164.747 291.643 164.247 299.5 164C300.766 163.691 301.933 163.191 303 162.5C309.789 163.44 316.456 163.774 323 163.5C325.461 162.782 327.961 162.115 330.5 161.5C337.116 162.628 343.782 162.795 350.5 162C351.416 161.626 352.25 161.126 353 160.5C358.135 161.352 363.635 161.685 369.5 161.5Z" fill="#D2FDD6"/>
<path opacity="0.765" fill-rule="evenodd" clip-rule="evenodd" d="M447.5 88.5C444.413 111.525 441.08 134.525 437.5 157.5C438.992 161.094 440.325 164.427 441.5 167.5C441.025 171.507 440.025 175.34 438.5 179C439.866 181.382 439.533 183.548 437.5 185.5C437.974 188.745 437.974 192.079 437.5 195.5C438.791 195.263 439.791 195.596 440.5 196.5C436.5 196.5 432.5 196.5 428.5 196.5C427.609 195.739 426.942 194.739 426.5 193.5C427.188 189.553 428.188 185.72 429.5 182C428.075 180.286 428.408 178.953 430.5 178C429.903 176.938 429.57 175.772 429.5 174.5C430.634 167.773 431.967 161.106 433.5 154.5C433.43 153.228 433.097 152.062 432.5 151C434.066 149.316 435.066 147.316 435.5 145C435.551 140.514 435.551 136.014 435.5 131.5C436.611 130.389 437.278 129.055 437.5 127.5C436.58 124.734 437.246 122.234 439.5 120C438.833 119.333 438.167 118.667 437.5 118C438.308 115.912 439.308 113.912 440.5 112C439.833 111.667 439.167 111.333 438.5 111C439.804 110.196 440.471 109.029 440.5 107.5C439.326 104.475 439.993 101.808 442.5 99.5C441.975 98.8076 441.308 98.3076 440.5 98C441.26 96.5589 441.926 95.0589 442.5 93.5C441.388 89.5402 443.055 87.8735 447.5 88.5Z" fill="#BEFDBD"/>
<path opacity="0.667" fill-rule="evenodd" clip-rule="evenodd" d="M164.5 161.5C164.5 166.167 164.5 170.833 164.5 175.5C150.256 175.772 136.09 176.438 122 177.5C121.481 176.484 120.647 175.818 119.5 175.5C112.392 177.055 105.225 178.055 98 178.5C97.3333 177.833 96.6667 177.167 96 176.5C89.2915 178.443 82.2915 179.443 75 179.5C72.5759 179.47 70.2426 179.137 68 178.5C64.6215 180.458 61.1215 182.124 57.5 183.5C57.5 179.167 57.5 174.833 57.5 170.5C63.9879 172.168 70.1546 171.502 76 168.5C78.7372 169.61 81.5706 169.777 84.5 169C91.0085 165.316 98.0085 163.649 105.5 164C104.304 163.346 104.304 162.846 105.5 162.5C106.328 163.415 107.328 164.081 108.5 164.5C115.918 164.219 123.084 163.219 130 161.5C130.839 162.624 132.006 163.291 133.5 163.5C138.072 162.995 142.572 162.328 147 161.5C152.77 162.511 158.604 162.511 164.5 161.5Z" fill="#9AFCAA"/>
<path fill-rule="evenodd" clip-rule="evenodd" d="M190.5 167.5C203.85 167.167 217.183 167.501 230.5 168.5C223.833 168.833 217.167 169.167 210.5 169.5C203.465 169.497 196.798 168.83 190.5 167.5Z" fill="#F8F1FE"/>
<path fill-rule="evenodd" clip-rule="evenodd" d="M190.5 172.5C198.833 172.5 207.167 172.5 215.5 172.5C215.5 173.5 215.5 174.5 215.5 175.5C207.167 175.5 198.833 175.5 190.5 175.5C190.5 174.5 190.5 173.5 190.5 172.5Z" fill="#FDFAFE"/>
<path fill-rule="evenodd" clip-rule="evenodd" d="M225.5 172.5C251.5 172.5 277.5 172.5 303.5 172.5C303.5 173.5 303.5 174.5 303.5 175.5C277.5 175.5 251.5 175.5 225.5 175.5C225.5 174.5 225.5 173.5 225.5 172.5Z" fill="#FDFBFE"/>
<path fill-rule="evenodd" clip-rule="evenodd" d="M355.5 175.5C340.833 175.5 326.167 175.5 311.5 175.5C311.5 174.5 311.5 173.5 311.5 172.5C326.167 172.5 340.833 172.5 355.5 172.5C355.5 173.5 355.5 174.5 355.5 175.5Z" fill="#FDFBFE"/>
<path fill-rule="evenodd" clip-rule="evenodd" d="M370.5 173.5C370.5 183.167 370.5 192.833 370.5 202.5C367.537 205.522 364.037 206.189 360 204.5C358.795 205.071 357.628 205.738 356.5 206.5C334.097 207.766 311.763 208.099 289.5 207.5C289.5 207.167 289.5 206.833 289.5 206.5C308.167 205.833 308.167 205.167 289.5 204.5C289.88 200.429 288.88 196.762 286.5 193.5C295.833 193.5 305.167 193.5 314.5 193.5C314.5 192.5 314.5 191.5 314.5 190.5C313.048 189.698 311.382 189.198 309.5 189C311.101 188.727 312.601 188.227 314 187.5C316.333 187.833 318.667 188.167 321 188.5C326.446 187.764 331.946 187.097 337.5 186.5C338.442 186.608 339.275 186.941 340 187.5C349.089 186.681 358.256 186.181 367.5 186C369.089 181.96 370.089 177.794 370.5 173.5Z" fill="#C5FCC4"/>
<path fill-rule="evenodd" clip-rule="evenodd" d="M237.5 181.5C226.167 181.5 214.833 181.5 203.5 181.5C203.5 180.5 203.5 179.5 203.5 178.5C214.833 178.5 226.167 178.5 237.5 178.5C237.5 179.5 237.5 180.5 237.5 181.5Z" fill="#FEFDFF"/>
<path opacity="0.647" fill-rule="evenodd" clip-rule="evenodd" d="M164.5 175.5C164.5 179.167 164.5 182.833 164.5 186.5C161.482 186.335 158.482 186.502 155.5 187C156.833 187.333 158.167 187.667 159.5 188C153.343 188.15 147.177 187.983 141 187.5C137.397 187.55 134.064 188.217 131 189.5C130.692 188.692 130.192 188.025 129.5 187.5C128.304 187.846 128.304 188.346 129.5 189C125.018 189.102 120.518 188.935 116 188.5C113.05 188.568 110.383 189.234 108 190.5C99.9905 189.188 91.9905 189.521 84 191.5C77.8722 190.395 71.7056 190.228 65.5 191C67.1667 191.333 68.8333 191.667 70.5 192C66.2452 192.796 62.0785 192.629 58 191.5C57.5026 188.854 57.3359 186.187 57.5 183.5C61.1215 182.124 64.6215 180.458 68 178.5C70.2426 179.137 72.5759 179.47 75 179.5C82.2915 179.443 89.2915 178.443 96 176.5C96.6667 177.167 97.3333 177.833 98 178.5C105.225 178.055 112.392 177.055 119.5 175.5C120.647 175.818 121.481 176.484 122 177.5C136.09 176.438 150.256 175.772 164.5 175.5Z" fill="#90FB8E"/>
<path fill-rule="evenodd" clip-rule="evenodd" d="M273.5 184.5C274.167 185.833 275.167 186.833 276.5 187.5C278.181 189.008 280.181 190.008 282.5 190.5C283.795 191.488 285.128 192.488 286.5 193.5C288.88 196.762 289.88 200.429 289.5 204.5C289.5 205.167 289.5 205.833 289.5 206.5C289.5 206.833 289.5 207.167 289.5 207.5C288.908 210.127 288.575 212.794 288.5 215.5C287.622 219.336 286.956 223.336 286.5 227.5C285.695 229.915 284.695 232.249 283.5 234.5C282.833 234.5 282.5 234.833 282.5 235.5C281.5 235.833 280.833 236.5 280.5 237.5C279.833 237.5 279.5 237.833 279.5 238.5C278.833 238.5 278.5 238.833 278.5 239.5C276.637 241.705 274.303 243.039 271.5 243.5C266.901 243.862 262.901 242.529 259.5 239.5C259.5 239.167 259.5 238.833 259.5 238.5C259.5 237.833 259.167 237.5 258.5 237.5C258.167 236.833 257.833 236.167 257.5 235.5C257.5 234.833 257.167 234.5 256.5 234.5C254.58 231.661 252.913 228.661 251.5 225.5C249.878 221.678 248.878 217.678 248.5 213.5C248.5 211.5 248.5 209.5 248.5 207.5C248.5 207.167 248.5 206.833 248.5 206.5C248.5 206.167 248.5 205.833 248.5 205.5C246.293 201.749 244.626 197.749 243.5 193.5C243.5 192.5 243.5 191.5 243.5 190.5C244.11 189.609 244.443 188.609 244.5 187.5C245.11 186.609 245.443 185.609 245.5 184.5C246.627 183.878 247.627 183.045 248.5 182C255.174 181.306 261.841 180.973 268.5 181C270.196 182.176 271.862 183.343 273.5 184.5Z" fill="#616262"/>
<path fill-rule="evenodd" clip-rule="evenodd" d="M369.5 153.5C370.491 159.979 370.824 166.646 370.5 173.5C370.089 177.794 369.089 181.96 367.5 186C358.256 186.181 349.089 186.681 340 187.5C339.275 186.941 338.442 186.608 337.5 186.5C331.946 187.097 326.446 187.764 321 188.5C318.667 188.167 316.333 187.833 314 187.5C312.601 188.227 311.101 188.727 309.5 189C311.382 189.198 313.048 189.698 314.5 190.5C303.833 190.5 293.167 190.5 282.5 190.5C280.181 190.008 278.181 189.008 276.5 187.5C281.833 187.5 287.167 187.5 292.5 187.5C292.5 186.5 292.5 185.5 292.5 184.5C286.167 184.5 279.833 184.5 273.5 184.5C271.862 183.343 270.196 182.176 268.5 181C261.841 180.973 255.174 181.306 248.5 182C247.627 183.045 246.627 183.878 245.5 184.5C235.167 184.5 224.833 184.5 214.5 184.5C214.5 185.5 214.5 186.5 214.5 187.5C224.5 187.5 234.5 187.5 244.5 187.5C244.443 188.609 244.11 189.609 243.5 190.5C233.833 190.5 224.167 190.5 214.5 190.5C214.5 191.5 214.5 192.5 214.5 193.5C224.167 193.5 233.833 193.5 243.5 193.5C244.626 197.749 246.293 201.749 248.5 205.5C240.891 204.202 233.224 204.202 225.5 205.5C233.138 206.497 240.804 206.831 248.5 206.5C248.5 206.833 248.5 207.167 248.5 207.5C240.5 207.5 232.5 207.5 224.5 207.5C224.5 206.5 224.5 205.5 224.5 204.5C221.5 204.5 218.5 204.5 215.5 204.5C215.5 205.5 215.5 206.5 215.5 207.5C205.729 208.005 196.062 207.338 186.5 205.5C179.697 206.069 172.697 206.403 165.5 206.5C165.5 198.167 165.5 189.833 165.5 181.5C172.131 180.974 178.631 180.974 185 181.5C190.931 180.433 196.431 179.766 201.5 179.5C202.386 180.325 202.719 181.325 202.5 182.5C214.345 182.828 226.012 182.495 237.5 181.5C238.404 180.791 238.737 179.791 238.5 178.5C262.823 177.202 287.157 176.202 311.5 175.5C326.167 175.5 340.833 175.5 355.5 175.5C356.404 174.791 356.737 173.791 356.5 172.5C360.833 172.5 365.167 172.5 369.5 172.5C369.5 168.833 369.5 165.167 369.5 161.5C369.5 158.833 369.5 156.167 369.5 153.5Z" fill="#CAFCCF"/>
<path fill-rule="evenodd" clip-rule="evenodd" d="M245.5 184.5C245.443 185.609 245.11 186.609 244.5 187.5C234.5 187.5 224.5 187.5 214.5 187.5C214.5 186.5 214.5 185.5 214.5 184.5C224.833 184.5 235.167 184.5 245.5 184.5Z" fill="#FEFEFE"/>
<path fill-rule="evenodd" clip-rule="evenodd" d="M273.5 184.5C279.833 184.5 286.167 184.5 292.5 184.5C292.5 185.5 292.5 186.5 292.5 187.5C287.167 187.5 281.833 187.5 276.5 187.5C275.167 186.833 274.167 185.833 273.5 184.5Z" fill="#FEFDFE"/>
<path fill-rule="evenodd" clip-rule="evenodd" d="M243.5 190.5C243.5 191.5 243.5 192.5 243.5 193.5C233.833 193.5 224.167 193.5 214.5 193.5C214.5 192.5 214.5 191.5 214.5 190.5C224.167 190.5 233.833 190.5 243.5 190.5Z" fill="#FCF9FE"/>
<path fill-rule="evenodd" clip-rule="evenodd" d="M282.5 190.5C293.167 190.5 303.833 190.5 314.5 190.5C314.5 191.5 314.5 192.5 314.5 193.5C305.167 193.5 295.833 193.5 286.5 193.5C285.128 192.488 283.795 191.488 282.5 190.5Z" fill="#FCFBFD"/>
<path fill-rule="evenodd" clip-rule="evenodd" d="M190.5 198.5C203.833 198.5 217.167 198.5 230.5 198.5C230.5 199.5 230.5 200.5 230.5 201.5C217.167 201.5 203.833 201.5 190.5 201.5C190.5 200.5 190.5 199.5 190.5 198.5Z" fill="#FCFAFE"/>
<path opacity="0.999" fill-rule="evenodd" clip-rule="evenodd" d="M370.5 202.5C370.5 205.167 370.5 207.833 370.5 210.5C395.672 210.169 420.672 210.502 445.5 211.5C418.165 211.333 390.831 211.5 363.5 212C359.554 214.111 356.887 217.278 355.5 221.5C342.107 221.579 328.94 222.245 316 223.5C315.617 222.944 315.117 222.611 314.5 222.5C307.687 221.509 300.687 221.175 293.5 221.5C293.5 219.5 293.5 217.5 293.5 215.5C291.833 215.5 290.167 215.5 288.5 215.5C288.575 212.794 288.908 210.127 289.5 207.5C311.763 208.099 334.097 207.766 356.5 206.5C357.628 205.738 358.795 205.071 360 204.5C364.037 206.189 367.537 205.522 370.5 202.5Z" fill="#BBFCC9"/>
<path fill-rule="evenodd" clip-rule="evenodd" d="M165.5 154.5C165.5 155.833 165.5 157.167 165.5 158.5C165.5 162.5 165.5 166.5 165.5 170.5C165.5 174.167 165.5 177.833 165.5 181.5C165.5 189.833 165.5 198.167 165.5 206.5C172.697 206.403 179.697 206.069 186.5 205.5C196.062 207.338 205.729 208.005 215.5 207.5C215.5 206.5 215.5 205.5 215.5 204.5C218.5 204.5 221.5 204.5 224.5 204.5C224.5 205.5 224.5 206.5 224.5 207.5C232.5 207.5 240.5 207.5 248.5 207.5C248.5 209.5 248.5 211.5 248.5 213.5C246.302 213.12 244.635 213.787 243.5 215.5C233.833 215.5 224.167 215.5 214.5 215.5C214.5 216.5 214.5 217.5 214.5 218.5C224.167 218.5 233.833 218.5 243.5 218.5C244.404 219.209 244.737 220.209 244.5 221.5C244.167 221.5 243.833 221.5 243.5 221.5C233.889 219.526 223.889 218.859 213.5 219.5C213.762 218.022 213.429 216.689 212.5 215.5C206.607 216.985 200.94 217.319 195.5 216.5C185.438 217.883 175.438 218.55 165.5 218.5C165.81 215.287 165.477 212.287 164.5 209.5C164.5 201.833 164.5 194.167 164.5 186.5C164.5 182.833 164.5 179.167 164.5 175.5C164.5 170.833 164.5 166.167 164.5 161.5C164.198 158.941 164.532 156.607 165.5 154.5Z" fill="#BFFCC5"/>
<path fill-rule="evenodd" clip-rule="evenodd" d="M190.5 204.5C198.528 204.169 206.528 204.502 214.5 205.5C210.5 205.833 206.5 206.167 202.5 206.5C198.107 206.491 194.107 205.824 190.5 204.5Z" fill="#FEFFFE"/>
<path fill-rule="evenodd" clip-rule="evenodd" d="M248.5 205.5C248.5 205.833 248.5 206.167 248.5 206.5C240.804 206.831 233.138 206.497 225.5 205.5C233.224 204.202 240.891 204.202 248.5 205.5Z" fill="#FEFEFE"/>
<path fill-rule="evenodd" clip-rule="evenodd" d="M289.5 204.5C308.167 205.167 308.167 205.833 289.5 206.5C289.5 205.833 289.5 205.167 289.5 204.5Z" fill="#FEFFFE"/>
<path fill-rule="evenodd" clip-rule="evenodd" d="M311.5 204.5C326.182 204.167 340.848 204.501 355.5 205.5C348.167 205.833 340.833 206.167 333.5 206.5C325.802 206.497 318.468 205.831 311.5 204.5Z" fill="#FEFFFE"/>
<path fill-rule="evenodd" clip-rule="evenodd" d="M203.5 209.5C214.833 209.5 226.167 209.5 237.5 209.5C237.5 210.5 237.5 211.5 237.5 212.5C226.167 212.5 214.833 212.5 203.5 212.5C203.5 211.5 203.5 210.5 203.5 209.5Z" fill="#FCFAFE"/>
<path opacity="0.999" fill-rule="evenodd" clip-rule="evenodd" d="M445.5 211.5C451.188 212.011 455.021 215.011 457 220.5C457.667 239.167 457.667 257.833 457 276.5C455.895 281.206 453.062 284.373 448.5 286C421.835 286.5 395.169 286.667 368.5 286.5C365.183 286.336 362.183 285.336 359.5 283.5C356.625 279.342 355.292 274.675 355.5 269.5C355.5 264.833 355.5 260.167 355.5 255.5C355.5 249.833 355.5 244.167 355.5 238.5C340.994 237.833 326.328 237.167 311.5 236.5C326.152 235.501 340.818 235.167 355.5 235.5C355.5 230.833 355.5 226.167 355.5 221.5C356.887 217.278 359.554 214.111 363.5 212C390.831 211.5 418.165 211.333 445.5 211.5Z" fill="#FEFDFE"/>
<path fill-rule="evenodd" clip-rule="evenodd" d="M248.5 213.5C248.878 217.678 249.878 221.678 251.5 225.5C249.379 225.675 247.379 225.341 245.5 224.5C244.89 223.609 244.557 222.609 244.5 221.5C244.737 220.209 244.404 219.209 243.5 218.5C243.5 217.5 243.5 216.5 243.5 215.5C244.635 213.787 246.302 213.12 248.5 213.5Z" fill="#E6CFD0"/>
<path fill-rule="evenodd" clip-rule="evenodd" d="M243.5 215.5C243.5 216.5 243.5 217.5 243.5 218.5C233.833 218.5 224.167 218.5 214.5 218.5C214.5 217.5 214.5 216.5 214.5 215.5C224.167 215.5 233.833 215.5 243.5 215.5Z" fill="#FEFCFE"/>
<path fill-rule="evenodd" clip-rule="evenodd" d="M288.5 215.5C290.167 215.5 291.833 215.5 293.5 215.5C293.5 217.5 293.5 219.5 293.5 221.5C293.443 222.609 293.11 223.609 292.5 224.5C291.089 226.539 289.089 227.539 286.5 227.5C286.956 223.336 287.622 219.336 288.5 215.5Z" fill="#E8D8CD"/>
<path fill-rule="evenodd" clip-rule="evenodd" d="M243.5 221.5C243.833 221.5 244.167 221.5 244.5 221.5C244.557 222.609 244.89 223.609 245.5 224.5C235.167 224.5 224.833 224.5 214.5 224.5C214.5 223.5 214.5 222.5 214.5 221.5C224.167 221.5 233.833 221.5 243.5 221.5Z" fill="#FDFBFE"/>
<path fill-rule="evenodd" clip-rule="evenodd" d="M293.5 221.5C300.687 221.175 307.687 221.509 314.5 222.5C307.576 224.463 300.243 225.13 292.5 224.5C293.11 223.609 293.443 222.609 293.5 221.5Z" fill="#FEFDFE"/>
<path fill-rule="evenodd" clip-rule="evenodd" d="M355.5 221.5C355.5 226.167 355.5 230.833 355.5 235.5C340.818 235.167 326.152 235.501 311.5 236.5C326.328 237.167 340.994 237.833 355.5 238.5C338.418 238.985 321.418 238.318 304.5 236.5C297.913 234.539 290.913 233.872 283.5 234.5C284.695 232.249 285.695 229.915 286.5 227.5C289.089 227.539 291.089 226.539 292.5 224.5C300.243 225.13 307.576 224.463 314.5 222.5C315.117 222.611 315.617 222.944 316 223.5C328.94 222.245 342.107 221.579 355.5 221.5Z" fill="#B5FCB8"/>
<path fill-rule="evenodd" clip-rule="evenodd" d="M243.5 221.5C233.833 221.5 224.167 221.5 214.5 221.5C214.5 222.5 214.5 223.5 214.5 224.5C224.833 224.5 235.167 224.5 245.5 224.5C247.379 225.341 249.379 225.675 251.5 225.5C252.913 228.661 254.58 231.661 256.5 234.5C245.448 233.857 234.781 234.524 224.5 236.5C223.504 236.586 222.671 236.252 222 235.5C219.993 236.669 217.827 237.335 215.5 237.5C215.5 236.5 215.5 235.5 215.5 234.5C206.833 234.5 198.167 234.5 189.5 234.5C189.5 235.833 189.5 237.167 189.5 238.5C181.246 238.406 173.246 238.74 165.5 239.5C165.5 232.5 165.5 225.5 165.5 218.5C175.438 218.55 185.438 217.883 195.5 216.5C200.94 217.319 206.607 216.985 212.5 215.5C213.429 216.689 213.762 218.022 213.5 219.5C223.889 218.859 233.889 219.526 243.5 221.5Z" fill="#BFFCB5"/>
<path fill-rule="evenodd" clip-rule="evenodd" d="M190.5 229.5C204.167 229.5 217.833 229.5 231.5 229.5C231.5 230.5 231.5 231.5 231.5 232.5C217.833 232.5 204.167 232.5 190.5 232.5C190.5 231.5 190.5 230.5 190.5 229.5Z" fill="#FDFBFE"/>
<path fill-rule="evenodd" clip-rule="evenodd" d="M366.5 230.5C375.525 230.168 384.525 230.502 393.5 231.5C389 231.833 384.5 232.167 380 232.5C375.114 232.493 370.614 231.826 366.5 230.5Z" fill="#8ED38D"/>
<path fill-rule="evenodd" clip-rule="evenodd" d="M215.5 237.5C207.016 238.493 198.349 238.826 189.5 238.5C189.5 237.167 189.5 235.833 189.5 234.5C198.167 234.5 206.833 234.5 215.5 234.5C215.5 235.5 215.5 236.5 215.5 237.5Z" fill="#D6FDD0"/>
<path fill-rule="evenodd" clip-rule="evenodd" d="M366.5 234.5C372.206 234.171 377.872 234.505 383.5 235.5C380.667 235.833 377.833 236.167 375 236.5C371.748 236.481 368.915 235.814 366.5 234.5Z" fill="#8ED38D"/>
<path fill-rule="evenodd" clip-rule="evenodd" d="M390.5 234.5C407.846 234.167 425.179 234.5 442.5 235.5C433.833 235.833 425.167 236.167 416.5 236.5C407.473 236.498 398.807 235.831 390.5 234.5Z" fill="#8ED38D"/>
<path fill-rule="evenodd" clip-rule="evenodd" d="M257.5 235.5C257.833 236.167 258.167 236.833 258.5 237.5C247.48 237.832 236.48 237.499 225.5 236.5C236.146 235.501 246.813 235.168 257.5 235.5Z" fill="#FEFEFE"/>
<path fill-rule="evenodd" clip-rule="evenodd" d="M282.5 235.5C289.532 235.17 296.532 235.503 303.5 236.5C295.862 237.497 288.196 237.831 280.5 237.5C280.833 236.5 281.5 235.833 282.5 235.5Z" fill="#FCFDFD"/>
<path fill-rule="evenodd" clip-rule="evenodd" d="M256.5 234.5C257.167 234.5 257.5 234.833 257.5 235.5C246.813 235.168 236.146 235.501 225.5 236.5C236.48 237.499 247.48 237.832 258.5 237.5C259.167 237.5 259.5 237.833 259.5 238.5C247.452 239.145 235.785 238.478 224.5 236.5C234.781 234.524 245.448 233.857 256.5 234.5Z" fill="#D0FBD2"/>
<path fill-rule="evenodd" clip-rule="evenodd" d="M282.5 235.5C282.5 234.833 282.833 234.5 283.5 234.5C290.913 233.872 297.913 234.539 304.5 236.5C296.567 238.468 288.234 239.135 279.5 238.5C279.5 237.833 279.833 237.5 280.5 237.5C288.196 237.831 295.862 237.497 303.5 236.5C296.532 235.503 289.532 235.17 282.5 235.5Z" fill="#DAFCD1"/>
<path fill-rule="evenodd" clip-rule="evenodd" d="M164.5 209.5C165.477 212.287 165.81 215.287 165.5 218.5C165.5 225.5 165.5 232.5 165.5 239.5C173.246 238.74 181.246 238.406 189.5 238.5C198.349 238.826 207.016 238.493 215.5 237.5C217.827 237.335 219.993 236.669 222 235.5C222.671 236.252 223.504 236.586 224.5 236.5C235.785 238.478 247.452 239.145 259.5 238.5C259.5 238.833 259.5 239.167 259.5 239.5C259.5 241.833 259.5 244.167 259.5 246.5C257.824 247.183 257.157 248.517 257.5 250.5C243.24 252.269 228.907 252.936 214.5 252.5C214.5 253.5 214.5 254.5 214.5 255.5C213.842 254.602 213.176 253.602 212.5 252.5C200.026 253.717 188.026 254.383 176.5 254.5C173.193 251.284 169.193 249.617 164.5 249.5C164.5 236.167 164.5 222.833 164.5 209.5Z" fill="#AFFCAD"/>
<path fill-rule="evenodd" clip-rule="evenodd" d="M190.5 235.5C198.528 235.169 206.528 235.502 214.5 236.5C210.5 236.833 206.5 237.167 202.5 237.5C198.107 237.491 194.107 236.824 190.5 235.5Z" fill="#FEFFFE"/>
<path fill-rule="evenodd" clip-rule="evenodd" d="M375.5 238.5C383.196 238.169 390.862 238.503 398.5 239.5C394.667 239.833 390.833 240.167 387 240.5C382.771 240.49 378.938 239.823 375.5 238.5Z" fill="#8ED38D"/>
<path fill-rule="evenodd" clip-rule="evenodd" d="M237.5 241.5C237.5 242.167 237.5 242.833 237.5 243.5C192.167 242.833 192.167 242.167 237.5 241.5Z" fill="#FEFFFE"/>
<path fill-rule="evenodd" clip-rule="evenodd" d="M259.5 239.5C262.901 242.529 266.901 243.862 271.5 243.5C270.391 244.29 269.058 244.79 267.5 245C267.619 246.145 267.952 247.312 268.5 248.5C265.518 248.963 262.518 249.296 259.5 249.5C259.5 248.5 259.5 247.5 259.5 246.5C259.5 244.167 259.5 241.833 259.5 239.5Z" fill="#E3CAD0"/>
<path fill-rule="evenodd" clip-rule="evenodd" d="M382.5 242.5C391.525 242.168 400.525 242.502 409.5 243.5C405 243.833 400.5 244.167 396 244.5C391.114 244.493 386.614 243.826 382.5 242.5Z" fill="#8ED38D"/>
<path fill-rule="evenodd" clip-rule="evenodd" d="M411.5 242.5C419.196 242.169 426.862 242.503 434.5 243.5C430.667 243.833 426.833 244.167 423 244.5C418.771 244.49 414.938 243.823 411.5 242.5Z" fill="#8ED38D"/>
<path fill-rule="evenodd" clip-rule="evenodd" d="M237.5 241.5C192.167 242.167 192.167 242.833 237.5 243.5C226.012 244.495 214.345 244.828 202.5 244.5C202.5 243.167 202.5 241.833 202.5 240.5C214.345 240.172 226.012 240.505 237.5 241.5Z" fill="#D3FDD2"/>
<path fill-rule="evenodd" clip-rule="evenodd" d="M278.5 239.5C278.5 241.833 278.5 244.167 278.5 246.5C275.663 248.402 272.329 249.069 268.5 248.5C267.952 247.312 267.619 246.145 267.5 245C269.058 244.79 270.391 244.29 271.5 243.5C274.303 243.039 276.637 241.705 278.5 239.5Z" fill="#EBDCCC"/>
<path fill-rule="evenodd" clip-rule="evenodd" d="M304.5 236.5C321.418 238.318 338.418 238.985 355.5 238.5C355.5 244.167 355.5 249.833 355.5 255.5C343.178 256.21 331.178 256.21 319.5 255.5C314.062 257.388 308.395 258.054 302.5 257.5C301.244 257.539 300.244 257.039 299.5 256C304.155 255.501 308.821 255.334 313.5 255.5C313.5 254.5 313.5 253.5 313.5 252.5C306.159 252.666 298.826 252.5 291.5 252C289.068 250.913 289.402 250.413 292.5 250.5C292.5 249.167 292.5 247.833 292.5 246.5C287.833 246.5 283.167 246.5 278.5 246.5C278.5 244.167 278.5 241.833 278.5 239.5C278.5 238.833 278.833 238.5 279.5 238.5C288.234 239.135 296.567 238.468 304.5 236.5Z" fill="#A8FCAB"/>
<path fill-rule="evenodd" clip-rule="evenodd" d="M214.5 246.5C227.833 246.5 241.167 246.5 254.5 246.5C254.5 247.5 254.5 248.5 254.5 249.5C241.167 249.5 227.833 249.5 214.5 249.5C214.5 248.5 214.5 247.5 214.5 246.5Z" fill="#FCF9FE"/>
<path fill-rule="evenodd" clip-rule="evenodd" d="M259.5 246.5C259.5 247.5 259.5 248.5 259.5 249.5C262.518 249.296 265.518 248.963 268.5 248.5C272.329 249.069 275.663 248.402 278.5 246.5C283.167 246.5 287.833 246.5 292.5 246.5C292.5 247.833 292.5 249.167 292.5 250.5C289.402 250.413 289.068 250.913 291.5 252C298.826 252.5 306.159 252.666 313.5 252.5C313.5 253.5 313.5 254.5 313.5 255.5C308.821 255.334 304.155 255.501 299.5 256C300.244 257.039 301.244 257.539 302.5 257.5C306.197 262.191 309.864 266.858 313.5 271.5C316.685 277.064 318.019 283.064 317.5 289.5C316.877 291.711 315.877 293.711 314.5 295.5C310.946 296.769 307.946 298.769 305.5 301.5C304.883 301.611 304.383 301.944 304 302.5C303.817 299.635 303.317 296.969 302.5 294.5C299.688 282.363 292.021 276.697 279.5 277.5C270.5 277.5 261.5 277.5 252.5 277.5C249.206 277.259 246.206 278.092 243.5 280C235.26 286.548 232.26 295.048 234.5 305.5C228.907 304.373 224.24 301.706 220.5 297.5C220.167 296.833 219.833 296.167 219.5 295.5C219.327 289.066 219.994 282.733 221.5 276.5C223.481 272.539 225.481 268.539 227.5 264.5C230.667 261.502 234 258.669 237.5 256C229.841 255.5 222.174 255.334 214.5 255.5C214.5 254.5 214.5 253.5 214.5 252.5C228.907 252.936 243.24 252.269 257.5 250.5C257.157 248.517 257.824 247.183 259.5 246.5Z" fill="#FDFCFD"/>
<path fill-rule="evenodd" clip-rule="evenodd" d="M382.5 245.5C389.833 245.5 397.167 245.5 404.5 245.5C404.5 246.5 404.5 247.5 404.5 248.5C397.167 248.5 389.833 248.5 382.5 248.5C382.5 247.5 382.5 246.5 382.5 245.5Z" fill="#8ED38D"/>
<path fill-rule="evenodd" clip-rule="evenodd" d="M405.5 246.5C419.849 246.167 434.182 246.501 448.5 247.5C441.333 247.833 434.167 248.167 427 248.5C419.467 248.497 412.301 247.831 405.5 246.5Z" fill="#8ED38D"/>
<path fill-rule="evenodd" clip-rule="evenodd" d="M164.5 249.5C169.193 249.617 173.193 251.284 176.5 254.5C178.345 261.659 179.011 268.992 178.5 276.5C178.5 277.833 178.5 279.167 178.5 280.5C177.824 285.84 175.158 289.84 170.5 292.5C136.832 292.667 103.165 292.5 69.5 292C65.9421 290.108 63.4421 287.275 62 283.5C61.3333 275.5 61.3333 267.5 62 259.5C63.1045 254.794 65.9378 251.627 70.5 250C101.832 249.5 133.165 249.333 164.5 249.5Z" fill="#FEFDFE"/>
<path fill-rule="evenodd" clip-rule="evenodd" d="M366.5 251.5C375.525 251.168 384.525 251.502 393.5 252.5C389 252.833 384.5 253.167 380 253.5C375.114 253.493 370.614 252.826 366.5 251.5Z" fill="#8ED38D"/>
<path fill-rule="evenodd" clip-rule="evenodd" d="M214.5 255.5C222.174 255.334 229.841 255.5 237.5 256C234 258.669 230.667 261.502 227.5 264.5C227.631 263.761 227.464 263.094 227 262.5C225.266 263.249 223.433 263.749 221.5 264C214.147 264.273 206.813 264.773 199.5 265.5C196.709 265.222 193.876 264.888 191 264.5C187.417 266.29 183.584 266.957 179.5 266.5C179.813 270.042 179.479 273.375 178.5 276.5C179.011 268.992 178.345 261.659 176.5 254.5C188.026 254.383 200.026 253.717 212.5 252.5C213.176 253.602 213.842 254.602 214.5 255.5Z" fill="#B2FBA6"/>
<path fill-rule="evenodd" clip-rule="evenodd" d="M391.5 257.5C407.995 256.668 424.662 256.168 441.5 256C433 255.833 424.5 255.667 416 255.5C407.139 255.502 398.639 256.169 390.5 257.5C389.596 256.791 389.263 255.791 389.5 254.5C407.167 254.5 424.833 254.5 442.5 254.5C442.5 255.5 442.5 256.5 442.5 257.5C425.5 257.5 408.5 257.5 391.5 257.5Z" fill="#9CEB9B"/>
<path fill-rule="evenodd" clip-rule="evenodd" d="M391.5 257.5C391.167 257.5 390.833 257.5 390.5 257.5C398.639 256.169 407.139 255.502 416 255.5C424.5 255.667 433 255.833 441.5 256C424.662 256.168 407.995 256.668 391.5 257.5Z" fill="#8ED38D"/>
<path fill-rule="evenodd" clip-rule="evenodd" d="M366.5 254.5C372.167 254.5 377.833 254.5 383.5 254.5C383.5 255.5 383.5 256.5 383.5 257.5C377.833 257.5 372.167 257.5 366.5 257.5C366.5 256.5 366.5 255.5 366.5 254.5Z" fill="#8ED38D"/>
<path fill-rule="evenodd" clip-rule="evenodd" d="M355.5 255.5C355.5 260.167 355.5 264.833 355.5 269.5C346.939 270.062 338.105 270.062 329 269.5C323.996 271.118 318.829 271.785 313.5 271.5C309.864 266.858 306.197 262.191 302.5 257.5C308.395 258.054 314.062 257.388 319.5 255.5C331.178 256.21 343.178 256.21 355.5 255.5Z" fill="#A0FBA9"/>
<path fill-rule="evenodd" clip-rule="evenodd" d="M80.5 259.5C89.1922 259.169 97.8589 259.502 106.5 260.5C102.167 260.833 97.8333 261.167 93.5 261.5C88.7784 261.492 84.4451 260.825 80.5 259.5Z" fill="#CBFDC3"/>
<path fill-rule="evenodd" clip-rule="evenodd" d="M375.5 259.5C383.196 259.169 390.862 259.503 398.5 260.5C394.667 260.833 390.833 261.167 387 261.5C382.771 261.49 378.938 260.823 375.5 259.5Z" fill="#8ED38D"/>
<path fill-rule="evenodd" clip-rule="evenodd" d="M227.5 264.5C225.481 268.539 223.481 272.539 221.5 276.5C221.217 275.711 220.717 275.044 220 274.5C206.47 276.473 192.97 277.473 179.5 277.5C179.737 278.791 179.404 279.791 178.5 280.5C178.5 279.167 178.5 277.833 178.5 276.5C179.479 273.375 179.813 270.042 179.5 266.5C183.584 266.957 187.417 266.29 191 264.5C193.876 264.888 196.709 265.222 199.5 265.5C206.813 264.773 214.147 264.273 221.5 264C223.433 263.749 225.266 263.249 227 262.5C227.464 263.094 227.631 263.761 227.5 264.5Z" fill="#A1FB9F"/>
<path fill-rule="evenodd" clip-rule="evenodd" d="M382.5 262.5C391.525 262.168 400.525 262.502 409.5 263.5C405 263.833 400.5 264.167 396 264.5C391.114 264.493 386.614 263.826 382.5 262.5Z" fill="#8ED38D"/>
<path fill-rule="evenodd" clip-rule="evenodd" d="M79.5 262.5C85.1667 262.5 90.8333 262.5 96.5 262.5C96.5 263.5 96.5 264.5 96.5 265.5C90.8333 265.5 85.1667 265.5 79.5 265.5C79.5 264.5 79.5 263.5 79.5 262.5Z" fill="#DEFDD9"/>
<path fill-rule="evenodd" clip-rule="evenodd" d="M103.5 263.5C120.846 263.167 138.179 263.5 155.5 264.5C146.833 264.833 138.167 265.167 129.5 265.5C120.473 265.498 111.807 264.831 103.5 263.5Z" fill="#CDFDC9"/>
<path fill-rule="evenodd" clip-rule="evenodd" d="M411.5 262.5C419.167 262.5 426.833 262.5 434.5 262.5C434.5 263.5 434.5 264.5 434.5 265.5C426.833 265.5 419.167 265.5 411.5 265.5C411.5 264.5 411.5 263.5 411.5 262.5Z" fill="#8ED38D"/>
<path fill-rule="evenodd" clip-rule="evenodd" d="M382.5 266.5C389.532 266.17 396.532 266.503 403.5 267.5C400 267.833 396.5 268.167 393 268.5C389.098 268.488 385.598 267.821 382.5 266.5Z" fill="#8ED38D"/>
<path fill-rule="evenodd" clip-rule="evenodd" d="M405.5 266.5C419.849 266.167 434.182 266.501 448.5 267.5C441.333 267.833 434.167 268.167 427 268.5C419.467 268.497 412.301 267.831 405.5 266.5Z" fill="#8ED38D"/>
<path fill-rule="evenodd" clip-rule="evenodd" d="M88.5 267.5C96.1955 267.169 103.862 267.503 111.5 268.5C107.667 268.833 103.833 269.167 100 269.5C95.771 269.49 91.9377 268.823 88.5 267.5Z" fill="#D4FDDD"/>
<path fill-rule="evenodd" clip-rule="evenodd" d="M355.5 269.5C355.292 274.675 356.625 279.342 359.5 283.5C345.612 283.702 331.945 284.036 318.5 284.5C318.784 286.415 318.451 288.081 317.5 289.5C318.019 283.064 316.685 277.064 313.5 271.5C318.829 271.785 323.996 271.118 329 269.5C338.105 270.062 346.939 270.062 355.5 269.5Z" fill="#A7FB99"/>
<path fill-rule="evenodd" clip-rule="evenodd" d="M96.5 270.5C105.192 270.169 113.859 270.502 122.5 271.5C118.167 271.833 113.833 272.167 109.5 272.5C104.778 272.492 100.445 271.825 96.5 270.5Z" fill="#C7FDCC"/>
<path fill-rule="evenodd" clip-rule="evenodd" d="M124.5 270.5C132.167 270.5 139.833 270.5 147.5 270.5C147.5 271.5 147.5 272.5 147.5 273.5C139.833 273.5 132.167 273.5 124.5 273.5C124.5 272.5 124.5 271.5 124.5 270.5Z" fill="#D1FDD5"/>
<path fill-rule="evenodd" clip-rule="evenodd" d="M95.5 274.5C102.532 274.17 109.532 274.503 116.5 275.5C113 275.833 109.5 276.167 106 276.5C102.098 276.488 98.5982 275.821 95.5 274.5Z" fill="#C9FDD1"/>
<path fill-rule="evenodd" clip-rule="evenodd" d="M118.5 274.5C132.849 274.167 147.182 274.501 161.5 275.5C154.333 275.833 147.167 276.167 140 276.5C132.467 276.497 125.301 275.831 118.5 274.5Z" fill="#C8FDCD"/>
<path fill-rule="evenodd" clip-rule="evenodd" d="M221.5 276.5C219.994 282.733 219.327 289.066 219.5 295.5C205.496 295.667 191.496 295.5 177.5 295C174.97 294.621 172.637 293.787 170.5 292.5C175.158 289.84 177.824 285.84 178.5 280.5C179.404 279.791 179.737 278.791 179.5 277.5C192.97 277.473 206.47 276.473 220 274.5C220.717 275.044 221.217 275.711 221.5 276.5Z" fill="#9AFB98"/>
<path fill-rule="evenodd" clip-rule="evenodd" d="M252.5 277.5C261.5 277.5 270.5 277.5 279.5 277.5C279.5 278.833 279.5 280.167 279.5 281.5C270.5 281.5 261.5 281.5 252.5 281.5C252.5 280.167 252.5 278.833 252.5 277.5Z" fill="#1E3E19"/>
<path fill-rule="evenodd" clip-rule="evenodd" d="M79.5 279.5C88.8333 279.5 98.1667 279.5 107.5 279.5C107.5 280.5 107.5 281.5 107.5 282.5C98.1667 282.5 88.8333 282.5 79.5 282.5C79.5 281.5 79.5 280.5 79.5 279.5Z" fill="#DAFDD7"/>
<path fill-rule="evenodd" clip-rule="evenodd" d="M279.5 277.5C292.021 276.697 299.688 282.363 302.5 294.5C302.5 295.5 302.5 296.5 302.5 297.5C299.257 286.03 291.59 280.696 279.5 281.5C279.5 280.167 279.5 278.833 279.5 277.5Z" fill="#1B2D1D"/>
<path fill-rule="evenodd" clip-rule="evenodd" d="M80.5 283.5C85.8746 283.172 91.2079 283.505 96.5 284.5C93.8333 284.833 91.1667 285.167 88.5 285.5C85.4098 285.478 82.7432 284.812 80.5 283.5Z" fill="#C5FDCE"/>
<path fill-rule="evenodd" clip-rule="evenodd" d="M103.5 283.5C120.846 283.167 138.179 283.5 155.5 284.5C146.833 284.833 138.167 285.167 129.5 285.5C120.473 285.498 111.807 284.831 103.5 283.5Z" fill="#C5FDDB"/>
<path opacity="0.999" fill-rule="evenodd" clip-rule="evenodd" d="M359.5 283.5C362.183 285.336 365.183 286.336 368.5 286.5C366.882 290.668 363.882 293.502 359.5 295C344.837 295.5 330.17 295.667 315.5 295.5C315.167 295.5 314.833 295.5 314.5 295.5C315.877 293.711 316.877 291.711 317.5 289.5C318.451 288.081 318.784 286.415 318.5 284.5C331.945 284.036 345.612 283.702 359.5 283.5Z" fill="#92FA96"/>
<path fill-rule="evenodd" clip-rule="evenodd" d="M314.5 295.5C314.833 295.5 315.167 295.5 315.5 295.5C316.022 298.568 316.855 301.568 318 304.5C319.396 313.71 315.563 317.377 306.5 315.5C306.819 310.637 306.486 305.97 305.5 301.5C307.946 298.769 310.946 296.769 314.5 295.5Z" fill="#ECDCCE"/>
<path fill-rule="evenodd" clip-rule="evenodd" d="M272.5 310.5C272.5 316.833 272.5 323.167 272.5 329.5C272.5 331.833 272.5 334.167 272.5 336.5C274.415 336.784 276.081 336.451 277.5 335.5C283.072 334.921 288.406 333.421 293.5 331C296.072 328.687 297.739 325.854 298.5 322.5C300.075 320.453 301.075 318.119 301.5 315.5C302.167 318.5 302.833 321.5 303.5 324.5C303.577 328.215 303.244 331.881 302.5 335.5C294.271 342.653 284.604 346.32 273.5 346.5C272.52 349.086 272.187 351.753 272.5 354.5C272.5 355.5 272.5 356.5 272.5 357.5C269.167 357.5 265.833 357.5 262.5 357.5C262.5 353.167 262.5 348.833 262.5 344.5C262.5 339.5 262.5 334.5 262.5 329.5C262.5 323.167 262.5 316.833 262.5 310.5C261.14 303.02 263.974 300.353 271 302.5C272.252 305.014 272.752 307.68 272.5 310.5Z" fill="#F8F7F9"/>
<path fill-rule="evenodd" clip-rule="evenodd" d="M302.5 294.5C303.317 296.969 303.817 299.635 304 302.5C304.383 301.944 304.883 301.611 305.5 301.5C306.486 305.97 306.819 310.637 306.5 315.5C305.504 315.586 304.671 315.252 304 314.5C303.502 317.817 303.335 321.15 303.5 324.5C302.833 321.5 302.167 318.5 301.5 315.5C302.413 309.559 302.746 303.559 302.5 297.5C302.5 296.5 302.5 295.5 302.5 294.5Z" fill="#E2C9DA"/>
<path fill-rule="evenodd" clip-rule="evenodd" d="M272.5 310.5C272.752 307.68 272.252 305.014 271 302.5C263.974 300.353 261.14 303.02 262.5 310.5C256.038 309.543 253.204 305.877 254 299.5C257.566 294.225 262.566 292.225 269 293.5C274.092 292.7 278.425 294.034 282 297.5C283.707 305.303 280.54 309.636 272.5 310.5Z" fill="#6CC36A"/>
<path fill-rule="evenodd" clip-rule="evenodd" d="M220.5 297.5C224.24 301.706 228.907 304.373 234.5 305.5C235.443 310.409 233.609 313.409 229 314.5C219.717 311.934 216.883 306.267 220.5 297.5Z" fill="#EAD4D1"/>
<path fill-rule="evenodd" clip-rule="evenodd" d="M243.5 327.5C244.203 329.716 245.536 331.549 247.5 333C250.527 334.513 253.527 336.013 256.5 337.5C257.947 338.134 258.613 339.301 258.5 341C258.316 342.376 257.649 343.209 256.5 343.5C250.472 342.494 245.806 339.494 242.5 334.5C242.173 332.512 241.84 330.512 241.5 328.5C241.392 325.134 242.058 324.8 243.5 327.5Z" fill="#F6F5F7"/>
<path fill-rule="evenodd" clip-rule="evenodd" d="M243.5 327.5C246.006 328.75 248.673 329.416 251.5 329.5C253.369 330.165 255.369 330.831 257.5 331.5C257.535 333.443 257.202 335.443 256.5 337.5C253.527 336.013 250.527 334.513 247.5 333C245.536 331.549 244.203 329.716 243.5 327.5Z" fill="#B3B3B3"/>
<path fill-rule="evenodd" clip-rule="evenodd" d="M251.5 329.5C255.167 329.5 258.833 329.5 262.5 329.5C262.5 334.5 262.5 339.5 262.5 344.5C261.167 344.5 259.833 344.5 258.5 344.5C257.508 344.672 256.842 344.338 256.5 343.5C257.649 343.209 258.316 342.376 258.5 341C258.613 339.301 257.947 338.134 256.5 337.5C257.202 335.443 257.535 333.443 257.5 331.5C255.369 330.831 253.369 330.165 251.5 329.5Z" fill="#949395"/>
<path fill-rule="evenodd" clip-rule="evenodd" d="M272.5 329.5C276.833 329.5 281.167 329.5 285.5 329.5C282.713 330.477 279.713 330.81 276.5 330.5C276.216 332.415 276.549 334.081 277.5 335.5C276.081 336.451 274.415 336.784 272.5 336.5C272.5 334.167 272.5 331.833 272.5 329.5Z" fill="#645C69"/>
<path fill-rule="evenodd" clip-rule="evenodd" d="M298.5 322.5C297.739 325.854 296.072 328.687 293.5 331C288.406 333.421 283.072 334.921 277.5 335.5C276.549 334.081 276.216 332.415 276.5 330.5C279.713 330.81 282.713 330.477 285.5 329.5C290.848 328.994 295.181 326.66 298.5 322.5Z" fill="#302F31"/>
<path fill-rule="evenodd" clip-rule="evenodd" d="M242.5 334.5C245.806 339.494 250.472 342.494 256.5 343.5C256.842 344.338 257.508 344.672 258.5 344.5C258.665 347.518 258.498 350.518 258 353.5C254.406 354.282 251.24 355.616 248.5 357.5C242.833 357.5 237.167 357.5 231.5 357.5C231.5 355.167 231.5 352.833 231.5 350.5C231.701 342.759 235.368 337.426 242.5 334.5Z" fill="#5F6061"/>
<path fill-rule="evenodd" clip-rule="evenodd" d="M302.5 335.5C304.465 337.768 305.632 340.435 306 343.5C306.499 348.489 306.666 353.489 306.5 358.5C303.236 357.676 299.902 357.342 296.5 357.5C294.981 356.59 293.315 355.757 291.5 355C285.175 354.5 278.842 354.334 272.5 354.5C272.187 351.753 272.52 349.086 273.5 346.5C284.604 346.32 294.271 342.653 302.5 335.5Z" fill="#616163"/>
<path fill-rule="evenodd" clip-rule="evenodd" d="M258.5 344.5C259.833 344.5 261.167 344.5 262.5 344.5C262.5 348.833 262.5 353.167 262.5 357.5C257.833 357.5 253.167 357.5 248.5 357.5C251.24 355.616 254.406 354.282 258 353.5C258.498 350.518 258.665 347.518 258.5 344.5Z" fill="#3C3C3C"/>
<path fill-rule="evenodd" clip-rule="evenodd" d="M272.5 354.5C278.842 354.334 285.175 354.5 291.5 355C293.315 355.757 294.981 356.59 296.5 357.5C288.5 357.5 280.5 357.5 272.5 357.5C272.5 356.5 272.5 355.5 272.5 354.5Z" fill="#161616"/>
<path fill-rule="evenodd" clip-rule="evenodd" d="M231.5 350.5C231.5 352.833 231.5 355.167 231.5 357.5C237.167 357.5 242.833 357.5 248.5 357.5C253.167 357.5 257.833 357.5 262.5 357.5C265.833 357.5 269.167 357.5 272.5 357.5C280.5 357.5 288.5 357.5 296.5 357.5C299.902 357.342 303.236 357.676 306.5 358.5C307.492 358.328 308.158 358.662 308.5 359.5C279.494 359.926 250.494 360.593 221.5 361.5C223.835 358.835 226.835 357.502 230.5 357.5C230.198 354.941 230.532 352.607 231.5 350.5Z" fill="#6FCD78"/>
<path fill-rule="evenodd" clip-rule="evenodd" d="M308.5 359.5C309.833 360.167 310.833 361.167 311.5 362.5C280.41 362.642 249.41 363.642 218.5 365.5C218.738 363.596 219.738 362.262 221.5 361.5C250.494 360.593 279.494 359.926 308.5 359.5Z" fill="#65BC73"/>
<path fill-rule="evenodd" clip-rule="evenodd" d="M311.5 362.5C313.822 363.802 315.155 365.802 315.5 368.5C287.056 367.49 258.556 367.823 230 369.5C225.248 369.563 220.748 370.229 216.5 371.5C216.259 369.102 216.926 367.102 218.5 365.5C249.41 363.642 280.41 362.642 311.5 362.5Z" fill="#57A268"/>
<path fill-rule="evenodd" clip-rule="evenodd" d="M315.5 368.5C316.767 371.272 316.767 373.939 315.5 376.5C315.5 375.5 315.5 374.5 315.5 373.5C315.5 372.5 315.5 371.5 315.5 370.5C284.825 369.694 254.159 370.194 223.5 372C220.949 372.002 218.949 372.836 217.5 374.5C217.5 375.833 217.5 377.167 217.5 378.5C216.532 376.393 216.198 374.059 216.5 371.5C220.748 370.229 225.248 369.563 230 369.5C258.556 367.823 287.056 367.49 315.5 368.5Z" fill="#4C8E5E"/>
<path fill-rule="evenodd" clip-rule="evenodd" d="M315.5 373.5C282.832 373.756 250.166 374.09 217.5 374.5C218.949 372.836 220.949 372.002 223.5 372C254.159 370.194 284.825 369.694 315.5 370.5C315.5 371.5 315.5 372.5 315.5 373.5Z" fill="#437B42"/>
<path fill-rule="evenodd" clip-rule="evenodd" d="M315.5 373.5C315.5 374.5 315.5 375.5 315.5 376.5C315.737 377.791 315.404 378.791 314.5 379.5C314.5 378.5 314.5 377.5 314.5 376.5C288.832 376.884 263.166 377.384 237.5 378C230.754 377.869 224.421 378.702 218.5 380.5C217.662 380.158 217.328 379.492 217.5 378.5C217.5 377.167 217.5 375.833 217.5 374.5C250.166 374.09 282.832 373.756 315.5 373.5Z" fill="#396738"/>
<path fill-rule="evenodd" clip-rule="evenodd" d="M314.5 379.5C314.672 380.492 314.338 381.158 313.5 381.5C308.881 380.172 303.881 379.506 298.5 379.5C281.169 380.063 263.835 380.563 246.5 381C237.616 381.136 228.949 381.969 220.5 383.5C219.094 383.027 218.427 382.027 218.5 380.5C224.421 378.702 230.754 377.869 237.5 378C263.166 377.384 288.832 376.884 314.5 376.5C314.5 377.5 314.5 378.5 314.5 379.5Z" fill="#31522C"/>
<path fill-rule="evenodd" clip-rule="evenodd" d="M313.5 381.5C313.167 382.5 312.5 383.167 311.5 383.5C305.342 382.834 299.009 382.5 292.5 382.5C268.971 382.716 245.637 383.716 222.5 385.5C221.5 385.167 220.833 384.5 220.5 383.5C228.949 381.969 237.616 381.136 246.5 381C263.835 380.563 281.169 380.063 298.5 379.5C303.881 379.506 308.881 380.172 313.5 381.5Z" fill="#274223"/>
<path fill-rule="evenodd" clip-rule="evenodd" d="M311.5 383.5C309.733 385.89 307.4 387.557 304.5 388.5C298.167 388.5 291.833 388.5 285.5 388.5C283.833 388.5 282.167 388.5 280.5 388.5C272.167 388.5 263.833 388.5 255.5 388.5C250.167 388.5 244.833 388.5 239.5 388.5C235.154 388.666 230.821 388.499 226.5 388C224.934 387.392 223.6 386.558 222.5 385.5C245.637 383.716 268.971 382.716 292.5 382.5C299.009 382.5 305.342 382.834 311.5 383.5Z" fill="#192D19"/>
<path fill-rule="evenodd" clip-rule="evenodd" d="M239.5 388.5C244.833 388.5 250.167 388.5 255.5 388.5C255.232 390.099 255.566 391.432 256.5 392.5C256.216 394.415 256.549 396.081 257.5 397.5C258.32 399.812 259.153 402.146 260 404.5C260.832 414.184 260.665 423.851 259.5 433.5C256.422 430.584 252.922 429.918 249 431.5C246.288 428.743 244.621 425.409 244 421.5C243.025 410.416 241.525 399.416 239.5 388.5Z" fill="#616163"/>
<path fill-rule="evenodd" clip-rule="evenodd" d="M285.5 388.5C291.833 388.5 298.167 388.5 304.5 388.5C305.312 403.776 302.812 418.442 297 432.5C294.834 430.879 292.334 430.045 289.5 430C288.809 428.933 288.309 427.766 288 426.5C285.811 413.94 284.978 401.273 285.5 388.5Z" fill="#626163"/>
<path fill-rule="evenodd" clip-rule="evenodd" d="M255.5 388.5C263.833 388.5 272.167 388.5 280.5 388.5C280.5 390.167 280.5 391.833 280.5 393.5C273.986 393.04 267.486 392.373 261 391.5C259.293 391.508 257.793 391.842 256.5 392.5C255.566 391.432 255.232 390.099 255.5 388.5Z" fill="#539956"/>
<path fill-rule="evenodd" clip-rule="evenodd" d="M280.5 393.5C280.67 394.822 280.337 395.989 279.5 397C272.785 397.347 266.119 396.847 259.5 395.5C258.287 395.747 257.62 396.414 257.5 397.5C256.549 396.081 256.216 394.415 256.5 392.5C257.793 391.842 259.293 391.508 261 391.5C267.486 392.373 273.986 393.04 280.5 393.5Z" fill="#68BD66"/>
<path fill-rule="evenodd" clip-rule="evenodd" d="M161.5 414.5C161.209 413.351 160.376 412.684 159 412.5C154.438 413.312 149.938 414.312 145.5 415.5C145.884 412.231 147.218 409.397 149.5 407C146.118 406.176 142.784 406.343 139.5 407.5C140.326 408.451 140.492 409.451 140 410.5C135.615 408.394 131.115 406.394 126.5 404.5C125.893 404.624 125.56 404.957 125.5 405.5C121.627 402.814 118.794 399.481 117 395.5C123.044 397.97 129.211 399.803 135.5 401C133.455 398.414 131.789 395.58 130.5 392.5C138.813 391.335 147.147 391.168 155.5 392C156.591 394.064 156.758 396.231 156 398.5C154.045 400.911 152.211 403.411 150.5 406C160.139 403.872 169.806 401.872 179.5 400C173.312 404.697 167.312 409.531 161.5 414.5Z" fill="#76DB80"/>
<path opacity="0.998" fill-rule="evenodd" clip-rule="evenodd" d="M284.5 442.5C289.477 444.322 294.143 446.655 298.5 449.5C306.328 448.493 309.494 451.826 308 459.5C305.083 461.393 301.916 461.893 298.5 461C292.585 452.027 284.252 447.361 273.5 447C272.873 448.738 272.54 450.571 272.5 452.5C273.055 456.228 273.555 459.895 274 463.5C272.471 466.516 269.971 467.849 266.5 467.5C262.013 467.206 260.513 464.873 262 460.5C266.215 457.528 267.548 453.528 266 448.5C263.282 447.987 260.449 447.987 257.5 448.5C252.748 449.193 248.414 450.86 244.5 453.5C241.589 454.824 240.089 457.157 240 460.5C234.433 463.869 230.266 462.536 227.5 456.5C228.128 454.742 229.128 453.242 230.5 452C237.564 452.456 243.897 450.622 249.5 446.5C253.099 445.301 256.765 444.301 260.5 443.5C262.042 442.699 263.708 442.366 265.5 442.5C265.5 429.5 265.5 416.5 265.5 403.5C267.792 403.244 269.959 403.577 272 404.5C272.5 416.829 272.667 429.162 272.5 441.5C276.6 441.237 280.6 441.57 284.5 442.5Z" fill="#FBF8FD"/>
<path fill-rule="evenodd" clip-rule="evenodd" d="M161.5 414.5C161.489 416.017 160.823 417.184 159.5 418C149.833 418.667 140.167 418.667 130.5 418C128.146 414.105 126.48 409.939 125.5 405.5C125.56 404.957 125.893 404.624 126.5 404.5C131.115 406.394 135.615 408.394 140 410.5C140.492 409.451 140.326 408.451 139.5 407.5C142.784 406.343 146.118 406.176 149.5 407C147.218 409.397 145.884 412.231 145.5 415.5C149.938 414.312 154.438 413.312 159 412.5C160.376 412.684 161.209 413.351 161.5 414.5Z" fill="#67BC65"/>
<path fill-rule="evenodd" clip-rule="evenodd" d="M157.5 445.5C157.38 444.414 156.713 443.747 155.5 443.5C147.839 441.251 140.339 438.585 133 435.5C132.503 437.81 132.337 440.143 132.5 442.5C130.673 436.361 130.34 430.028 131.5 423.5C140.156 426.496 148.822 429.496 157.5 432.5C158.811 436.984 158.811 441.317 157.5 445.5Z" fill="#82C56A"/>
<path fill-rule="evenodd" clip-rule="evenodd" d="M260.5 443.5C256.765 444.301 253.099 445.301 249.5 446.5C250.882 443.606 252.882 441.106 255.5 439C259.143 438.168 260.81 439.668 260.5 443.5Z" fill="#68666B"/>
<path fill-rule="evenodd" clip-rule="evenodd" d="M298.5 449.5C294.143 446.655 289.477 444.322 284.5 442.5C284.244 440.088 285.244 438.421 287.5 437.5C292.545 440.271 296.211 444.271 298.5 449.5Z" fill="#6C6971"/>
<path opacity="0.999" fill-rule="evenodd" clip-rule="evenodd" d="M157.5 445.5C157.665 448.518 157.498 451.518 157 454.5C156.29 455.973 155.124 456.64 153.5 456.5C146.004 453.255 139.004 449.255 132.5 444.5C132.5 443.833 132.5 443.167 132.5 442.5C132.337 440.143 132.503 437.81 133 435.5C140.339 438.585 147.839 441.251 155.5 443.5C156.713 443.747 157.38 444.414 157.5 445.5Z" fill="#56A06B"/>
<path fill-rule="evenodd" clip-rule="evenodd" d="M257.5 448.5C257.631 449.239 257.464 449.906 257 450.5C254.407 452.549 251.907 454.715 249.5 457C246.074 458.238 244.408 457.071 244.5 453.5C248.414 450.86 252.748 449.193 257.5 448.5Z" fill="#6D6A70"/>
</g>
<defs>
<clipPath id="clip0_11_91">
<rect width="500" height="500" fill="white"/>
</clipPath>
</defs>
</svg>
