<svg width="500" height="484" viewBox="0 0 500 484" fill="none" xmlns="http://www.w3.org/2000/svg">
<path opacity="0.295" fill-rule="evenodd" clip-rule="evenodd" d="M368.5 40.5C335.917 41.0144 303.251 41.8477 270.5 43C269.54 44.4194 268.707 45.9194 268 47.5C267.171 66.0046 267.338 84.338 268.5 102.5C268.799 105.642 270.466 107.809 273.5 109C306.5 109.667 339.5 109.667 372.5 109C375.333 108.167 377.167 106.333 378 103.5C378.499 99.179 378.666 94.846 378.5 90.5C378.5 83.8333 378.5 77.1667 378.5 70.5C378.178 64.642 378.511 58.9753 379.5 53.5C385.571 61.2962 390.905 69.6296 395.5 78.5C400.792 79.4948 406.125 79.8282 411.5 79.5C410.641 85.6764 409.641 91.8431 408.5 98C408.585 99.107 408.919 100.107 409.5 101C407.38 102.523 407.047 104.356 408.5 106.5C406.706 108.535 406.373 110.702 407.5 113C405.88 120.764 404.213 128.597 402.5 136.5C404.007 138.969 403.673 141.135 401.5 143C402.097 144.062 402.43 145.228 402.5 146.5C401.506 152.134 400.173 157.967 398.5 164C399.935 166.267 399.602 168.267 397.5 170C398.531 174.525 397.865 178.858 395.5 183C396.833 184.667 396.833 186.333 395.5 188C398.146 188.497 400.813 188.664 403.5 188.5C405.167 188.5 406.833 188.5 408.5 188.5C411.833 188.5 415.167 188.5 418.5 188.5C419.833 188.5 421.167 188.5 422.5 188.5C424.5 188.5 426.5 188.5 428.5 188.5C432.5 188.5 436.5 188.5 440.5 188.5C444.833 188.5 449.167 188.5 453.5 188.5C456.5 188.5 459.5 188.5 462.5 188.5C466.833 188.5 471.167 188.5 475.5 188.5C488.082 202.576 496.082 218.909 499.5 237.5C499.5 247.5 499.5 257.5 499.5 267.5C495.163 291.842 484.663 313.175 468 331.5C452.899 345.596 438.899 360.596 426 376.5C412.913 395.675 399.579 414.675 386 433.5C371.54 450.983 353.373 462.816 331.5 469C308.782 475.096 285.782 479.763 262.5 483C240.24 485.439 218.907 482.106 198.5 473C182.798 465.821 167.798 457.655 153.5 448.5C155.124 448.64 156.29 447.973 157 446.5C157.498 443.518 157.665 440.518 157.5 437.5C158.811 433.317 158.811 428.984 157.5 424.5C148.822 421.496 140.156 418.496 131.5 415.5C130.34 422.028 130.673 428.361 132.5 434.5C132.5 435.167 132.5 435.833 132.5 436.5C96.99 419.503 65.49 396.836 38 368.5C24.2982 353.109 13.6315 335.775 6 316.5C3.64701 308.083 1.48034 299.75 -0.5 291.5C-0.5 281.833 -0.5 272.167 -0.5 262.5C5.60441 224.61 24.9377 195.61 57.5 175.5C57.3359 178.187 57.5026 180.854 58 183.5C62.0785 184.629 66.2452 184.796 70.5 184C68.8333 183.667 67.1667 183.333 65.5 183C71.7056 182.228 77.8722 182.395 84 183.5C91.9905 181.521 99.9905 181.188 108 182.5C110.383 181.234 113.05 180.568 116 180.5C120.518 180.935 125.018 181.102 129.5 181C128.304 180.346 128.304 179.846 129.5 179.5C130.192 180.025 130.692 180.692 131 181.5C134.064 180.217 137.397 179.55 141 179.5C147.177 179.983 153.343 180.15 159.5 180C158.167 179.667 156.833 179.333 155.5 179C158.482 178.502 161.482 178.335 164.5 178.5C164.5 186.167 164.5 193.833 164.5 201.5C164.5 214.833 164.5 228.167 164.5 241.5C133.165 241.333 101.832 241.5 70.5 242C65.9378 243.627 63.1045 246.794 62 251.5C61.3333 259.5 61.3333 267.5 62 275.5C63.4421 279.275 65.9421 282.108 69.5 284C103.165 284.5 136.832 284.667 170.5 284.5C172.637 285.787 174.97 286.621 177.5 287C191.496 287.5 205.496 287.667 219.5 287.5C219.833 288.167 220.167 288.833 220.5 289.5C216.883 298.267 219.717 303.934 229 306.5C233.609 305.409 235.443 302.409 234.5 297.5C232.26 287.048 235.26 278.548 243.5 272C246.206 270.092 249.206 269.259 252.5 269.5C252.5 270.833 252.5 272.167 252.5 273.5C261.5 273.5 270.5 273.5 279.5 273.5C291.59 272.696 299.257 278.03 302.5 289.5C302.746 295.559 302.413 301.559 301.5 307.5C301.075 310.119 300.075 312.453 298.5 314.5C295.181 318.66 290.848 320.994 285.5 321.5C281.167 321.5 276.833 321.5 272.5 321.5C272.5 315.167 272.5 308.833 272.5 302.5C280.54 301.636 283.707 297.303 282 289.5C278.425 286.034 274.092 284.7 269 285.5C262.566 284.225 257.566 286.225 254 291.5C253.204 297.877 256.038 301.543 262.5 302.5C262.5 308.833 262.5 315.167 262.5 321.5C258.833 321.5 255.167 321.5 251.5 321.5C248.673 321.416 246.006 320.75 243.5 319.5C242.058 316.8 241.392 317.134 241.5 320.5C241.84 322.512 242.173 324.512 242.5 326.5C235.368 329.426 231.701 334.759 231.5 342.5C230.532 344.607 230.198 346.941 230.5 349.5C226.835 349.502 223.835 350.835 221.5 353.5C219.738 354.262 218.738 355.596 218.5 357.5C216.926 359.102 216.259 361.102 216.5 363.5C216.198 366.059 216.532 368.393 217.5 370.5C217.328 371.492 217.662 372.158 218.5 372.5C218.427 374.027 219.094 375.027 220.5 375.5C220.833 376.5 221.5 377.167 222.5 377.5C223.6 378.558 224.934 379.392 226.5 380C230.821 380.499 235.154 380.666 239.5 380.5C241.525 391.416 243.025 402.416 244 413.5C244.621 417.409 246.288 420.743 249 423.5C252.922 421.918 256.422 422.584 259.5 425.5C260.665 415.851 260.832 406.184 260 396.5C259.153 394.146 258.32 391.812 257.5 389.5C257.62 388.414 258.287 387.747 259.5 387.5C266.119 388.847 272.785 389.347 279.5 389C280.337 387.989 280.67 386.822 280.5 385.5C280.5 383.833 280.5 382.167 280.5 380.5C282.167 380.5 283.833 380.5 285.5 380.5C284.978 393.273 285.811 405.94 288 418.5C288.309 419.766 288.809 420.933 289.5 422C292.334 422.045 294.834 422.879 297 424.5C302.812 410.442 305.312 395.776 304.5 380.5C307.4 379.557 309.733 377.89 311.5 375.5C312.5 375.167 313.167 374.5 313.5 373.5C314.338 373.158 314.672 372.492 314.5 371.5C315.404 370.791 315.737 369.791 315.5 368.5C316.767 365.939 316.767 363.272 315.5 360.5C315.155 357.802 313.822 355.802 311.5 354.5C310.833 353.167 309.833 352.167 308.5 351.5C308.158 350.662 307.492 350.328 306.5 350.5C306.666 345.489 306.499 340.489 306 335.5C305.632 332.435 304.465 329.768 302.5 327.5C303.244 323.881 303.577 320.215 303.5 316.5C303.335 313.15 303.502 309.817 304 306.5C304.671 307.252 305.504 307.586 306.5 307.5C315.563 309.377 319.396 305.71 318 296.5C316.855 293.568 316.022 290.568 315.5 287.5C330.17 287.667 344.837 287.5 359.5 287C363.882 285.502 366.882 282.668 368.5 278.5C395.169 278.667 421.835 278.5 448.5 278C453.062 276.373 455.895 273.206 457 268.5C457.667 249.833 457.667 231.167 457 212.5C455.021 207.011 451.188 204.011 445.5 203.5C420.672 202.502 395.672 202.169 370.5 202.5C370.5 199.833 370.5 197.167 370.5 194.5C370.5 184.833 370.5 175.167 370.5 165.5C370.824 158.646 370.491 151.979 369.5 145.5C369.25 143.326 368.25 141.659 366.5 140.5C364.284 137.556 361.284 135.889 357.5 135.5C310.67 134.501 263.67 134.168 216.5 134.5C216.5 130.167 216.5 125.833 216.5 121.5C216.5 118.167 216.5 114.833 216.5 111.5C216.5 105.833 216.5 100.167 216.5 94.5C216.5 88.1667 216.5 81.8333 216.5 75.5C216.5 71.1667 216.5 66.8333 216.5 62.5C217.091 58.0361 215.758 54.3695 212.5 51.5C210.88 49.0158 208.547 47.5158 205.5 47C198.842 46.5004 192.175 46.3337 185.5 46.5C224.71 1.28073 272.377 -10.8859 328.5 9.99998C343.724 17.7291 357.058 27.8958 368.5 40.5Z" fill="#215219"/>
</svg>
