<svg width="500" height="500" viewBox="0 0 500 500" fill="none" xmlns="http://www.w3.org/2000/svg">
<g clip-path="url(#clip0_7_149)">
<path opacity="0.202" fill-rule="evenodd" clip-rule="evenodd" d="M499.5 355.5C499.5 366.833 499.5 378.167 499.5 389.5C493.275 442.571 463.942 475.071 411.5 487C389.944 490.793 368.278 491.46 346.5 489C333.401 487.206 320.401 484.872 307.5 482C280.609 475.194 253.609 468.86 226.5 463C215.553 461.338 204.553 460.171 193.5 459.5C174.691 461.357 156.024 464.19 137.5 468C76.3429 474.012 34.5096 448.512 12 391.5C5.91195 374.486 1.74528 357.153 -0.5 339.5C-0.5 326.833 -0.5 314.167 -0.5 301.5C2.20972 275.023 10.0431 250.023 23 226.5C36.6118 206.555 50.6118 186.889 65 167.5C74.1853 149.623 83.1853 131.623 92 113.5C130.056 52.0305 185.223 17.1972 257.5 9C338.94 4.63206 401.106 36.7987 444 105.5C451.451 120.852 457.118 136.852 461 153.5C466.075 184.433 470.742 215.433 475 246.5C480.792 270.879 486.792 295.212 493 319.5C495.39 331.605 497.557 343.605 499.5 355.5Z" fill="#1AED16"/>
<path fill-rule="evenodd" clip-rule="evenodd" d="M345.5 222.5C343.833 222.5 342.167 222.5 340.5 222.5C340.667 177.832 340.5 133.165 340 88.5C336.865 77.6828 329.699 71.6828 318.5 70.5C311.018 69.508 303.352 69.1746 295.5 69.5C295.5 71.1667 295.5 72.8333 295.5 74.5C294.633 80.8661 290.966 84.3661 284.5 85C265.167 85.6667 245.833 85.6667 226.5 85C222.113 84.1085 219.113 81.6085 217.5 77.5C217.5 74.8333 217.5 72.1667 217.5 69.5C208.983 69.1739 200.65 69.5073 192.5 70.5C181.662 72.5046 174.829 78.8379 172 89.5C171.501 94.1548 171.334 98.8215 171.5 103.5C169.833 103.5 168.167 103.5 166.5 103.5C163.139 85.3772 169.805 72.8772 186.5 66C232.167 65.3333 277.833 65.3333 323.5 66C334.457 68.2892 341.624 74.7892 345 85.5C345.5 131.165 345.667 176.832 345.5 222.5Z" fill="#3E4A41"/>
<path fill-rule="evenodd" clip-rule="evenodd" d="M192.5 70.5C200.65 69.5073 208.983 69.1739 217.5 69.5C217.5 72.1667 217.5 74.8333 217.5 77.5C216.532 75.3926 216.198 73.0593 216.5 70.5C208.5 70.5 200.5 70.5 192.5 70.5Z" fill="#3B922D"/>
<path fill-rule="evenodd" clip-rule="evenodd" d="M318.5 70.5C311.167 70.5 303.833 70.5 296.5 70.5C296.768 72.099 296.434 73.4324 295.5 74.5C295.5 72.8333 295.5 71.1667 295.5 69.5C303.352 69.1746 311.018 69.508 318.5 70.5Z" fill="#3A972B"/>
<path fill-rule="evenodd" clip-rule="evenodd" d="M192.5 70.5C200.5 70.5 208.5 70.5 216.5 70.5C216.198 73.0593 216.532 75.3926 217.5 77.5C219.113 81.6085 222.113 84.1085 226.5 85C245.833 85.6667 265.167 85.6667 284.5 85C290.966 84.3661 294.633 80.8661 295.5 74.5C296.434 73.4324 296.768 72.099 296.5 70.5C303.833 70.5 311.167 70.5 318.5 70.5C329.699 71.6828 336.865 77.6828 340 88.5C340.5 133.165 340.667 177.832 340.5 222.5C314.744 222.019 289.077 222.519 263.5 224C261.951 225.214 260.785 226.714 260 228.5C259.5 252.498 259.333 276.498 259.5 300.5C259.234 304.605 259.734 308.605 261 312.5C261.903 313.701 263.069 314.535 264.5 315C289.831 315.5 315.164 315.667 340.5 315.5C340.667 340.169 340.5 364.836 340 389.5C336.399 399.73 329.232 405.896 318.5 408C276.833 408.667 235.167 408.667 193.5 408C189.961 407.321 186.628 406.154 183.5 404.5C182.508 373.24 182.175 341.907 182.5 310.5C185.044 310.896 187.211 310.229 189 308.5C189.711 306.633 189.211 305.133 187.5 304C182.177 303.501 176.844 303.334 171.5 303.5C170.432 302.566 169.099 302.232 167.5 302.5C167.366 300.708 167.699 299.042 168.5 297.5C168.5 296.833 168.833 296.5 169.5 296.5C173.932 296.982 176.265 294.982 176.5 290.5C177.5 290.5 178.5 290.5 179.5 290.5C182.497 279.18 185.497 267.846 188.5 256.5C186.303 244.712 183.636 233.045 180.5 221.5C190.634 210.528 200.634 199.361 210.5 188C243.833 187.667 277.167 187.333 310.5 187C316.667 184.833 320.833 180.667 323 174.5C323.911 160.12 323.578 145.786 322 131.5C321.148 130.429 320.315 129.429 319.5 128.5C319.736 125.391 319.403 122.391 318.5 119.5C325.998 116.848 329.165 111.515 328 103.5C321.445 93.8003 314.111 93.1337 306 101.5C304.872 103.345 304.372 105.345 304.5 107.5C266.165 107.333 227.832 107.5 189.5 108C183.667 109.833 179.833 113.667 178 119.5C177.667 127.5 177.333 135.5 177 143.5C175.416 142.139 173.582 141.472 171.5 141.5C171.701 136.481 172.701 131.648 174.5 127C174.269 123.718 173.603 120.551 172.5 117.5C175.325 113.882 175.992 109.882 174.5 105.5C173.643 104.575 172.643 103.908 171.5 103.5C171.334 98.8215 171.501 94.1548 172 89.5C174.829 78.8379 181.662 72.5046 192.5 70.5Z" fill="#2DB72A"/>
<path fill-rule="evenodd" clip-rule="evenodd" d="M318.5 119.5C310.454 119.455 305.788 115.455 304.5 107.5C304.372 105.345 304.872 103.345 306 101.5C314.111 93.1337 321.445 93.8003 328 103.5C329.165 111.515 325.998 116.848 318.5 119.5Z" fill="#2FA212"/>
<path fill-rule="evenodd" clip-rule="evenodd" d="M166.5 103.5C168.167 103.5 169.833 103.5 171.5 103.5C172.643 103.908 173.643 104.575 174.5 105.5C175.992 109.882 175.325 113.882 172.5 117.5C171.849 118.091 171.182 118.757 170.5 119.5C169.549 118.674 168.549 118.508 167.5 119C166.789 120.255 165.956 121.421 165 122.5C163.989 121.663 162.822 121.33 161.5 121.5C161.551 124.541 162.551 127.208 164.5 129.5C164.07 132.138 163.07 134.471 161.5 136.5C153.864 135.699 149.198 131.533 147.5 124C148.249 121.499 149.249 119.165 150.5 117C150.055 115.553 149.388 114.22 148.5 113C149.484 111.343 150.484 109.677 151.5 108C156.571 106.328 161.571 104.828 166.5 103.5Z" fill="#FA6731"/>
<path opacity="0.999" fill-rule="evenodd" clip-rule="evenodd" d="M129.5 106.5C136.301 105.569 141.635 107.902 145.5 113.5C142.833 115.833 142.833 118.167 145.5 120.5C143.313 122.85 140.813 124.85 138 126.5C138.133 132.259 139.133 137.926 141 143.5C141.867 160.628 133.7 168.128 116.5 166C102.236 162.481 99.5696 154.815 108.5 143C113.253 140.542 117.753 137.708 122 134.5C122.958 132.801 123.458 130.967 123.5 129C122.529 123.854 122.363 118.687 123 113.5C124.694 110.642 126.861 108.309 129.5 106.5Z" fill="#FA6630"/>
<path fill-rule="evenodd" clip-rule="evenodd" d="M304.5 107.5C305.788 115.455 310.454 119.455 318.5 119.5C319.403 122.391 319.736 125.391 319.5 128.5C319.912 140.229 319.412 151.896 318 163.5C315.894 168.147 312.394 171.314 307.5 173C279.835 173.5 252.169 173.667 224.5 173.5C222.399 171.512 219.899 169.845 217 168.5C216.51 167.207 216.343 165.873 216.5 164.5C213.525 164.713 210.858 165.713 208.5 167.5C210.171 169.51 210.838 171.843 210.5 174.5C203.731 180.941 196.398 186.607 188.5 191.5C184.219 189.054 180.719 185.72 178 181.5C177.5 190.16 177.334 198.827 177.5 207.5C174.07 208.714 170.736 210.214 167.5 212C157.979 215.443 148.646 214.943 139.5 210.5C141.17 190.134 143.17 169.8 145.5 149.5C148.673 145.672 152.673 143.005 157.5 141.5C162.167 141.5 166.833 141.5 171.5 141.5C173.582 141.472 175.416 142.139 177 143.5C177.333 135.5 177.667 127.5 178 119.5C179.833 113.667 183.667 109.833 189.5 108C227.832 107.5 266.165 107.333 304.5 107.5Z" fill="#FDFCFE"/>
<path fill-rule="evenodd" clip-rule="evenodd" d="M172.5 117.5C173.603 120.551 174.269 123.718 174.5 127C172.701 131.648 171.701 136.481 171.5 141.5C166.833 141.5 162.167 141.5 157.5 141.5C158.568 140.566 159.901 140.232 161.5 140.5C161.5 139.167 161.5 137.833 161.5 136.5C163.07 134.471 164.07 132.138 164.5 129.5C162.551 127.208 161.551 124.541 161.5 121.5C162.822 121.33 163.989 121.663 165 122.5C165.956 121.421 166.789 120.255 167.5 119C168.549 118.508 169.549 118.674 170.5 119.5C171.182 118.757 171.849 118.091 172.5 117.5Z" fill="#F3B5B5"/>
<path fill-rule="evenodd" clip-rule="evenodd" d="M207.5 128.5C234.169 128.333 260.835 128.5 287.5 129C288.833 131 288.833 133 287.5 135C260.833 135.667 234.167 135.667 207.5 135C204.939 132.844 204.939 130.677 207.5 128.5Z" fill="#3BEF2B"/>
<path fill-rule="evenodd" clip-rule="evenodd" d="M319.5 128.5C320.315 129.429 321.148 130.429 322 131.5C323.578 145.786 323.911 160.12 323 174.5C320.833 180.667 316.667 184.833 310.5 187C277.167 187.333 243.833 187.667 210.5 188C200.634 199.361 190.634 210.528 180.5 221.5C179.072 216.936 178.072 212.269 177.5 207.5C177.334 198.827 177.5 190.16 178 181.5C180.719 185.72 184.219 189.054 188.5 191.5C196.398 186.607 203.731 180.941 210.5 174.5C212.783 175.029 215.117 175.363 217.5 175.5C220.205 175.684 222.538 175.017 224.5 173.5C252.169 173.667 279.835 173.5 307.5 173C312.394 171.314 315.894 168.147 318 163.5C319.412 151.896 319.912 140.229 319.5 128.5Z" fill="#17D636"/>
<path fill-rule="evenodd" clip-rule="evenodd" d="M206.5 146.5C233.833 146.5 261.167 146.5 288.5 146.5C288.739 148.467 288.406 150.301 287.5 152C260.5 152.667 233.5 152.667 206.5 152C205.248 150.172 205.248 148.339 206.5 146.5Z" fill="#1DEE19"/>
<path fill-rule="evenodd" clip-rule="evenodd" d="M224.5 173.5C222.538 175.017 220.205 175.684 217.5 175.5C215.117 175.363 212.783 175.029 210.5 174.5C210.838 171.843 210.171 169.51 208.5 167.5C210.858 165.713 213.525 164.713 216.5 164.5C216.343 165.873 216.51 167.207 217 168.5C219.899 169.845 222.399 171.512 224.5 173.5Z" fill="#F9BABB"/>
<path fill-rule="evenodd" clip-rule="evenodd" d="M177.5 207.5C178.072 212.269 179.072 216.936 180.5 221.5C183.636 233.045 186.303 244.712 188.5 256.5C185.497 267.846 182.497 279.18 179.5 290.5C178.5 290.5 177.5 290.5 176.5 290.5C174.167 290.5 171.833 290.5 169.5 290.5C169.5 292.5 169.5 294.5 169.5 296.5C168.833 296.5 168.5 296.833 168.5 297.5C167.833 281.5 167.167 265.5 166.5 249.5C166.053 246.476 165.22 246.143 164 248.5C160.069 261.626 155.736 274.626 151 287.5C149.644 288.38 148.144 288.714 146.5 288.5C144.393 287.532 142.059 287.198 139.5 287.5C141.499 274.175 143.499 260.841 145.5 247.5C143.606 235.137 141.606 222.804 139.5 210.5C148.646 214.943 157.979 215.443 167.5 212C170.736 210.214 174.07 208.714 177.5 207.5Z" fill="#3F483F"/>
<path fill-rule="evenodd" clip-rule="evenodd" d="M345.063 222.177C346.73 222.177 348.396 222.177 350.063 222.177C359.735 222.011 369.402 222.177 379.063 222.677C380.494 223.142 381.66 223.976 382.563 225.177C383.702 238.277 384.202 251.444 384.063 264.677C383.896 276.844 383.73 289.01 383.563 301.177C382.73 304.01 380.896 305.844 378.063 306.677C368.736 307.177 359.402 307.343 350.063 307.177C348.396 307.177 346.73 307.177 345.063 307.177C319.9 306.345 294.566 305.845 269.063 305.677C266.814 304.325 265.147 302.492 264.063 300.177C263.896 276.175 264.063 252.175 264.563 228.177C265.348 226.391 266.514 224.891 268.063 223.677C293.64 222.196 319.307 221.696 345.063 222.177Z" fill="#FEFDFE"/>
<path fill-rule="evenodd" clip-rule="evenodd" d="M197.5 232.5C213.837 232.333 230.17 232.5 246.5 233C250.176 234.728 250.509 237.061 247.5 240C230.5 240.667 213.5 240.667 196.5 240C193.933 237.178 194.266 234.678 197.5 232.5Z" fill="#15D628"/>
<path fill-rule="evenodd" clip-rule="evenodd" d="M281.5 269.5C281.158 270.338 280.492 270.672 279.5 270.5C279.667 258.495 279.5 246.495 279 234.5C278.5 254.497 278.333 274.497 278.5 294.5C278.5 294.833 278.5 295.167 278.5 295.5C277.503 275.007 277.169 254.34 277.5 233.5C278.5 233.5 279.5 233.5 280.5 233.5C280.172 245.678 280.505 257.678 281.5 269.5Z" fill="#C4FAC6"/>
<path fill-rule="evenodd" clip-rule="evenodd" d="M279.5 270.5C279.833 271.167 280.167 271.833 280.5 272.5C279.509 279.313 279.175 286.313 279.5 293.5C279.5 294.167 279.167 294.5 278.5 294.5C278.333 274.497 278.5 254.497 279 234.5C279.5 246.495 279.667 258.495 279.5 270.5Z" fill="#1BEE17"/>
<path fill-rule="evenodd" clip-rule="evenodd" d="M196.5 249.5C213.503 249.333 230.503 249.5 247.5 250C250.172 252.679 249.838 255.012 246.5 257C230.167 257.667 213.833 257.667 197.5 257C194.055 254.852 193.721 252.352 196.5 249.5Z" fill="#15D628"/>
<path fill-rule="evenodd" clip-rule="evenodd" d="M166.5 249.5C167.167 265.5 167.833 281.5 168.5 297.5C167.699 299.042 167.366 300.708 167.5 302.5C169.099 302.232 170.432 302.566 171.5 303.5C169.833 303.5 168.167 303.5 166.5 303.5C166.5 285.5 166.5 267.5 166.5 249.5Z" fill="#543767"/>
<path fill-rule="evenodd" clip-rule="evenodd" d="M280.5 272.5C280.167 271.833 279.833 271.167 279.5 270.5C280.492 270.672 281.158 270.338 281.5 269.5C288.329 266.768 293.996 262.601 298.5 257C301.926 255.762 303.592 256.929 303.5 260.5C310.701 261.173 317.868 262.173 325 263.5C330.404 262.302 335.571 260.468 340.5 258C344.5 255.667 348.5 253.333 352.5 251C353.201 246.916 355.535 245.583 359.5 247C360.833 248.667 360.833 250.333 359.5 252C352.861 252.652 346.861 254.985 341.5 259C339.33 260.586 336.996 261.92 334.5 263C333.915 266.6 331.915 268.266 328.5 268C327.229 265.671 325.229 264.505 322.5 264.5C316.483 263.499 310.483 262.499 304.5 261.5C302.211 263.592 299.711 263.926 297 262.5C291.614 266.059 286.114 269.392 280.5 272.5Z" fill="#39D248"/>
<path fill-rule="evenodd" clip-rule="evenodd" d="M197.5 265.5C213.837 265.333 230.17 265.5 246.5 266C250.037 267.826 250.371 270.16 247.5 273C230.5 273.667 213.5 273.667 196.5 273C193.933 270.178 194.266 267.678 197.5 265.5Z" fill="#19D615"/>
<path fill-rule="evenodd" clip-rule="evenodd" d="M139.5 287.5C142.059 287.198 144.393 287.532 146.5 288.5C145.43 292.54 142.763 294.207 138.5 293.5C138.325 291.379 138.659 289.379 139.5 287.5Z" fill="#F5B4BB"/>
<path fill-rule="evenodd" clip-rule="evenodd" d="M176.5 290.5C176.265 294.982 173.932 296.982 169.5 296.5C169.5 294.5 169.5 292.5 169.5 290.5C171.833 290.5 174.167 290.5 176.5 290.5Z" fill="#F8B8BA"/>
<path fill-rule="evenodd" clip-rule="evenodd" d="M279.5 293.5C306.508 293.167 333.508 293.5 360.5 294.5C333.175 295.5 305.841 295.833 278.5 295.5C278.5 295.167 278.5 294.833 278.5 294.5C279.167 294.5 279.5 294.167 279.5 293.5Z" fill="#54F251"/>
<path fill-rule="evenodd" clip-rule="evenodd" d="M166.5 303.5C168.167 303.5 169.833 303.5 171.5 303.5C176.844 303.334 182.177 303.501 187.5 304C189.211 305.133 189.711 306.633 189 308.5C187.211 310.229 185.044 310.896 182.5 310.5C182.167 310.5 181.833 310.5 181.5 310.5C179.5 310.5 177.5 310.5 175.5 310.5C173.143 310.337 170.81 310.503 168.5 311C167.934 311.995 167.267 312.828 166.5 313.5C166.5 312.5 166.5 311.5 166.5 310.5C157.833 310.5 149.167 310.5 140.5 310.5C137.833 310.5 135.167 310.5 132.5 310.5C128.065 310.248 126.732 308.081 128.5 304C141.162 303.5 153.829 303.333 166.5 303.5Z" fill="#213822"/>
<path fill-rule="evenodd" clip-rule="evenodd" d="M259.5 300.5C260.584 302.815 262.251 304.648 264.5 306C290.003 306.168 315.337 306.668 340.5 307.5C340.5 310.167 340.5 312.833 340.5 315.5C315.164 315.667 289.831 315.5 264.5 315C263.069 314.535 261.903 313.701 261 312.5C259.734 308.605 259.234 304.605 259.5 300.5Z" fill="#26D838"/>
<path fill-rule="evenodd" clip-rule="evenodd" d="M340.5 307.5C342.167 307.5 343.833 307.5 345.5 307.5C345.667 336.169 345.5 364.835 345 393.5C343.363 405.134 336.863 412.301 325.5 415C278.138 415.819 230.805 415.652 183.5 414.5C182.218 411.064 182.218 407.731 183.5 404.5C186.628 406.154 189.961 407.321 193.5 408C235.167 408.667 276.833 408.667 318.5 408C329.232 405.896 336.399 399.73 340 389.5C340.5 364.836 340.667 340.169 340.5 315.5C340.5 312.833 340.5 310.167 340.5 307.5Z" fill="#3F473E"/>
<path fill-rule="evenodd" clip-rule="evenodd" d="M173.5 392.5C172.815 390.586 172.315 388.586 172 386.5C171.5 365.503 171.333 344.503 171.5 323.5C171.618 320.312 172.451 317.312 174 314.5C174.83 340.67 174.663 366.67 173.5 392.5Z" fill="#2DB72A"/>
<path fill-rule="evenodd" clip-rule="evenodd" d="M171.5 323.5C171.333 344.503 171.5 365.503 172 386.5C172.315 388.586 172.815 390.586 173.5 392.5C174.8 397.6 174.8 402.6 173.5 407.5C170.008 403.512 167.841 398.845 167 393.5C166.5 374.17 166.333 354.836 166.5 335.5C167.796 331.261 169.462 327.261 171.5 323.5Z" fill="#414B3E"/>
<path opacity="0.18" fill-rule="evenodd" clip-rule="evenodd" d="M154.5 349.5C145.167 349.5 135.833 349.5 126.5 349.5C127.492 346.177 128.492 342.844 129.5 339.5C131.095 336.715 132.095 333.715 132.5 330.5C141.857 330.168 151.19 330.502 160.5 331.5C157.92 337.323 155.92 343.323 154.5 349.5Z" fill="#15ED1E"/>
<path opacity="0.998" fill-rule="evenodd" clip-rule="evenodd" d="M125.5 331.5C125.53 334.852 126.863 337.518 129.5 339.5C128.492 342.844 127.492 346.177 126.5 349.5C135.833 349.5 145.167 349.5 154.5 349.5C154.389 350.117 154.056 350.617 153.5 351C155.033 353.029 156.699 354.862 158.5 356.5C151.362 376.582 144.029 396.582 136.5 416.5C134.408 414.863 132.741 412.863 131.5 410.5C131.971 408.421 132.637 406.421 133.5 404.5C129.229 403.786 124.229 403.12 118.5 402.5C117.833 401.833 117.167 401.167 116.5 400.5C123.55 400.143 130.217 399.143 136.5 397.5C138.198 391.573 140.198 385.74 142.5 380C132.991 379.176 123.657 379.342 114.5 380.5C113.5 380.5 112.5 380.5 111.5 380.5C111.167 377.833 110.833 375.167 110.5 372.5C114.929 358.54 119.929 344.873 125.5 331.5Z" fill="#23581B"/>
<path opacity="0.18" fill-rule="evenodd" clip-rule="evenodd" d="M136.5 397.5C127.25 398.472 117.917 398.805 108.5 398.5C109.937 392.297 111.937 386.297 114.5 380.5C123.657 379.342 132.991 379.176 142.5 380C140.198 385.74 138.198 391.573 136.5 397.5Z" fill="#15ED38"/>
<path fill-rule="evenodd" clip-rule="evenodd" d="M132.5 310.5C135.167 310.5 137.833 310.5 140.5 310.5C138.238 315.285 136.572 320.285 135.5 325.5C144.833 325.5 154.167 325.5 163.5 325.5C164.512 321.485 165.512 317.485 166.5 313.5C167.267 312.828 167.934 311.995 168.5 311C170.81 310.503 173.143 310.337 175.5 310.5C175.334 320.172 175.5 329.839 176 339.5C177.667 342.167 179.333 344.833 181 347.5C181.5 335.171 181.667 322.838 181.5 310.5C181.833 310.5 182.167 310.5 182.5 310.5C182.175 341.907 182.508 373.24 183.5 404.5C182.218 407.731 182.218 411.064 183.5 414.5C182.507 423.318 182.173 432.318 182.5 441.5C179.833 441.5 177.167 441.5 174.5 441.5C174.811 430.086 174.477 418.752 173.5 407.5C174.8 402.6 174.8 397.6 173.5 392.5C174.663 366.67 174.83 340.67 174 314.5C172.451 317.312 171.618 320.312 171.5 323.5C169.462 327.261 167.796 331.261 166.5 335.5C163.857 342.418 161.19 349.418 158.5 356.5C156.699 354.862 155.033 353.029 153.5 351C154.056 350.617 154.389 350.117 154.5 349.5C155.92 343.323 157.92 337.323 160.5 331.5C151.19 330.502 141.857 330.168 132.5 330.5C132.095 333.715 131.095 336.715 129.5 339.5C126.863 337.518 125.53 334.852 125.5 331.5C128.035 324.562 130.368 317.562 132.5 310.5Z" fill="#23581B"/>
<path fill-rule="evenodd" clip-rule="evenodd" d="M175.5 310.5C177.5 310.5 179.5 310.5 181.5 310.5C181.667 322.838 181.5 335.171 181 347.5C179.333 344.833 177.667 342.167 176 339.5C175.5 329.839 175.334 320.172 175.5 310.5Z" fill="#23581B"/>
<path opacity="0.244" fill-rule="evenodd" clip-rule="evenodd" d="M140.5 310.5C149.167 310.5 157.833 310.5 166.5 310.5C166.5 311.5 166.5 312.5 166.5 313.5C165.512 317.485 164.512 321.485 163.5 325.5C154.167 325.5 144.833 325.5 135.5 325.5C136.572 320.285 138.238 315.285 140.5 310.5Z" fill="#1AED16"/>
<path opacity="0.997" fill-rule="evenodd" clip-rule="evenodd" d="M110.5 372.5C110.833 375.167 111.167 377.833 111.5 380.5C112.5 380.5 113.5 380.5 114.5 380.5C111.937 386.297 109.937 392.297 108.5 398.5C117.917 398.805 127.25 398.472 136.5 397.5C130.217 399.143 123.55 400.143 116.5 400.5C117.167 401.167 117.833 401.833 118.5 402.5C124.229 403.12 129.229 403.786 133.5 404.5C124.143 404.168 114.81 404.502 105.5 405.5C103.26 411.39 100.927 417.223 98.5 423C107.851 423.832 117.184 423.665 126.5 422.5C128.192 418.4 129.859 414.4 131.5 410.5C132.741 412.863 134.408 414.863 136.5 416.5C133.513 424.479 130.513 432.479 127.5 440.5C124.894 441.652 122.227 441.818 119.5 441C121.26 437.225 122.927 433.392 124.5 429.5C115.167 428.167 105.833 428.167 96.5 429.5C94.9623 433.407 93.2956 437.24 91.5 441C89.0982 441.814 86.7649 441.647 84.5 440.5C92.9987 417.656 101.665 394.989 110.5 372.5Z" fill="#23581B"/>
<path opacity="0.18" fill-rule="evenodd" clip-rule="evenodd" d="M133.5 404.5C132.637 406.421 131.971 408.421 131.5 410.5C129.859 414.4 128.192 418.4 126.5 422.5C117.184 423.665 107.851 423.832 98.5 423C100.927 417.223 103.26 411.39 105.5 405.5C114.81 404.502 124.143 404.168 133.5 404.5Z" fill="#19ED15"/>
</g>
<defs>
<clipPath id="clip0_7_149">
<rect width="500" height="500" fill="white"/>
</clipPath>
</defs>
</svg>
