<svg width="500" height="500" viewBox="0 0 500 500" fill="none" xmlns="http://www.w3.org/2000/svg">
<g clip-path="url(#clip0_4_4)">
<path opacity="0.354" fill-rule="evenodd" clip-rule="evenodd" d="M410.5 137.5C406.833 137.5 403.167 137.5 399.5 137.5C399.5 157.167 399.5 176.833 399.5 196.5C399.5 263.167 399.5 329.833 399.5 396.5C404.099 396.8 408.599 396.467 413 395.5C413.49 396.793 413.657 398.127 413.5 399.5C415.5 399.5 417.5 399.5 419.5 399.5C420.5 399.5 421.5 399.5 422.5 399.5C422.167 312.332 422.501 225.332 423.5 138.5C430.5 138.5 437.5 138.5 444.5 138.5C444.333 165.169 444.5 191.835 445 218.5C457.667 232.5 470.333 246.5 483 260.5C491.552 271.927 497.052 284.594 499.5 298.5C499.5 308.833 499.5 319.167 499.5 329.5C496.345 345.766 492.845 362.1 489 378.5C481.153 417.352 457.653 439.186 418.5 444C407.359 445.003 396.192 445.503 385 445.5C293.5 444.372 202 443.206 110.5 442C92.8233 441.441 76.8233 436.108 62.5 426C29.0227 398.201 8.02272 363.034 -0.5 320.5C-0.5 311.5 -0.5 302.5 -0.5 293.5C1.66986 283.163 5.16986 273.163 10 263.5C22.2765 245.286 33.2765 226.286 43 206.5C51.0596 186.322 58.7263 165.989 66 145.5C74.4191 122.113 87.2524 101.613 104.5 84C124.943 67.9605 148.277 59.6272 174.5 59C194.5 58.6667 214.5 58.3333 234.5 58C254.285 55.8651 274.119 54.3651 294 53.5C318.66 53.5802 342.16 58.7469 364.5 69C381.244 79.6506 393.41 94.1506 401 112.5C404.273 120.823 407.44 129.156 410.5 137.5Z" fill="#84F582"/>
<path fill-rule="evenodd" clip-rule="evenodd" d="M163.5 158.5C162.494 158.062 162.494 157.396 163.5 156.5C163.938 156.565 164.272 156.399 164.5 156C160.638 151.771 157.138 147.271 154 142.5C152.871 140.859 151.371 139.859 149.5 139.5C148.167 140.167 147.167 141.167 146.5 142.5C143.545 144.122 140.878 146.122 138.5 148.5C136.142 150.529 133.808 152.529 131.5 154.5C130.5 154.833 129.833 155.5 129.5 156.5C118.986 164.258 108.653 172.258 98.5 180.5C91.3048 186.265 84.3048 192.265 77.5 198.5C82.1903 204.023 86.6903 209.689 91 215.5C96.8422 210.685 102.676 206.019 108.5 201.5C107.797 203.716 106.464 205.549 104.5 207C98.2713 212.233 91.7713 217.066 85 221.5C74.8828 216.859 65.0494 211.859 55.5 206.5C71.744 173.012 88.244 139.679 105 106.5C114.633 111.733 124.467 116.567 134.5 121C128.988 130.513 124.488 140.346 121 150.5C131.023 142.309 141.19 134.309 151.5 126.5C158.846 134.516 165.846 142.849 172.5 151.5C169.792 154.209 166.792 156.542 163.5 158.5Z" fill="#DEF4E0"/>
<path fill-rule="evenodd" clip-rule="evenodd" d="M108.5 118.5C115.298 121.732 121.964 125.232 128.5 129C121.933 127.226 115.599 124.559 109.5 121C108.748 120.329 108.414 119.496 108.5 118.5Z" fill="#3ACC5A"/>
<path fill-rule="evenodd" clip-rule="evenodd" d="M121.5 142.5C115.182 138.674 108.516 135.341 101.5 132.5C102.987 129.527 104.487 126.527 106 123.5C110.808 128.491 116.641 131.825 123.5 133.5C124.442 133.392 125.275 133.059 126 132.5C125.335 136.166 123.835 139.5 121.5 142.5Z" fill="#CDF2D7"/>
<path fill-rule="evenodd" clip-rule="evenodd" d="M410.5 137.5C415.032 137.182 419.366 137.515 423.5 138.5C422.501 225.332 422.167 312.332 422.5 399.5C421.5 399.5 420.5 399.5 419.5 399.5C419.006 368.979 418.006 338.146 416.5 307C416.768 301.722 417.101 296.388 417.5 291C415.964 278.381 414.964 265.714 414.5 253C415.082 245.094 415.415 237.094 415.5 229C414.74 227.559 414.074 226.059 413.5 224.5C413.711 215.377 413.711 206.044 413.5 196.5C408.833 196.5 404.167 196.5 399.5 196.5C399.5 176.833 399.5 157.167 399.5 137.5C403.167 137.5 406.833 137.5 410.5 137.5Z" fill="#57D655" fill-opacity="0.95"/>
<path fill-rule="evenodd" clip-rule="evenodd" d="M115.5 153.5C110.068 151.285 104.735 148.785 99.5 146C98.2068 145.51 96.8734 145.343 95.5 145.5C96.1667 144.167 96.8333 142.833 97.5 141.5C98.4959 141.586 99.3292 141.252 100 140.5C105.745 143.288 111.245 146.454 116.5 150C115.167 150.333 113.833 150.667 112.5 151C113.942 151.377 114.942 152.21 115.5 153.5Z" fill="#5DD368"/>
<path fill-rule="evenodd" clip-rule="evenodd" d="M101.5 132.5C108.516 135.341 115.182 138.674 121.5 142.5C120.008 146.818 118.008 150.818 115.5 154.5C115.5 154.167 115.5 153.833 115.5 153.5C114.942 152.21 113.942 151.377 112.5 151C113.833 150.667 115.167 150.333 116.5 150C111.245 146.454 105.745 143.288 100 140.5C99.3292 141.252 98.4959 141.586 97.5 141.5C99.1054 138.622 100.439 135.622 101.5 132.5Z" fill="#9AE394"/>
<path fill-rule="evenodd" clip-rule="evenodd" d="M149.5 139.5C151.371 139.859 152.871 140.859 154 142.5C157.138 147.271 160.638 151.771 164.5 156C164.272 156.399 163.938 156.565 163.5 156.5C158.127 151.425 153.461 145.759 149.5 139.5Z" fill="#56D65B"/>
<path fill-rule="evenodd" clip-rule="evenodd" d="M138.5 148.5C143.873 153.575 148.539 159.241 152.5 165.5C150.54 167.156 148.54 168.823 146.5 170.5C143.352 166.226 140.185 161.892 137 157.5C135.736 155.393 133.903 154.393 131.5 154.5C133.808 152.529 136.142 150.529 138.5 148.5Z" fill="#9AE394"/>
<path fill-rule="evenodd" clip-rule="evenodd" d="M146.5 142.5C145.46 144.719 145.96 146.719 148 148.5C151.167 153 155 156.833 159.5 160C157.499 162.325 155.166 164.158 152.5 165.5C148.539 159.241 143.873 153.575 138.5 148.5C140.878 146.122 143.545 144.122 146.5 142.5Z" fill="#CDF2D7"/>
<path fill-rule="evenodd" clip-rule="evenodd" d="M95.5 145.5C96.8734 145.343 98.2068 145.51 99.5 146C104.735 148.785 110.068 151.285 115.5 153.5C115.5 153.833 115.5 154.167 115.5 154.5C102.816 166.012 89.6493 177.012 76 187.5C81.6329 173.227 88.1329 159.227 95.5 145.5Z" fill="#3E9547"/>
<path fill-rule="evenodd" clip-rule="evenodd" d="M131.5 154.5C133.903 154.393 135.736 155.393 137 157.5C140.185 161.892 143.352 166.226 146.5 170.5C145.167 171.5 143.833 172.5 142.5 173.5C139.31 166.974 134.976 161.308 129.5 156.5C129.833 155.5 130.5 154.833 131.5 154.5Z" fill="#5DD368"/>
<path opacity="0.886" fill-rule="evenodd" clip-rule="evenodd" d="M149.5 139.5C153.461 145.759 158.127 151.425 163.5 156.5C162.494 157.396 162.494 158.062 163.5 158.5C148.812 171.348 133.645 183.681 118 195.5C117.5 207.829 117.333 220.162 117.5 232.5C116.167 232.5 114.833 232.5 113.5 232.5C113.171 217.99 113.504 203.657 114.5 189.5C114.338 191.527 114.505 193.527 115 195.5C124.354 188.303 133.521 180.969 142.5 173.5C143.833 172.5 145.167 171.5 146.5 170.5C148.54 168.823 150.54 167.156 152.5 165.5C155.166 164.158 157.499 162.325 159.5 160C155 156.833 151.167 153 148 148.5C145.96 146.719 145.46 144.719 146.5 142.5C147.167 141.167 148.167 140.167 149.5 139.5Z" fill="#E1F7E2"/>
<path fill-rule="evenodd" clip-rule="evenodd" d="M129.5 156.5C134.976 161.308 139.31 166.974 142.5 173.5C133.521 180.969 124.354 188.303 115 195.5C114.505 193.527 114.338 191.527 114.5 189.5C113.811 188.226 112.977 188.226 112 189.5C111.505 191.473 111.338 193.473 111.5 195.5C110.833 195.5 110.167 195.5 109.5 195.5C105.422 190.762 101.756 185.762 98.5 180.5C108.653 172.258 118.986 164.258 129.5 156.5Z" fill="#3E9547"/>
<path fill-rule="evenodd" clip-rule="evenodd" d="M392.5 185.5C391.432 186.434 390.099 186.768 388.5 186.5C386.833 186.5 385.167 186.5 383.5 186.5C383.5 180.5 383.5 174.5 383.5 168.5C383.639 166.663 384.306 166.33 385.5 167.5C388.236 173.378 390.569 179.378 392.5 185.5Z" fill="#9ADBA8"/>
<path fill-rule="evenodd" clip-rule="evenodd" d="M383.5 168.5C383.5 174.5 383.5 180.5 383.5 186.5C382.5 186.5 381.5 186.5 380.5 186.5C380.334 182.154 380.501 177.821 381 173.5C381.757 171.685 382.59 170.019 383.5 168.5Z" fill="#68D86C"/>
<path fill-rule="evenodd" clip-rule="evenodd" d="M98.5 180.5C101.756 185.762 105.422 190.762 109.5 195.5C109.5 195.833 109.5 196.167 109.5 196.5C108.699 198.042 108.366 199.708 108.5 201.5C102.676 206.019 96.8422 210.685 91 215.5C86.6903 209.689 82.1903 204.023 77.5 198.5C84.3048 192.265 91.3048 186.265 98.5 180.5Z" fill="#368739"/>
<path fill-rule="evenodd" clip-rule="evenodd" d="M399.5 196.5C404.167 196.5 408.833 196.5 413.5 196.5C413.711 206.044 413.711 215.377 413.5 224.5C414.074 226.059 414.74 227.559 415.5 229C415.415 237.094 415.082 245.094 414.5 253C414.964 265.714 415.964 278.381 417.5 291C417.101 296.388 416.768 301.722 416.5 307C418.006 338.146 419.006 368.979 419.5 399.5C417.5 399.5 415.5 399.5 413.5 399.5C413.657 398.127 413.49 396.793 413 395.5C408.599 396.467 404.099 396.8 399.5 396.5C399.5 329.833 399.5 263.167 399.5 196.5Z" fill="#44C741"/>
<path fill-rule="evenodd" clip-rule="evenodd" d="M347.5 202.5C335.167 202.5 322.833 202.5 310.5 202.5C286.498 202.333 262.498 202.5 238.5 203C224.127 206.177 210.127 209.344 196.5 212.5C180.167 212.5 163.833 212.5 147.5 212.5C147.5 211.167 147.5 209.833 147.5 208.5C147.84 205.325 149.507 203.159 152.5 202C217.668 201.168 282.668 201.335 347.5 202.5Z" fill="#7FC887"/>
<path fill-rule="evenodd" clip-rule="evenodd" d="M310.5 202.5C297.996 206.459 285.33 209.793 272.5 212.5C247.167 212.5 221.833 212.5 196.5 212.5C210.127 209.344 224.127 206.177 238.5 203C262.498 202.5 286.498 202.333 310.5 202.5Z" fill="#A0E7B4"/>
<path fill-rule="evenodd" clip-rule="evenodd" d="M310.5 202.5C322.833 202.5 335.167 202.5 347.5 202.5C350.69 202.687 352.69 204.354 353.5 207.5C353.5 209.167 353.5 210.833 353.5 212.5C326.5 212.5 299.5 212.5 272.5 212.5C285.33 209.793 297.996 206.459 310.5 202.5Z" fill="#B0EBBD"/>
<path fill-rule="evenodd" clip-rule="evenodd" d="M67.5 201.5C70.5618 202.187 71.8951 203.853 71.5 206.5C69.0693 205.64 67.736 203.973 67.5 201.5Z" fill="#34C353"/>
<path fill-rule="evenodd" clip-rule="evenodd" d="M353.5 207.5C354.833 250.167 354.833 292.833 353.5 335.5C353.5 311.833 353.5 288.167 353.5 264.5C353.833 251.15 353.499 237.817 352.5 224.5C351.817 224.137 351.15 223.804 350.5 223.5C350.5 222.833 350.5 222.167 350.5 221.5C350.5 220.167 350.5 218.833 350.5 217.5C336.167 216.167 321.833 216.167 307.5 217.5C253.899 216.508 200.566 215.842 147.5 215.5C147.5 220.167 147.5 224.833 147.5 229.5C147.5 264.5 147.5 299.5 147.5 334.5C146.167 292.5 146.167 250.5 147.5 208.5C147.5 209.833 147.5 211.167 147.5 212.5C163.833 212.5 180.167 212.5 196.5 212.5C221.833 212.5 247.167 212.5 272.5 212.5C299.5 212.5 326.5 212.5 353.5 212.5C353.5 210.833 353.5 209.167 353.5 207.5Z" fill="#6FB777"/>
<path opacity="0.965" fill-rule="evenodd" clip-rule="evenodd" d="M392.5 185.5C393.498 215.329 393.831 245.329 393.5 275.5C392.671 268.679 392.171 261.679 392 254.5C390.946 262.811 390.112 271.145 389.5 279.5C389.608 280.442 389.941 281.275 390.5 282C389.142 287.609 388.142 293.276 387.5 299C387.833 300 388.167 301 388.5 302C387.833 304.667 387.167 307.333 386.5 310C387.051 311.398 387.384 312.732 387.5 314C386.469 321.928 385.469 329.761 384.5 337.5C384.333 303.832 384.5 270.165 385 236.5C385.555 229.148 386.388 221.315 387.5 213C387.167 212 386.833 211 386.5 210C387.167 209.667 387.833 209.333 388.5 209C387.927 202.053 387.927 194.553 388.5 186.5C390.099 186.768 391.432 186.434 392.5 185.5Z" fill="#5ED976" fill-opacity="0.95"/>
<path fill-rule="evenodd" clip-rule="evenodd" d="M307.5 217.5C307.665 221.182 307.499 224.848 307 228.5C261.968 227.184 216.801 226.517 171.5 226.5C165.021 225.509 158.354 225.176 151.5 225.5C150.566 226.568 150.232 227.901 150.5 229.5C149.5 229.5 148.5 229.5 147.5 229.5C147.5 224.833 147.5 220.167 147.5 215.5C200.566 215.842 253.899 216.508 307.5 217.5Z" fill="#6FB777"/>
<path fill-rule="evenodd" clip-rule="evenodd" d="M114.5 189.5C113.504 203.657 113.171 217.99 113.5 232.5C114.833 232.5 116.167 232.5 117.5 232.5C116.081 233.451 114.415 233.784 112.5 233.5C111.52 220.913 111.187 208.246 111.5 195.5C111.338 193.473 111.505 191.473 112 189.5C112.977 188.226 113.811 188.226 114.5 189.5Z" fill="#82DE8B"/>
<path fill-rule="evenodd" clip-rule="evenodd" d="M350.5 217.5C350.5 218.833 350.5 220.167 350.5 221.5C336.5 221.5 322.5 221.5 308.5 221.5C308.5 220.167 308.5 218.833 308.5 217.5C322.5 217.5 336.5 217.5 350.5 217.5Z" fill="#BBEDB7"/>
<path fill-rule="evenodd" clip-rule="evenodd" d="M109.5 196.5C109.5 196.167 109.5 195.833 109.5 195.5C110.167 195.5 110.833 195.5 111.5 195.5C111.187 208.246 111.52 220.913 112.5 233.5C111.508 233.672 110.842 233.338 110.5 232.5C110.828 220.322 110.495 208.322 109.5 196.5Z" fill="#77D357"/>
<path fill-rule="evenodd" clip-rule="evenodd" d="M308.5 221.5C322.5 221.5 336.5 221.5 350.5 221.5C350.5 222.167 350.5 222.833 350.5 223.5C350.5 224.5 350.5 225.5 350.5 226.5C336.488 226.566 322.488 226.233 308.5 225.5C308.5 224.167 308.5 222.833 308.5 221.5Z" fill="#D4F3D1"/>
<path fill-rule="evenodd" clip-rule="evenodd" d="M350.5 217.5C336.5 217.5 322.5 217.5 308.5 217.5C308.5 218.833 308.5 220.167 308.5 221.5C308.5 222.833 308.5 224.167 308.5 225.5C308.5 227.167 308.5 228.833 308.5 230.5C307.71 231.609 307.21 232.942 307 234.5C303.21 233.864 299.377 233.197 295.5 232.5C263.669 231.17 232.003 231.17 200.5 232.5C200.5 235.5 200.5 238.5 200.5 241.5C195.706 240.903 191.373 241.57 187.5 243.5C182.26 244.449 176.927 244.782 171.5 244.5C171.5 239.833 171.5 235.167 171.5 230.5C171.5 229.167 171.5 227.833 171.5 226.5C216.801 226.517 261.968 227.184 307 228.5C307.499 224.848 307.665 221.182 307.5 217.5C321.833 216.167 336.167 216.167 350.5 217.5Z" fill="#9FD7A5"/>
<path fill-rule="evenodd" clip-rule="evenodd" d="M151.5 225.5C158.354 225.176 165.021 225.509 171.5 226.5C171.5 227.833 171.5 229.167 171.5 230.5C164.833 230.5 158.167 230.5 151.5 230.5C151.5 228.833 151.5 227.167 151.5 225.5Z" fill="#E5F7E3"/>
<path fill-rule="evenodd" clip-rule="evenodd" d="M200.5 232.5C231.833 232.5 263.167 232.5 294.5 232.5C294.5 233.833 294.5 235.167 294.5 236.5C262.902 236.519 231.902 236.186 201.5 235.5C201.5 237.5 201.5 239.5 201.5 241.5C201.167 241.5 200.833 241.5 200.5 241.5C200.5 238.5 200.5 235.5 200.5 232.5Z" fill="#BAEDC2"/>
<path fill-rule="evenodd" clip-rule="evenodd" d="M308.5 225.5C322.488 226.233 336.488 226.566 350.5 226.5C350.5 237.5 350.5 248.5 350.5 259.5C336.5 259.5 322.5 259.5 308.5 259.5C308.5 249.833 308.5 240.167 308.5 230.5C308.5 228.833 308.5 227.167 308.5 225.5Z" fill="#FBFEFB"/>
<path fill-rule="evenodd" clip-rule="evenodd" d="M110.5 232.5C110.842 233.338 111.508 233.672 112.5 233.5C112.36 235.124 113.027 236.29 114.5 237C113.033 238.098 112.199 239.598 112 241.5C111.083 249.832 110.25 258.166 109.5 266.5C107.933 265.319 107.099 263.653 107 261.5C106.5 253.507 106.334 245.507 106.5 237.5C103.32 237.824 102.153 236.49 103 233.5C105.381 232.565 107.881 232.232 110.5 232.5Z" fill="#7BCA6D"/>
<path fill-rule="evenodd" clip-rule="evenodd" d="M294.5 236.5C294.5 238.167 294.5 239.833 294.5 241.5C269.857 241.819 245.524 241.819 221.5 241.5C221.167 241.5 220.833 241.5 220.5 241.5C214.167 241.5 207.833 241.5 201.5 241.5C201.5 239.5 201.5 237.5 201.5 235.5C231.902 236.186 262.902 236.519 294.5 236.5Z" fill="#C8EFD3"/>
<path fill-rule="evenodd" clip-rule="evenodd" d="M151.5 230.5C158.167 230.5 164.833 230.5 171.5 230.5C171.5 235.167 171.5 239.833 171.5 244.5C171.5 270.5 171.5 296.5 171.5 322.5C164.646 322.824 157.979 322.491 151.5 321.5C157.833 321.5 164.167 321.5 170.5 321.5C170.5 302.5 170.5 283.5 170.5 264.5C170.5 258.833 170.5 253.167 170.5 247.5C164.211 248.372 157.878 248.705 151.5 248.5C151.5 242.5 151.5 236.5 151.5 230.5Z" fill="#D5F4D6"/>
<path fill-rule="evenodd" clip-rule="evenodd" d="M200.5 241.5C200.833 241.5 201.167 241.5 201.5 241.5C207.833 241.5 214.167 241.5 220.5 241.5C220.666 247.509 220.499 253.509 220 259.5C219.23 260.598 218.397 260.598 217.5 259.5C217.5 254.833 217.5 250.167 217.5 245.5C214.167 245.5 210.833 245.5 207.5 245.5C211.164 244.926 214.831 244.093 218.5 243C208.506 242.5 198.506 242.334 188.5 242.5C188.5 252.833 188.5 263.167 188.5 273.5C187.506 263.681 187.173 253.681 187.5 243.5C191.373 241.57 195.706 240.903 200.5 241.5Z" fill="#5BD667"/>
<path fill-rule="evenodd" clip-rule="evenodd" d="M221.5 241.5C245.524 241.819 269.857 241.819 294.5 241.5C294.5 244.167 294.5 246.833 294.5 249.5C281.16 249.389 267.827 249.055 254.5 248.5C249.846 245.78 244.846 244.614 239.5 245C238.495 246.507 237.162 247.673 235.5 248.5C234.972 250.336 234.306 252.003 233.5 253.5C229.702 252.517 225.702 252.183 221.5 252.5C221.5 248.833 221.5 245.167 221.5 241.5Z" fill="#D8F4E0"/>
<path fill-rule="evenodd" clip-rule="evenodd" d="M117.5 232.5C119.467 232.261 121.301 232.594 123 233.5C123.847 236.49 122.68 237.824 119.5 237.5C119.666 246.173 119.5 254.84 119 263.5C116.837 268.618 113.671 269.618 109.5 266.5C110.25 258.166 111.083 249.832 112 241.5C112.199 239.598 113.033 238.098 114.5 237C113.027 236.29 112.36 235.124 112.5 233.5C114.415 233.784 116.081 233.451 117.5 232.5Z" fill="#619658"/>
<path fill-rule="evenodd" clip-rule="evenodd" d="M254.5 248.5C256.025 252.062 255.191 255.062 252 257.5C251.502 260.482 251.335 263.482 251.5 266.5C251.5 267.167 251.5 267.833 251.5 268.5C245.565 272.716 239.898 272.383 234.5 267.5C233.686 262.881 233.353 258.214 233.5 253.5C234.306 252.003 234.972 250.336 235.5 248.5C237.162 247.673 238.495 246.507 239.5 245C244.846 244.614 249.846 245.78 254.5 248.5Z" fill="#646464"/>
<path fill-rule="evenodd" clip-rule="evenodd" d="M200.5 245.5C202.833 245.5 205.167 245.5 207.5 245.5C210.833 245.5 214.167 245.5 217.5 245.5C217.5 250.167 217.5 254.833 217.5 259.5C217.5 262.833 217.5 266.167 217.5 269.5C213.167 269.5 208.833 269.5 204.5 269.5C203.993 268.141 202.993 267.141 201.5 266.5C200.828 264.47 200.162 262.47 199.5 260.5C200.487 255.695 200.821 250.695 200.5 245.5Z" fill="#EDFAF0"/>
<path fill-rule="evenodd" clip-rule="evenodd" d="M350.5 223.5C351.15 223.804 351.817 224.137 352.5 224.5C353.499 237.817 353.833 251.15 353.5 264.5C352.609 263.89 351.609 263.557 350.5 263.5C334.327 262.252 317.994 262.252 301.5 263.5C298.887 263.357 296.553 262.69 294.5 261.5C294.5 257.5 294.5 253.5 294.5 249.5C294.5 246.833 294.5 244.167 294.5 241.5C294.5 239.833 294.5 238.167 294.5 236.5C294.5 235.167 294.5 233.833 294.5 232.5C263.167 232.5 231.833 232.5 200.5 232.5C232.003 231.17 263.669 231.17 295.5 232.5C299.377 233.197 303.21 233.864 307 234.5C307.21 232.942 307.71 231.609 308.5 230.5C308.5 240.167 308.5 249.833 308.5 259.5C322.5 259.5 336.5 259.5 350.5 259.5C350.5 248.5 350.5 237.5 350.5 226.5C350.5 225.5 350.5 224.5 350.5 223.5Z" fill="#8AE493"/>
<path fill-rule="evenodd" clip-rule="evenodd" d="M151.5 225.5C151.5 227.167 151.5 228.833 151.5 230.5C151.5 236.5 151.5 242.5 151.5 248.5C151.5 253.833 151.5 259.167 151.5 264.5C151.5 283.5 151.5 302.5 151.5 321.5C157.979 322.491 164.646 322.824 171.5 322.5C171.5 296.5 171.5 270.5 171.5 244.5C176.927 244.782 182.26 244.449 187.5 243.5C187.173 253.681 187.506 263.681 188.5 273.5C190.5 273.5 192.5 273.5 194.5 273.5C192.721 280.737 192.221 288.07 193 295.5C193.833 296.333 194.667 297.167 195.5 298C198.482 298.498 201.482 298.665 204.5 298.5C203.432 299.434 202.099 299.768 200.5 299.5C200.5 306.833 200.5 314.167 200.5 321.5C208.5 321.5 216.5 321.5 224.5 321.5C224.5 320.167 224.5 318.833 224.5 317.5C225.01 322.525 226.01 327.525 227.5 332.5C227.167 335.833 226.833 339.167 226.5 342.5C201.831 342.667 177.164 342.5 152.5 342C149.211 340.59 147.544 338.09 147.5 334.5C147.5 299.5 147.5 264.5 147.5 229.5C148.5 229.5 149.5 229.5 150.5 229.5C150.232 227.901 150.566 226.568 151.5 225.5Z" fill="#ADE4B3"/>
<path fill-rule="evenodd" clip-rule="evenodd" d="M170.5 264.5C164.347 264.648 158.014 264.648 151.5 264.5C151.5 259.167 151.5 253.833 151.5 248.5C157.878 248.705 164.211 248.372 170.5 247.5C170.5 253.167 170.5 258.833 170.5 264.5Z" fill="#EDFAED"/>
<path fill-rule="evenodd" clip-rule="evenodd" d="M200.5 245.5C200.821 250.695 200.487 255.695 199.5 260.5C195.278 262.428 193.611 265.761 194.5 270.5C193.5 270.5 192.5 270.5 191.5 270.5C191.5 262.167 191.5 253.833 191.5 245.5C194.5 245.5 197.5 245.5 200.5 245.5Z" fill="#A3E7B6"/>
<path fill-rule="evenodd" clip-rule="evenodd" d="M199.5 260.5C200.162 262.47 200.828 264.47 201.5 266.5C202.993 267.141 203.993 268.141 204.5 269.5C203.5 270.833 202.5 272.167 201.5 273.5C200.167 273.5 198.833 273.5 197.5 273.5C196.167 272.833 195.167 271.833 194.5 270.5C193.611 265.761 195.278 262.428 199.5 260.5Z" fill="#F1AC82"/>
<path fill-rule="evenodd" clip-rule="evenodd" d="M254.5 248.5C267.827 249.055 281.16 249.389 294.5 249.5C294.5 253.5 294.5 257.5 294.5 261.5C294.5 263.5 294.5 265.5 294.5 267.5C280.203 266.551 265.869 266.218 251.5 266.5C251.335 263.482 251.502 260.482 252 257.5C255.191 255.062 256.025 252.062 254.5 248.5Z" fill="#F0FAF1"/>
<path fill-rule="evenodd" clip-rule="evenodd" d="M294.5 261.5C296.553 262.69 298.887 263.357 301.5 263.5C317.994 262.252 334.327 262.252 350.5 263.5C351.609 263.557 352.609 263.89 353.5 264.5C353.5 288.167 353.5 311.833 353.5 335.5C353.089 339.079 351.089 341.246 347.5 342C317.502 342.5 287.502 342.667 257.5 342.5C257.5 340.167 257.5 337.833 257.5 335.5C259.052 336.622 260.718 337.122 262.5 337C264.202 334.765 265.202 332.265 265.5 329.5C266.397 330.598 267.23 330.598 268 329.5C269.697 326.328 271.53 323.328 273.5 320.5C280.5 320.5 287.5 320.5 294.5 320.5C294.5 302.833 294.5 285.167 294.5 267.5C294.5 265.5 294.5 263.5 294.5 261.5Z" fill="#7FE98A"/>
<path fill-rule="evenodd" clip-rule="evenodd" d="M221.5 252.5C225.702 252.183 229.702 252.517 233.5 253.5C233.353 258.214 233.686 262.881 234.5 267.5C235.801 269.672 236.801 272.005 237.5 274.5C229.664 274.356 222.664 276.522 216.5 281C212.154 283.674 207.487 285.507 202.5 286.5C201.353 286.182 200.519 285.516 200 284.5C199.457 281.132 199.624 277.799 200.5 274.5C199.209 274.737 198.209 274.404 197.5 273.5C198.833 273.5 200.167 273.5 201.5 273.5C208.167 273.5 214.833 273.5 221.5 273.5C221.5 266.5 221.5 259.5 221.5 252.5Z" fill="#F6FBF7"/>
<path fill-rule="evenodd" clip-rule="evenodd" d="M251.5 266.5C265.869 266.218 280.203 266.551 294.5 267.5C294.5 285.167 294.5 302.833 294.5 320.5C287.5 320.5 280.5 320.5 273.5 320.5C275.303 316.218 277.137 311.885 279 307.5C281.831 300.46 280.831 294.127 276 288.5C269.016 279.425 259.849 274.758 248.5 274.5C249.206 272.328 250.206 270.328 251.5 268.5C251.5 267.833 251.5 267.167 251.5 266.5Z" fill="#FCFEFC"/>
<path fill-rule="evenodd" clip-rule="evenodd" d="M350.5 263.5C350.5 265.5 350.5 267.5 350.5 269.5C336.5 269.5 322.5 269.5 308.5 269.5C308.5 267.5 308.5 265.5 308.5 263.5C322.5 263.5 336.5 263.5 350.5 263.5Z" fill="#DAF5D8"/>
<path fill-rule="evenodd" clip-rule="evenodd" d="M234.5 267.5C239.898 272.383 245.565 272.716 251.5 268.5C250.206 270.328 249.206 272.328 248.5 274.5C244.833 274.5 241.167 274.5 237.5 274.5C236.801 272.005 235.801 269.672 234.5 267.5Z" fill="#F4B184"/>
<path fill-rule="evenodd" clip-rule="evenodd" d="M220.5 241.5C220.833 241.5 221.167 241.5 221.5 241.5C221.5 245.167 221.5 248.833 221.5 252.5C221.5 259.5 221.5 266.5 221.5 273.5C214.833 273.5 208.167 273.5 201.5 273.5C202.5 272.167 203.5 270.833 204.5 269.5C208.833 269.5 213.167 269.5 217.5 269.5C217.5 266.167 217.5 262.833 217.5 259.5C218.397 260.598 219.23 260.598 220 259.5C220.499 253.509 220.666 247.509 220.5 241.5Z" fill="#8DE296"/>
<path fill-rule="evenodd" clip-rule="evenodd" d="M151.5 264.5C158.014 264.648 164.347 264.648 170.5 264.5C170.5 283.5 170.5 302.5 170.5 321.5C164.167 321.5 157.833 321.5 151.5 321.5C151.5 302.5 151.5 283.5 151.5 264.5Z" fill="#FDFEFD"/>
<path fill-rule="evenodd" clip-rule="evenodd" d="M207.5 245.5C205.167 245.5 202.833 245.5 200.5 245.5C197.5 245.5 194.5 245.5 191.5 245.5C191.5 253.833 191.5 262.167 191.5 270.5C192.5 270.5 193.5 270.5 194.5 270.5C195.167 271.833 196.167 272.833 197.5 273.5C198.209 274.404 199.209 274.737 200.5 274.5C199.624 277.799 199.457 281.132 200 284.5C200.519 285.516 201.353 286.182 202.5 286.5C207.487 285.507 212.154 283.674 216.5 281C222.664 276.522 229.664 274.356 237.5 274.5C241.167 274.5 244.833 274.5 248.5 274.5C259.849 274.758 269.016 279.425 276 288.5C280.831 294.127 281.831 300.46 279 307.5C277.137 311.885 275.303 316.218 273.5 320.5C271.53 323.328 269.697 326.328 268 329.5C267.23 330.598 266.397 330.598 265.5 329.5C265.167 328.5 264.5 327.833 263.5 327.5C263.833 325.5 264.167 323.5 264.5 321.5C269.345 314.824 270.845 307.491 269 299.5C267.333 297.833 265.667 296.167 264 294.5C263.076 303.498 262.243 312.498 261.5 321.5C261.007 323.806 260.674 326.139 260.5 328.5C258.273 329.401 257.273 331.067 257.5 333.5C247.328 335.132 237.328 334.799 227.5 332.5C226.01 327.525 225.01 322.525 224.5 317.5C224.239 309.527 222.572 301.861 219.5 294.5C214.699 296.657 209.699 297.99 204.5 298.5C201.482 298.665 198.482 298.498 195.5 298C194.667 297.167 193.833 296.333 193 295.5C192.221 288.07 192.721 280.737 194.5 273.5C192.5 273.5 190.5 273.5 188.5 273.5C188.5 263.167 188.5 252.833 188.5 242.5C198.506 242.334 208.506 242.5 218.5 243C214.831 244.093 211.164 244.926 207.5 245.5Z" fill="#3F503C"/>
<path fill-rule="evenodd" clip-rule="evenodd" d="M308.5 269.5C322.5 269.5 336.5 269.5 350.5 269.5C350.5 272.167 350.5 274.833 350.5 277.5C336.579 276.518 322.579 276.185 308.5 276.5C308.5 274.167 308.5 271.833 308.5 269.5Z" fill="#ECFAED"/>
<path fill-rule="evenodd" clip-rule="evenodd" d="M308.5 276.5C322.579 276.185 336.579 276.518 350.5 277.5C350.5 286.833 350.5 296.167 350.5 305.5C336.5 305.5 322.5 305.5 308.5 305.5C308.5 295.833 308.5 286.167 308.5 276.5Z" fill="#FDFEFD"/>
<path fill-rule="evenodd" clip-rule="evenodd" d="M224.5 317.5C224.5 318.833 224.5 320.167 224.5 321.5C216.5 321.5 208.5 321.5 200.5 321.5C200.5 314.167 200.5 306.833 200.5 299.5C202.099 299.768 203.432 299.434 204.5 298.5C209.699 297.99 214.699 296.657 219.5 294.5C222.572 301.861 224.239 309.527 224.5 317.5Z" fill="#F9FDF9"/>
<path fill-rule="evenodd" clip-rule="evenodd" d="M264.5 321.5C263.5 321.5 262.5 321.5 261.5 321.5C262.243 312.498 263.076 303.498 264 294.5C265.667 296.167 267.333 297.833 269 299.5C270.845 307.491 269.345 314.824 264.5 321.5Z" fill="#F9F5FC"/>
<path opacity="0.954" fill-rule="evenodd" clip-rule="evenodd" d="M393.5 275.5C393.5 310.167 393.5 344.833 393.5 379.5C390.5 379.5 387.5 379.5 384.5 379.5C384.5 365.5 384.5 351.5 384.5 337.5C385.469 329.761 386.469 321.928 387.5 314C387.384 312.732 387.051 311.398 386.5 310C387.167 307.333 387.833 304.667 388.5 302C388.167 301 387.833 300 387.5 299C388.142 293.276 389.142 287.609 390.5 282C389.941 281.275 389.608 280.442 389.5 279.5C390.112 271.145 390.946 262.811 392 254.5C392.171 261.679 392.671 268.679 393.5 275.5Z" fill="#7FE98A"/>
<path fill-rule="evenodd" clip-rule="evenodd" d="M261.5 321.5C262.5 321.5 263.5 321.5 264.5 321.5C264.167 323.5 263.833 325.5 263.5 327.5C262.391 327.557 261.391 327.89 260.5 328.5C260.674 326.139 261.007 323.806 261.5 321.5Z" fill="#ABE5A2"/>
<path fill-rule="evenodd" clip-rule="evenodd" d="M263.5 327.5C264.5 327.833 265.167 328.5 265.5 329.5C265.202 332.265 264.202 334.765 262.5 337C260.718 337.122 259.052 336.622 257.5 335.5C257.5 334.833 257.5 334.167 257.5 333.5C257.273 331.067 258.273 329.401 260.5 328.5C261.391 327.89 262.391 327.557 263.5 327.5Z" fill="#EFA984"/>
<path fill-rule="evenodd" clip-rule="evenodd" d="M227.5 332.5C237.328 334.799 247.328 335.132 257.5 333.5C257.5 334.167 257.5 334.833 257.5 335.5C257.5 337.833 257.5 340.167 257.5 342.5C257.5 343.833 257.5 345.167 257.5 346.5C253.648 346.87 249.981 347.87 246.5 349.5C246.833 350.167 247.167 350.833 247.5 351.5C245.851 352.981 244.518 354.648 243.5 356.5C243.585 355.005 242.919 354.005 241.5 353.5C240.712 354.77 239.712 355.77 238.5 356.5C238.44 355.957 238.107 355.624 237.5 355.5C232.92 356.734 228.587 357.734 224.5 358.5C223.571 357.311 223.238 355.978 223.5 354.5C224.188 350.416 225.188 346.416 226.5 342.5C226.833 339.167 227.167 335.833 227.5 332.5Z" fill="#3A3A3B"/>
<path fill-rule="evenodd" clip-rule="evenodd" d="M257.5 346.5C257.5 346.833 257.5 347.167 257.5 347.5C257.5 357.5 257.5 367.5 257.5 377.5C256.593 386.512 255.593 395.512 254.5 404.5C253.833 406.5 253.167 408.5 252.5 410.5C250.559 410.131 248.725 409.464 247 408.5C247.515 396.339 247.348 384.339 246.5 372.5C246.766 366.903 245.766 361.57 243.5 356.5C244.518 354.648 245.851 352.981 247.5 351.5C247.167 350.833 246.833 350.167 246.5 349.5C249.981 347.87 253.648 346.87 257.5 346.5Z" fill="#4B4A4D"/>
<path fill-rule="evenodd" clip-rule="evenodd" d="M257.5 347.5C262.167 347.5 266.833 347.5 271.5 347.5C271.5 350.5 271.5 353.5 271.5 356.5C270.71 357.609 270.21 358.942 270 360.5C266.534 359.798 263.034 359.131 259.5 358.5C258.507 363.12 258.173 367.786 258.5 372.5C258.784 374.415 258.451 376.081 257.5 377.5C257.5 367.5 257.5 357.5 257.5 347.5Z" fill="#238912"/>
<path fill-rule="evenodd" clip-rule="evenodd" d="M271.5 356.5C271.5 361.833 271.5 367.167 271.5 372.5C267.167 372.5 262.833 372.5 258.5 372.5C258.173 367.786 258.507 363.12 259.5 358.5C263.034 359.131 266.534 359.798 270 360.5C270.21 358.942 270.71 357.609 271.5 356.5Z" fill="#10AA16"/>
<path fill-rule="evenodd" clip-rule="evenodd" d="M243.5 356.5C245.766 361.57 246.766 366.903 246.5 372.5C241.5 372.5 236.5 372.5 231.5 372.5C233.833 367.167 236.167 361.833 238.5 356.5C239.712 355.77 240.712 354.77 241.5 353.5C242.919 354.005 243.585 355.005 243.5 356.5Z" fill="#13A819"/>
<path fill-rule="evenodd" clip-rule="evenodd" d="M223.5 354.5C223.238 355.978 223.571 357.311 224.5 358.5C228.587 357.734 232.92 356.734 237.5 355.5C238.107 355.624 238.44 355.957 238.5 356.5C236.167 361.833 233.833 367.167 231.5 372.5C225.467 384.897 219.134 397.231 212.5 409.5C210.775 408.985 209.108 408.318 207.5 407.5C213.283 389.83 218.616 372.164 223.5 354.5Z" fill="#5B5E5A"/>
<path fill-rule="evenodd" clip-rule="evenodd" d="M393.5 386.5C394.836 396.427 390.836 400.427 381.5 398.5C386.134 399.441 387.301 398.107 385 394.5C382.833 392.333 380.667 390.167 378.5 388C383.309 386.558 388.309 386.058 393.5 386.5Z" fill="#0E7F0C"/>
<path fill-rule="evenodd" clip-rule="evenodd" d="M384.5 379.5C387.5 379.5 390.5 379.5 393.5 379.5C393.5 381.833 393.5 384.167 393.5 386.5C388.309 386.058 383.309 386.558 378.5 388C380.667 390.167 382.833 392.333 385 394.5C387.301 398.107 386.134 399.441 381.5 398.5C379.248 398.084 377.748 396.751 377 394.5C376.501 389.511 376.334 384.511 376.5 379.5C379.167 379.5 381.833 379.5 384.5 379.5Z" fill="#299827"/>
<path opacity="0.588" fill-rule="evenodd" clip-rule="evenodd" d="M254.5 404.5C254.808 406.924 254.474 409.257 253.5 411.5C252.893 411.376 252.56 411.043 252.5 410.5C253.167 408.5 253.833 406.5 254.5 404.5Z" fill="#693F8C"/>
</g>
<defs>
<clipPath id="clip0_4_4">
<rect width="500" height="500" fill="white"/>
</clipPath>
</defs>
</svg>
